# Tiled2Unity generated file. Do not modify by hand.
# Wavefront file for 'test_house_mesh_0004.obj'

# Vertices (Count = 40)
v -576 -672 0
v -592 -672 0
v -592 -656 0
v -576 -656 0
v -528 -672 0
v -544 -672 0
v -544 -656 0
v -528 -656 0
v -512 -672 0
v -528 -672 0
v -528 -656 0
v -512 -656 0
v -608 -688 0
v -624 -688 0
v -624 -672 0
v -608 -672 0
v -576 -688 0
v -592 -688 0
v -592 -672 0
v -576 -672 0
v -528 -688 0
v -544 -688 0
v -544 -672 0
v -528 -672 0
v -512 -688 0
v -528 -688 0
v -528 -672 0
v -512 -672 0
v -544 -720 0
v -560 -720 0
v -560 -704 0
v -544 -704 0
v -528 -720 0
v -544 -720 0
v -544 -704 0
v -528 -704 0
v -512 -720 0
v -528 -720 0
v -528 -704 0
v -512 -704 0

# Texture cooridinates (Count = 40)
vt 0.4214876 0.743346
vt 0.4380165 0.743346
vt 0.4380165 0.7737643
vt 0.4214876 0.7737643
vt 0.2107438 0.7756654
vt 0.2272727 0.7756654
vt 0.2272727 0.8060837
vt 0.2107438 0.8060837
vt 0.2107438 0.8079848
vt 0.2272727 0.8079848
vt 0.2272727 0.838403
vt 0.2107438 0.838403
vt 0.2458678 0.9372624
vt 0.2623967 0.9372624
vt 0.2623967 0.9676806
vt 0.2458678 0.9676806
vt 0.4214876 0.7756654
vt 0.4380165 0.7756654
vt 0.4380165 0.8060837
vt 0.4214876 0.8060837
vt 0.1931818 0.7756654
vt 0.2097107 0.7756654
vt 0.2097107 0.8060837
vt 0.1931818 0.8060837
vt 0.1931818 0.8079848
vt 0.2097107 0.8079848
vt 0.2097107 0.838403
vt 0.1931818 0.838403
vt 0.3863636 0.8403042
vt 0.4028926 0.8403042
vt 0.4028926 0.8707224
vt 0.3863636 0.8707224
vt 0.3863636 0.7756654
vt 0.4028926 0.7756654
vt 0.4028926 0.8060837
vt 0.3863636 0.8060837
vt 0.3688017 0.8403042
vt 0.3853306 0.8403042
vt 0.3853306 0.8707224
vt 0.3688017 0.8707224

# Normal
vn 0 0 -1

# Mesh description
g test_house_mesh_0004

# Faces
f 1/1/1 2/2/1 3/3/1 4/4/1
f 5/5/1 6/6/1 7/7/1 8/8/1
f 9/9/1 10/10/1 11/11/1 12/12/1
f 13/13/1 14/14/1 15/15/1 16/16/1
f 17/17/1 18/18/1 19/19/1 20/20/1
f 21/21/1 22/22/1 23/23/1 24/24/1
f 25/25/1 26/26/1 27/27/1 28/28/1
f 29/29/1 30/30/1 31/31/1 32/32/1
f 33/33/1 34/34/1 35/35/1 36/36/1
f 37/37/1 38/38/1 39/39/1 40/40/1

