# Tiled2Unity generated file. Do not modify by hand.
# Wavefront file for 'innflr2_mesh_0004.obj'

# Vertices (Count = 16)
v -688 -544 0
v -704 -544 0
v -704 -528 0
v -688 -528 0
v -672 -544 0
v -688 -544 0
v -688 -528 0
v -672 -528 0
v -576 -544 0
v -592 -544 0
v -592 -528 0
v -576 -528 0
v -560 -544 0
v -576 -544 0
v -576 -528 0
v -560 -528 0

# Texture cooridinates (Count = 4)
vt 0.7376033 0.904943
vt 0.7541322 0.904943
vt 0.7541322 0.9353612
vt 0.7376033 0.9353612

# Normal
vn 0 0 -1

# Mesh description
g innflr2_mesh_0004

# Faces
f 1/1/1 2/2/1 3/3/1 4/4/1
f 5/1/1 6/2/1 7/3/1 8/4/1
f 9/1/1 10/2/1 11/3/1 12/4/1
f 13/1/1 14/2/1 15/3/1 16/4/1

