# Tiled2Unity generated file. Do not modify by hand.
# Wavefront file for 'village1_mesh_0004.obj'

# Vertices (Count = 448)
v -640 -320 0
v -656 -320 0
v -656 -304 0
v -640 -304 0
v -576 -320 0
v -592 -320 0
v -592 -304 0
v -576 -304 0
v -640 -336 0
v -656 -336 0
v -656 -320 0
v -640 -320 0
v -576 -336 0
v -592 -336 0
v -592 -320 0
v -576 -320 0
v -912 -352 0
v -928 -352 0
v -928 -336 0
v -912 -336 0
v -896 -352 0
v -912 -352 0
v -912 -336 0
v -896 -336 0
v -880 -352 0
v -896 -352 0
v -896 -336 0
v -880 -336 0
v -864 -352 0
v -880 -352 0
v -880 -336 0
v -864 -336 0
v -848 -352 0
v -864 -352 0
v -864 -336 0
v -848 -336 0
v -832 -352 0
v -848 -352 0
v -848 -336 0
v -832 -336 0
v -816 -352 0
v -832 -352 0
v -832 -336 0
v -816 -336 0
v -800 -352 0
v -816 -352 0
v -816 -336 0
v -800 -336 0
v -784 -352 0
v -800 -352 0
v -800 -336 0
v -784 -336 0
v -768 -352 0
v -784 -352 0
v -784 -336 0
v -768 -336 0
v -752 -352 0
v -768 -352 0
v -768 -336 0
v -752 -336 0
v -736 -352 0
v -752 -352 0
v -752 -336 0
v -736 -336 0
v -720 -352 0
v -736 -352 0
v -736 -336 0
v -720 -336 0
v -704 -352 0
v -720 -352 0
v -720 -336 0
v -704 -336 0
v -688 -352 0
v -704 -352 0
v -704 -336 0
v -688 -336 0
v -672 -352 0
v -688 -352 0
v -688 -336 0
v -672 -336 0
v -656 -352 0
v -672 -352 0
v -672 -336 0
v -656 -336 0
v -640 -352 0
v -656 -352 0
v -656 -336 0
v -640 -336 0
v -576 -352 0
v -592 -352 0
v -592 -336 0
v -576 -336 0
v -560 -352 0
v -576 -352 0
v -576 -336 0
v -560 -336 0
v -544 -352 0
v -560 -352 0
v -560 -336 0
v -544 -336 0
v -528 -352 0
v -544 -352 0
v -544 -336 0
v -528 -336 0
v -512 -352 0
v -528 -352 0
v -528 -336 0
v -512 -336 0
v -496 -352 0
v -512 -352 0
v -512 -336 0
v -496 -336 0
v -480 -352 0
v -496 -352 0
v -496 -336 0
v -480 -336 0
v -912 -368 0
v -928 -368 0
v -928 -352 0
v -912 -352 0
v -480 -368 0
v -496 -368 0
v -496 -352 0
v -480 -352 0
v -912 -384 0
v -928 -384 0
v -928 -368 0
v -912 -368 0
v -480 -384 0
v -496 -384 0
v -496 -368 0
v -480 -368 0
v -912 -400 0
v -928 -400 0
v -928 -384 0
v -912 -384 0
v -480 -400 0
v -496 -400 0
v -496 -384 0
v -480 -384 0
v -912 -416 0
v -928 -416 0
v -928 -400 0
v -912 -400 0
v -480 -416 0
v -496 -416 0
v -496 -400 0
v -480 -400 0
v -912 -432 0
v -928 -432 0
v -928 -416 0
v -912 -416 0
v -480 -432 0
v -496 -432 0
v -496 -416 0
v -480 -416 0
v -912 -448 0
v -928 -448 0
v -928 -432 0
v -912 -432 0
v -480 -448 0
v -496 -448 0
v -496 -432 0
v -480 -432 0
v -912 -464 0
v -928 -464 0
v -928 -448 0
v -912 -448 0
v -480 -464 0
v -496 -464 0
v -496 -448 0
v -480 -448 0
v -912 -480 0
v -928 -480 0
v -928 -464 0
v -912 -464 0
v -480 -480 0
v -496 -480 0
v -496 -464 0
v -480 -464 0
v -976 -496 0
v -992 -496 0
v -992 -480 0
v -976 -480 0
v -960 -496 0
v -976 -496 0
v -976 -480 0
v -960 -480 0
v -944 -496 0
v -960 -496 0
v -960 -480 0
v -944 -480 0
v -928 -496 0
v -944 -496 0
v -944 -480 0
v -928 -480 0
v -912 -496 0
v -928 -496 0
v -928 -480 0
v -912 -480 0
v -480 -496 0
v -496 -496 0
v -496 -480 0
v -480 -480 0
v -464 -496 0
v -480 -496 0
v -480 -480 0
v -464 -480 0
v -464 -512 0
v -480 -512 0
v -480 -496 0
v -464 -496 0
v -464 -528 0
v -480 -528 0
v -480 -512 0
v -464 -512 0
v -464 -544 0
v -480 -544 0
v -480 -528 0
v -464 -528 0
v -464 -560 0
v -480 -560 0
v -480 -544 0
v -464 -544 0
v -464 -576 0
v -480 -576 0
v -480 -560 0
v -464 -560 0
v -464 -592 0
v -480 -592 0
v -480 -576 0
v -464 -576 0
v -464 -608 0
v -480 -608 0
v -480 -592 0
v -464 -592 0
v -976 -624 0
v -992 -624 0
v -992 -608 0
v -976 -608 0
v -960 -624 0
v -976 -624 0
v -976 -608 0
v -960 -608 0
v -944 -624 0
v -960 -624 0
v -960 -608 0
v -944 -608 0
v -928 -624 0
v -944 -624 0
v -944 -608 0
v -928 -608 0
v -912 -624 0
v -928 -624 0
v -928 -608 0
v -912 -608 0
v -464 -624 0
v -480 -624 0
v -480 -608 0
v -464 -608 0
v -912 -640 0
v -928 -640 0
v -928 -624 0
v -912 -624 0
v -464 -640 0
v -480 -640 0
v -480 -624 0
v -464 -624 0
v -912 -656 0
v -928 -656 0
v -928 -640 0
v -912 -640 0
v -464 -656 0
v -480 -656 0
v -480 -640 0
v -464 -640 0
v -912 -672 0
v -928 -672 0
v -928 -656 0
v -912 -656 0
v -464 -672 0
v -480 -672 0
v -480 -656 0
v -464 -656 0
v -912 -688 0
v -928 -688 0
v -928 -672 0
v -912 -672 0
v -464 -688 0
v -480 -688 0
v -480 -672 0
v -464 -672 0
v -912 -704 0
v -928 -704 0
v -928 -688 0
v -912 -688 0
v -464 -704 0
v -480 -704 0
v -480 -688 0
v -464 -688 0
v -912 -720 0
v -928 -720 0
v -928 -704 0
v -912 -704 0
v -464 -720 0
v -480 -720 0
v -480 -704 0
v -464 -704 0
v -912 -736 0
v -928 -736 0
v -928 -720 0
v -912 -720 0
v -464 -736 0
v -480 -736 0
v -480 -720 0
v -464 -720 0
v -912 -752 0
v -928 -752 0
v -928 -736 0
v -912 -736 0
v -464 -752 0
v -480 -752 0
v -480 -736 0
v -464 -736 0
v -912 -768 0
v -928 -768 0
v -928 -752 0
v -912 -752 0
v -464 -768 0
v -480 -768 0
v -480 -752 0
v -464 -752 0
v -912 -784 0
v -928 -784 0
v -928 -768 0
v -912 -768 0
v -896 -784 0
v -912 -784 0
v -912 -768 0
v -896 -768 0
v -880 -784 0
v -896 -784 0
v -896 -768 0
v -880 -768 0
v -864 -784 0
v -880 -784 0
v -880 -768 0
v -864 -768 0
v -848 -784 0
v -864 -784 0
v -864 -768 0
v -848 -768 0
v -832 -784 0
v -848 -784 0
v -848 -768 0
v -832 -768 0
v -816 -784 0
v -832 -784 0
v -832 -768 0
v -816 -768 0
v -800 -784 0
v -816 -784 0
v -816 -768 0
v -800 -768 0
v -720 -784 0
v -736 -784 0
v -736 -768 0
v -720 -768 0
v -704 -784 0
v -720 -784 0
v -720 -768 0
v -704 -768 0
v -688 -784 0
v -704 -784 0
v -704 -768 0
v -688 -768 0
v -672 -784 0
v -688 -784 0
v -688 -768 0
v -672 -768 0
v -656 -784 0
v -672 -784 0
v -672 -768 0
v -656 -768 0
v -640 -784 0
v -656 -784 0
v -656 -768 0
v -640 -768 0
v -624 -784 0
v -640 -784 0
v -640 -768 0
v -624 -768 0
v -608 -784 0
v -624 -784 0
v -624 -768 0
v -608 -768 0
v -592 -784 0
v -608 -784 0
v -608 -768 0
v -592 -768 0
v -576 -784 0
v -592 -784 0
v -592 -768 0
v -576 -768 0
v -560 -784 0
v -576 -784 0
v -576 -768 0
v -560 -768 0
v -544 -784 0
v -560 -784 0
v -560 -768 0
v -544 -768 0
v -528 -784 0
v -544 -784 0
v -544 -768 0
v -528 -768 0
v -512 -784 0
v -528 -784 0
v -528 -768 0
v -512 -768 0
v -496 -784 0
v -512 -784 0
v -512 -768 0
v -496 -768 0
v -480 -784 0
v -496 -784 0
v -496 -768 0
v -480 -768 0
v -464 -784 0
v -480 -784 0
v -480 -768 0
v -464 -768 0
v -800 -800 0
v -816 -800 0
v -816 -784 0
v -800 -784 0
v -720 -800 0
v -736 -800 0
v -736 -784 0
v -720 -784 0
v -800 -816 0
v -816 -816 0
v -816 -800 0
v -800 -800 0
v -720 -816 0
v -736 -816 0
v -736 -800 0
v -720 -800 0

# Texture cooridinates (Count = 20)
vt 0.8780992 0.2262357
vt 0.8946281 0.2262357
vt 0.8946281 0.256654
vt 0.8780992 0.256654
vt 0.8956612 0.2262357
vt 0.9121901 0.2262357
vt 0.9121901 0.256654
vt 0.8956612 0.256654
vt 0.8605372 0.2262357
vt 0.8770661 0.2262357
vt 0.8770661 0.256654
vt 0.8605372 0.256654
vt 0.9307851 0.2262357
vt 0.947314 0.2262357
vt 0.947314 0.256654
vt 0.9307851 0.256654
vt 0.8429752 0.2262357
vt 0.8595041 0.2262357
vt 0.8595041 0.256654
vt 0.8429752 0.256654

# Normal
vn 0 0 -1

# Mesh description
g village1_mesh_0004

# Faces
f 1/1/1 2/2/1 3/3/1 4/4/1
f 5/5/1 6/6/1 7/7/1 8/8/1
f 9/1/1 10/2/1 11/3/1 12/4/1
f 13/5/1 14/6/1 15/7/1 16/8/1
f 17/9/1 18/10/1 19/11/1 20/12/1
f 21/13/1 22/14/1 23/15/1 24/16/1
f 25/13/1 26/14/1 27/15/1 28/16/1
f 29/13/1 30/14/1 31/15/1 32/16/1
f 33/13/1 34/14/1 35/15/1 36/16/1
f 37/13/1 38/14/1 39/15/1 40/16/1
f 41/13/1 42/14/1 43/15/1 44/16/1
f 45/13/1 46/14/1 47/15/1 48/16/1
f 49/13/1 50/14/1 51/15/1 52/16/1
f 53/13/1 54/14/1 55/15/1 56/16/1
f 57/13/1 58/14/1 59/15/1 60/16/1
f 61/13/1 62/14/1 63/15/1 64/16/1
f 65/13/1 66/14/1 67/15/1 68/16/1
f 69/13/1 70/14/1 71/15/1 72/16/1
f 73/13/1 74/14/1 75/15/1 76/16/1
f 77/13/1 78/14/1 79/15/1 80/16/1
f 81/17/1 82/18/1 83/19/1 84/20/1
f 85/1/1 86/2/1 87/3/1 88/4/1
f 89/5/1 90/6/1 91/7/1 92/8/1
f 93/9/1 94/10/1 95/11/1 96/12/1
f 97/13/1 98/14/1 99/15/1 100/16/1
f 101/13/1 102/14/1 103/15/1 104/16/1
f 105/13/1 106/14/1 107/15/1 108/16/1
f 109/13/1 110/14/1 111/15/1 112/16/1
f 113/17/1 114/18/1 115/19/1 116/20/1
f 117/1/1 118/2/1 119/3/1 120/4/1
f 121/5/1 122/6/1 123/7/1 124/8/1
f 125/1/1 126/2/1 127/3/1 128/4/1
f 129/5/1 130/6/1 131/7/1 132/8/1
f 133/1/1 134/2/1 135/3/1 136/4/1
f 137/5/1 138/6/1 139/7/1 140/8/1
f 141/1/1 142/2/1 143/3/1 144/4/1
f 145/5/1 146/6/1 147/7/1 148/8/1
f 149/1/1 150/2/1 151/3/1 152/4/1
f 153/5/1 154/6/1 155/7/1 156/8/1
f 157/1/1 158/2/1 159/3/1 160/4/1
f 161/5/1 162/6/1 163/7/1 164/8/1
f 165/1/1 166/2/1 167/3/1 168/4/1
f 169/5/1 170/6/1 171/7/1 172/8/1
f 173/1/1 174/2/1 175/3/1 176/4/1
f 177/5/1 178/6/1 179/7/1 180/8/1
f 181/9/1 182/10/1 183/11/1 184/12/1
f 185/13/1 186/14/1 187/15/1 188/16/1
f 189/13/1 190/14/1 191/15/1 192/16/1
f 193/17/1 194/18/1 195/19/1 196/20/1
f 197/1/1 198/2/1 199/3/1 200/4/1
f 201/5/1 202/6/1 203/7/1 204/8/1
f 205/17/1 206/18/1 207/19/1 208/20/1
f 209/5/1 210/6/1 211/7/1 212/8/1
f 213/5/1 214/6/1 215/7/1 216/8/1
f 217/5/1 218/6/1 219/7/1 220/8/1
f 221/5/1 222/6/1 223/7/1 224/8/1
f 225/5/1 226/6/1 227/7/1 228/8/1
f 229/5/1 230/6/1 231/7/1 232/8/1
f 233/5/1 234/6/1 235/7/1 236/8/1
f 237/9/1 238/10/1 239/11/1 240/12/1
f 241/13/1 242/14/1 243/15/1 244/16/1
f 245/13/1 246/14/1 247/15/1 248/16/1
f 249/17/1 250/18/1 251/19/1 252/20/1
f 253/1/1 254/2/1 255/3/1 256/4/1
f 257/5/1 258/6/1 259/7/1 260/8/1
f 261/1/1 262/2/1 263/3/1 264/4/1
f 265/5/1 266/6/1 267/7/1 268/8/1
f 269/1/1 270/2/1 271/3/1 272/4/1
f 273/5/1 274/6/1 275/7/1 276/8/1
f 277/1/1 278/2/1 279/3/1 280/4/1
f 281/5/1 282/6/1 283/7/1 284/8/1
f 285/1/1 286/2/1 287/3/1 288/4/1
f 289/5/1 290/6/1 291/7/1 292/8/1
f 293/1/1 294/2/1 295/3/1 296/4/1
f 297/5/1 298/6/1 299/7/1 300/8/1
f 301/1/1 302/2/1 303/3/1 304/4/1
f 305/5/1 306/6/1 307/7/1 308/8/1
f 309/1/1 310/2/1 311/3/1 312/4/1
f 313/5/1 314/6/1 315/7/1 316/8/1
f 317/1/1 318/2/1 319/3/1 320/4/1
f 321/5/1 322/6/1 323/7/1 324/8/1
f 325/1/1 326/2/1 327/3/1 328/4/1
f 329/5/1 330/6/1 331/7/1 332/8/1
f 333/9/1 334/10/1 335/11/1 336/12/1
f 337/13/1 338/14/1 339/15/1 340/16/1
f 341/13/1 342/14/1 343/15/1 344/16/1
f 345/13/1 346/14/1 347/15/1 348/16/1
f 349/13/1 350/14/1 351/15/1 352/16/1
f 353/13/1 354/14/1 355/15/1 356/16/1
f 357/17/1 358/18/1 359/19/1 360/20/1
f 361/1/1 362/2/1 363/3/1 364/4/1
f 365/5/1 366/6/1 367/7/1 368/8/1
f 369/9/1 370/10/1 371/11/1 372/12/1
f 373/13/1 374/14/1 375/15/1 376/16/1
f 377/13/1 378/14/1 379/15/1 380/16/1
f 381/13/1 382/14/1 383/15/1 384/16/1
f 385/13/1 386/14/1 387/15/1 388/16/1
f 389/13/1 390/14/1 391/15/1 392/16/1
f 393/13/1 394/14/1 395/15/1 396/16/1
f 397/13/1 398/14/1 399/15/1 400/16/1
f 401/13/1 402/14/1 403/15/1 404/16/1
f 405/13/1 406/14/1 407/15/1 408/16/1
f 409/13/1 410/14/1 411/15/1 412/16/1
f 413/13/1 414/14/1 415/15/1 416/16/1
f 417/13/1 418/14/1 419/15/1 420/16/1
f 421/13/1 422/14/1 423/15/1 424/16/1
f 425/13/1 426/14/1 427/15/1 428/16/1
f 429/17/1 430/18/1 431/19/1 432/20/1
f 433/1/1 434/2/1 435/3/1 436/4/1
f 437/5/1 438/6/1 439/7/1 440/8/1
f 441/1/1 442/2/1 443/3/1 444/4/1
f 445/5/1 446/6/1 447/7/1 448/8/1

