# Tiled2Unity generated file. Do not modify by hand.
# Wavefront file for 'village1_mesh_0018.obj'

# Vertices (Count = 40)
v -880 -416 0
v -896 -416 0
v -896 -400 0
v -880 -400 0
v -864 -416 0
v -880 -416 0
v -880 -400 0
v -864 -400 0
v -816 -416 0
v -832 -416 0
v -832 -400 0
v -816 -400 0
v -768 -416 0
v -784 -416 0
v -784 -400 0
v -768 -400 0
v -880 -432 0
v -896 -432 0
v -896 -416 0
v -880 -416 0
v -864 -432 0
v -880 -432 0
v -880 -416 0
v -864 -416 0
v -768 -432 0
v -784 -432 0
v -784 -416 0
v -768 -416 0
v -832 -448 0
v -848 -448 0
v -848 -432 0
v -832 -432 0
v -800 -448 0
v -816 -448 0
v -816 -432 0
v -800 -432 0
v -816 -464 0
v -832 -464 0
v -832 -448 0
v -816 -448 0

# Texture cooridinates (Count = 12)
vt 0.7376033 0.904943
vt 0.7541322 0.904943
vt 0.7541322 0.9353612
vt 0.7376033 0.9353612
vt 0.8254132 0.9695817
vt 0.8419421 0.9695817
vt 0.8419421 1
vt 0.8254132 1
vt 0.5619835 0.9372624
vt 0.5785124 0.9372624
vt 0.5785124 0.9676806
vt 0.5619835 0.9676806

# Normal
vn 0 0 -1

# Mesh description
g village1_mesh_0018

# Faces
f 1/1/1 2/2/1 3/3/1 4/4/1
f 5/1/1 6/2/1 7/3/1 8/4/1
f 9/5/1 10/6/1 11/7/1 12/8/1
f 13/1/1 14/2/1 15/3/1 16/4/1
f 17/1/1 18/2/1 19/3/1 20/4/1
f 21/1/1 22/2/1 23/3/1 24/4/1
f 25/1/1 26/2/1 27/3/1 28/4/1
f 29/1/1 30/2/1 31/3/1 32/4/1
f 33/1/1 34/2/1 35/3/1 36/4/1
f 37/9/1 38/10/1 39/11/1 40/12/1

