# Tiled2Unity generated file. Do not modify by hand.
# Wavefront file for 'village1_mesh_0035.obj'

# Vertices (Count = 284)
v -576 -368 0
v -592 -368 0
v -592 -352 0
v -576 -352 0
v -736 -432 0
v -752 -432 0
v -752 -416 0
v -736 -416 0
v -576 -496 0
v -592 -496 0
v -592 -480 0
v -576 -480 0
v -928 -512 0
v -944 -512 0
v -944 -496 0
v -928 -496 0
v -496 -512 0
v -512 -512 0
v -512 -496 0
v -496 -496 0
v -576 -560 0
v -592 -560 0
v -592 -544 0
v -576 -544 0
v -560 -560 0
v -576 -560 0
v -576 -544 0
v -560 -544 0
v -544 -560 0
v -560 -560 0
v -560 -544 0
v -544 -544 0
v -528 -560 0
v -544 -560 0
v -544 -544 0
v -528 -544 0
v -512 -560 0
v -528 -560 0
v -528 -544 0
v -512 -544 0
v -576 -576 0
v -592 -576 0
v -592 -560 0
v -576 -560 0
v -560 -576 0
v -576 -576 0
v -576 -560 0
v -560 -560 0
v -544 -576 0
v -560 -576 0
v -560 -560 0
v -544 -560 0
v -528 -576 0
v -544 -576 0
v -544 -560 0
v -528 -560 0
v -512 -576 0
v -528 -576 0
v -528 -560 0
v -512 -560 0
v -576 -592 0
v -592 -592 0
v -592 -576 0
v -576 -576 0
v -560 -592 0
v -576 -592 0
v -576 -576 0
v -560 -576 0
v -544 -592 0
v -560 -592 0
v -560 -576 0
v -544 -576 0
v -528 -592 0
v -544 -592 0
v -544 -576 0
v -528 -576 0
v -512 -592 0
v -528 -592 0
v -528 -576 0
v -512 -576 0
v -576 -608 0
v -592 -608 0
v -592 -592 0
v -576 -592 0
v -560 -608 0
v -576 -608 0
v -576 -592 0
v -560 -592 0
v -544 -608 0
v -560 -608 0
v -560 -592 0
v -544 -592 0
v -528 -608 0
v -544 -608 0
v -544 -592 0
v -528 -592 0
v -512 -608 0
v -528 -608 0
v -528 -592 0
v -512 -592 0
v -832 -640 0
v -848 -640 0
v -848 -624 0
v -832 -624 0
v -896 -656 0
v -912 -656 0
v -912 -640 0
v -896 -640 0
v -832 -656 0
v -848 -656 0
v -848 -640 0
v -832 -640 0
v -816 -656 0
v -832 -656 0
v -832 -640 0
v -816 -640 0
v -896 -672 0
v -912 -672 0
v -912 -656 0
v -896 -656 0
v -880 -672 0
v -896 -672 0
v -896 -656 0
v -880 -656 0
v -864 -672 0
v -880 -672 0
v -880 -656 0
v -864 -656 0
v -896 -688 0
v -912 -688 0
v -912 -672 0
v -896 -672 0
v -880 -688 0
v -896 -688 0
v -896 -672 0
v -880 -672 0
v -864 -688 0
v -880 -688 0
v -880 -672 0
v -864 -672 0
v -848 -688 0
v -864 -688 0
v -864 -672 0
v -848 -672 0
v -832 -688 0
v -848 -688 0
v -848 -672 0
v -832 -672 0
v -896 -704 0
v -912 -704 0
v -912 -688 0
v -896 -688 0
v -880 -704 0
v -896 -704 0
v -896 -688 0
v -880 -688 0
v -864 -704 0
v -880 -704 0
v -880 -688 0
v -864 -688 0
v -848 -704 0
v -864 -704 0
v -864 -688 0
v -848 -688 0
v -832 -704 0
v -848 -704 0
v -848 -688 0
v -832 -688 0
v -816 -704 0
v -832 -704 0
v -832 -688 0
v -816 -688 0
v -896 -720 0
v -912 -720 0
v -912 -704 0
v -896 -704 0
v -880 -720 0
v -896 -720 0
v -896 -704 0
v -880 -704 0
v -864 -720 0
v -880 -720 0
v -880 -704 0
v -864 -704 0
v -848 -720 0
v -864 -720 0
v -864 -704 0
v -848 -704 0
v -832 -720 0
v -848 -720 0
v -848 -704 0
v -832 -704 0
v -816 -720 0
v -832 -720 0
v -832 -704 0
v -816 -704 0
v -672 -720 0
v -688 -720 0
v -688 -704 0
v -672 -704 0
v -656 -720 0
v -672 -720 0
v -672 -704 0
v -656 -704 0
v -560 -720 0
v -576 -720 0
v -576 -704 0
v -560 -704 0
v -896 -736 0
v -912 -736 0
v -912 -720 0
v -896 -720 0
v -880 -736 0
v -896 -736 0
v -896 -720 0
v -880 -720 0
v -864 -736 0
v -880 -736 0
v -880 -720 0
v -864 -720 0
v -848 -736 0
v -864 -736 0
v -864 -720 0
v -848 -720 0
v -832 -736 0
v -848 -736 0
v -848 -720 0
v -832 -720 0
v -816 -736 0
v -832 -736 0
v -832 -720 0
v -816 -720 0
v -896 -752 0
v -912 -752 0
v -912 -736 0
v -896 -736 0
v -880 -752 0
v -896 -752 0
v -896 -736 0
v -880 -736 0
v -864 -752 0
v -880 -752 0
v -880 -736 0
v -864 -736 0
v -848 -752 0
v -864 -752 0
v -864 -736 0
v -848 -736 0
v -832 -752 0
v -848 -752 0
v -848 -736 0
v -832 -736 0
v -816 -752 0
v -832 -752 0
v -832 -736 0
v -816 -736 0
v -896 -768 0
v -912 -768 0
v -912 -752 0
v -896 -752 0
v -880 -768 0
v -896 -768 0
v -896 -752 0
v -880 -752 0
v -864 -768 0
v -880 -768 0
v -880 -752 0
v -864 -752 0
v -848 -768 0
v -864 -768 0
v -864 -752 0
v -848 -752 0
v -832 -768 0
v -848 -768 0
v -848 -752 0
v -832 -752 0
v -816 -768 0
v -832 -768 0
v -832 -752 0
v -816 -752 0
v -800 -768 0
v -816 -768 0
v -816 -752 0
v -800 -752 0

# Texture cooridinates (Count = 120)
vt 0.3336777 0.9695817
vt 0.3502066 0.9695817
vt 0.3502066 1
vt 0.3336777 1
vt 0.3336777 0.6787072
vt 0.3502066 0.6787072
vt 0.3502066 0.7091255
vt 0.3336777 0.7091255
vt 0.9307851 0.2585551
vt 0.947314 0.2585551
vt 0.947314 0.2889734
vt 0.9307851 0.2889734
vt 0.3688017 0.9695817
vt 0.3853306 0.9695817
vt 0.3853306 1
vt 0.3688017 1
vt 0.9307851 0.2908745
vt 0.947314 0.2908745
vt 0.947314 0.3212928
vt 0.9307851 0.3212928
vt 0.07024793 0.6787072
vt 0.08677686 0.6787072
vt 0.08677686 0.7091255
vt 0.07024793 0.7091255
vt 0.05268595 0.6787072
vt 0.06921487 0.6787072
vt 0.06921487 0.7091255
vt 0.05268595 0.7091255
vt 0.03512397 0.6787072
vt 0.05165289 0.6787072
vt 0.05165289 0.7091255
vt 0.03512397 0.7091255
vt 0.07024793 0.6463878
vt 0.08677686 0.6463878
vt 0.08677686 0.6768061
vt 0.07024793 0.6768061
vt 0.05268595 0.6463878
vt 0.06921487 0.6463878
vt 0.06921487 0.6768061
vt 0.05268595 0.6768061
vt 0.03512397 0.6463878
vt 0.05165289 0.6463878
vt 0.05165289 0.6768061
vt 0.03512397 0.6768061
vt 0.07024793 0.6140684
vt 0.08677686 0.6140684
vt 0.08677686 0.6444867
vt 0.07024793 0.6444867
vt 0.05268595 0.6140684
vt 0.06921487 0.6140684
vt 0.06921487 0.6444867
vt 0.05268595 0.6444867
vt 0.03512397 0.6140684
vt 0.05165289 0.6140684
vt 0.05165289 0.6444867
vt 0.03512397 0.6444867
vt 0.3336777 0.8403042
vt 0.3502066 0.8403042
vt 0.3502066 0.8707224
vt 0.3336777 0.8707224
vt 0.4390496 0.9695817
vt 0.4555785 0.9695817
vt 0.4555785 1
vt 0.4390496 1
vt 0.2283058 0.7110266
vt 0.2448347 0.7110266
vt 0.2448347 0.7414448
vt 0.2283058 0.7414448
vt 0.3688017 0.8403042
vt 0.3853306 0.8403042
vt 0.3853306 0.8707224
vt 0.3688017 0.8707224
vt 0.07024793 0.9695817
vt 0.08677686 0.9695817
vt 0.08677686 1
vt 0.07024793 1
vt 0.05268595 0.9695817
vt 0.06921487 0.9695817
vt 0.06921487 1
vt 0.05268595 1
vt 0.03512397 0.9695817
vt 0.05165289 0.9695817
vt 0.05165289 1
vt 0.03512397 1
vt 0.07024793 0.9372624
vt 0.08677686 0.9372624
vt 0.08677686 0.9676806
vt 0.07024793 0.9676806
vt 0.9834711 0.1939163
vt 1 0.1939163
vt 1 0.2243346
vt 0.9834711 0.2243346
vt 0.01756198 0.904943
vt 0.03409091 0.904943
vt 0.03409091 0.9353612
vt 0.01756198 0.9353612
vt 0.05268595 0.9372624
vt 0.06921487 0.9372624
vt 0.06921487 0.9676806
vt 0.05268595 0.9676806
vt 0.03512397 0.9372624
vt 0.05165289 0.9372624
vt 0.05165289 0.9676806
vt 0.03512397 0.9676806
vt 0.9483471 0.1939163
vt 0.9648761 0.1939163
vt 0.9648761 0.2243346
vt 0.9483471 0.2243346
vt 0.07024793 0.904943
vt 0.08677686 0.904943
vt 0.08677686 0.9353612
vt 0.07024793 0.9353612
vt 0.05268595 0.904943
vt 0.06921487 0.904943
vt 0.06921487 0.9353612
vt 0.05268595 0.9353612
vt 0.03512397 0.904943
vt 0.05165289 0.904943
vt 0.05165289 0.9353612
vt 0.03512397 0.9353612

# Normal
vn 0 0 -1

# Mesh description
g village1_mesh_0035

# Faces
f 1/1/1 2/2/1 3/3/1 4/4/1
f 5/5/1 6/6/1 7/7/1 8/8/1
f 9/9/1 10/10/1 11/11/1 12/12/1
f 13/13/1 14/14/1 15/15/1 16/16/1
f 17/17/1 18/18/1 19/19/1 20/20/1
f 21/21/1 22/22/1 23/23/1 24/24/1
f 25/25/1 26/26/1 27/27/1 28/28/1
f 29/25/1 30/26/1 31/27/1 32/28/1
f 33/25/1 34/26/1 35/27/1 36/28/1
f 37/29/1 38/30/1 39/31/1 40/32/1
f 41/33/1 42/34/1 43/35/1 44/36/1
f 45/37/1 46/38/1 47/39/1 48/40/1
f 49/37/1 50/38/1 51/39/1 52/40/1
f 53/37/1 54/38/1 55/39/1 56/40/1
f 57/41/1 58/42/1 59/43/1 60/44/1
f 61/33/1 62/34/1 63/35/1 64/36/1
f 65/37/1 66/38/1 67/39/1 68/40/1
f 69/37/1 70/38/1 71/39/1 72/40/1
f 73/37/1 74/38/1 75/39/1 76/40/1
f 77/41/1 78/42/1 79/43/1 80/44/1
f 81/45/1 82/46/1 83/47/1 84/48/1
f 85/49/1 86/50/1 87/51/1 88/52/1
f 89/49/1 90/50/1 91/51/1 92/52/1
f 93/49/1 94/50/1 95/51/1 96/52/1
f 97/53/1 98/54/1 99/55/1 100/56/1
f 101/57/1 102/58/1 103/59/1 104/60/1
f 105/61/1 106/62/1 107/63/1 108/64/1
f 109/65/1 110/66/1 111/67/1 112/68/1
f 113/69/1 114/70/1 115/71/1 116/72/1
f 117/73/1 118/74/1 119/75/1 120/76/1
f 121/77/1 122/78/1 123/79/1 124/80/1
f 125/81/1 126/82/1 127/83/1 128/84/1
f 129/85/1 130/86/1 131/87/1 132/88/1
f 133/89/1 134/90/1 135/91/1 136/92/1
f 137/93/1 138/94/1 139/95/1 140/96/1
f 141/77/1 142/78/1 143/79/1 144/80/1
f 145/81/1 146/82/1 147/83/1 148/84/1
f 149/85/1 150/86/1 151/87/1 152/88/1
f 153/97/1 154/98/1 155/99/1 156/100/1
f 157/97/1 158/98/1 159/99/1 160/100/1
f 161/97/1 162/98/1 163/99/1 164/100/1
f 165/93/1 166/94/1 167/95/1 168/96/1
f 169/81/1 170/82/1 171/83/1 172/84/1
f 173/85/1 174/86/1 175/87/1 176/88/1
f 177/97/1 178/98/1 179/99/1 180/100/1
f 181/97/1 182/98/1 183/99/1 184/100/1
f 185/97/1 186/98/1 187/99/1 188/100/1
f 189/97/1 190/98/1 191/99/1 192/100/1
f 193/101/1 194/102/1 195/103/1 196/104/1
f 197/9/1 198/10/1 199/11/1 200/12/1
f 201/9/1 202/10/1 203/11/1 204/12/1
f 205/5/1 206/6/1 207/7/1 208/8/1
f 209/85/1 210/86/1 211/87/1 212/88/1
f 213/97/1 214/98/1 215/99/1 216/100/1
f 217/97/1 218/98/1 219/99/1 220/100/1
f 221/97/1 222/98/1 223/99/1 224/100/1
f 225/97/1 226/98/1 227/99/1 228/100/1
f 229/101/1 230/102/1 231/103/1 232/104/1
f 233/85/1 234/86/1 235/87/1 236/88/1
f 237/97/1 238/98/1 239/99/1 240/100/1
f 241/97/1 242/98/1 243/99/1 244/100/1
f 245/97/1 246/98/1 247/99/1 248/100/1
f 249/105/1 250/106/1 251/107/1 252/108/1
f 253/101/1 254/102/1 255/103/1 256/104/1
f 257/109/1 258/110/1 259/111/1 260/112/1
f 261/113/1 262/114/1 263/115/1 264/116/1
f 265/113/1 266/114/1 267/115/1 268/116/1
f 269/113/1 270/114/1 271/115/1 272/116/1
f 273/113/1 274/114/1 275/115/1 276/116/1
f 277/117/1 278/118/1 279/119/1 280/120/1
f 281/1/1 282/2/1 283/3/1 284/4/1

