# Tiled2Unity generated file. Do not modify by hand.
# Wavefront file for 'item-shop_mesh_0003.obj'

# Vertices (Count = 80)
v -592 -528 0
v -608 -528 0
v -608 -512 0
v -592 -512 0
v -576 -528 0
v -592 -528 0
v -592 -512 0
v -576 -512 0
v -560 -528 0
v -576 -528 0
v -576 -512 0
v -560 -512 0
v -544 -528 0
v -560 -528 0
v -560 -512 0
v -544 -512 0
v -528 -528 0
v -544 -528 0
v -544 -512 0
v -528 -512 0
v -592 -544 0
v -608 -544 0
v -608 -528 0
v -592 -528 0
v -576 -544 0
v -592 -544 0
v -592 -528 0
v -576 -528 0
v -560 -544 0
v -576 -544 0
v -576 -528 0
v -560 -528 0
v -544 -544 0
v -560 -544 0
v -560 -528 0
v -544 -528 0
v -528 -544 0
v -544 -544 0
v -544 -528 0
v -528 -528 0
v -592 -560 0
v -608 -560 0
v -608 -544 0
v -592 -544 0
v -576 -560 0
v -592 -560 0
v -592 -544 0
v -576 -544 0
v -560 -560 0
v -576 -560 0
v -576 -544 0
v -560 -544 0
v -544 -560 0
v -560 -560 0
v -560 -544 0
v -544 -544 0
v -528 -560 0
v -544 -560 0
v -544 -544 0
v -528 -544 0
v -592 -576 0
v -608 -576 0
v -608 -560 0
v -592 -560 0
v -576 -576 0
v -592 -576 0
v -592 -560 0
v -576 -560 0
v -560 -576 0
v -576 -576 0
v -576 -560 0
v -560 -560 0
v -544 -576 0
v -560 -576 0
v -560 -560 0
v -544 -560 0
v -528 -576 0
v -544 -576 0
v -544 -560 0
v -528 -560 0

# Texture cooridinates (Count = 36)
vt 0.1404959 0.161597
vt 0.1570248 0.161597
vt 0.1570248 0.1920152
vt 0.1404959 0.1920152
vt 0.1229339 0.161597
vt 0.1394628 0.161597
vt 0.1394628 0.1920152
vt 0.1229339 0.1920152
vt 0.1053719 0.161597
vt 0.1219008 0.161597
vt 0.1219008 0.1920152
vt 0.1053719 0.1920152
vt 0.1404959 0.1292776
vt 0.1570248 0.1292776
vt 0.1570248 0.1596958
vt 0.1404959 0.1596958
vt 0.1229339 0.1292776
vt 0.1394628 0.1292776
vt 0.1394628 0.1596958
vt 0.1229339 0.1596958
vt 0.1053719 0.1292776
vt 0.1219008 0.1292776
vt 0.1219008 0.1596958
vt 0.1053719 0.1596958
vt 0.1404959 0.09695816
vt 0.1570248 0.09695816
vt 0.1570248 0.1273764
vt 0.1404959 0.1273764
vt 0.1229339 0.09695816
vt 0.1394628 0.09695816
vt 0.1394628 0.1273764
vt 0.1229339 0.1273764
vt 0.1053719 0.09695816
vt 0.1219008 0.09695816
vt 0.1219008 0.1273764
vt 0.1053719 0.1273764

# Normal
vn 0 0 -1

# Mesh description
g item-shop_mesh_0003

# Faces
f 1/1/1 2/2/1 3/3/1 4/4/1
f 5/5/1 6/6/1 7/7/1 8/8/1
f 9/5/1 10/6/1 11/7/1 12/8/1
f 13/5/1 14/6/1 15/7/1 16/8/1
f 17/9/1 18/10/1 19/11/1 20/12/1
f 21/13/1 22/14/1 23/15/1 24/16/1
f 25/17/1 26/18/1 27/19/1 28/20/1
f 29/17/1 30/18/1 31/19/1 32/20/1
f 33/17/1 34/18/1 35/19/1 36/20/1
f 37/21/1 38/22/1 39/23/1 40/24/1
f 41/13/1 42/14/1 43/15/1 44/16/1
f 45/17/1 46/18/1 47/19/1 48/20/1
f 49/17/1 50/18/1 51/19/1 52/20/1
f 53/17/1 54/18/1 55/19/1 56/20/1
f 57/21/1 58/22/1 59/23/1 60/24/1
f 61/25/1 62/26/1 63/27/1 64/28/1
f 65/29/1 66/30/1 67/31/1 68/32/1
f 69/29/1 70/30/1 71/31/1 72/32/1
f 73/29/1 74/30/1 75/31/1 76/32/1
f 77/33/1 78/34/1 79/35/1 80/36/1

