# Tiled2Unity generated file. Do not modify by hand.
# Wavefront file for 'item-shop_mesh_0002.obj'

# Vertices (Count = 360)
v -720 -512 0
v -736 -512 0
v -736 -496 0
v -720 -496 0
v -704 -512 0
v -720 -512 0
v -720 -496 0
v -704 -496 0
v -688 -512 0
v -704 -512 0
v -704 -496 0
v -688 -496 0
v -672 -512 0
v -688 -512 0
v -688 -496 0
v -672 -496 0
v -656 -512 0
v -672 -512 0
v -672 -496 0
v -656 -496 0
v -640 -512 0
v -656 -512 0
v -656 -496 0
v -640 -496 0
v -624 -512 0
v -640 -512 0
v -640 -496 0
v -624 -496 0
v -608 -512 0
v -624 -512 0
v -624 -496 0
v -608 -496 0
v -592 -512 0
v -608 -512 0
v -608 -496 0
v -592 -496 0
v -576 -512 0
v -592 -512 0
v -592 -496 0
v -576 -496 0
v -560 -512 0
v -576 -512 0
v -576 -496 0
v -560 -496 0
v -544 -512 0
v -560 -512 0
v -560 -496 0
v -544 -496 0
v -528 -512 0
v -544 -512 0
v -544 -496 0
v -528 -496 0
v -512 -512 0
v -528 -512 0
v -528 -496 0
v -512 -496 0
v -720 -528 0
v -736 -528 0
v -736 -512 0
v -720 -512 0
v -704 -528 0
v -720 -528 0
v -720 -512 0
v -704 -512 0
v -688 -528 0
v -704 -528 0
v -704 -512 0
v -688 -512 0
v -672 -528 0
v -688 -528 0
v -688 -512 0
v -672 -512 0
v -656 -528 0
v -672 -528 0
v -672 -512 0
v -656 -512 0
v -640 -528 0
v -656 -528 0
v -656 -512 0
v -640 -512 0
v -624 -528 0
v -640 -528 0
v -640 -512 0
v -624 -512 0
v -608 -528 0
v -624 -528 0
v -624 -512 0
v -608 -512 0
v -592 -528 0
v -608 -528 0
v -608 -512 0
v -592 -512 0
v -576 -528 0
v -592 -528 0
v -592 -512 0
v -576 -512 0
v -560 -528 0
v -576 -528 0
v -576 -512 0
v -560 -512 0
v -544 -528 0
v -560 -528 0
v -560 -512 0
v -544 -512 0
v -528 -528 0
v -544 -528 0
v -544 -512 0
v -528 -512 0
v -512 -528 0
v -528 -528 0
v -528 -512 0
v -512 -512 0
v -720 -544 0
v -736 -544 0
v -736 -528 0
v -720 -528 0
v -704 -544 0
v -720 -544 0
v -720 -528 0
v -704 -528 0
v -688 -544 0
v -704 -544 0
v -704 -528 0
v -688 -528 0
v -672 -544 0
v -688 -544 0
v -688 -528 0
v -672 -528 0
v -656 -544 0
v -672 -544 0
v -672 -528 0
v -656 -528 0
v -640 -544 0
v -656 -544 0
v -656 -528 0
v -640 -528 0
v -624 -544 0
v -640 -544 0
v -640 -528 0
v -624 -528 0
v -608 -544 0
v -624 -544 0
v -624 -528 0
v -608 -528 0
v -592 -544 0
v -608 -544 0
v -608 -528 0
v -592 -528 0
v -576 -544 0
v -592 -544 0
v -592 -528 0
v -576 -528 0
v -560 -544 0
v -576 -544 0
v -576 -528 0
v -560 -528 0
v -544 -544 0
v -560 -544 0
v -560 -528 0
v -544 -528 0
v -528 -544 0
v -544 -544 0
v -544 -528 0
v -528 -528 0
v -512 -544 0
v -528 -544 0
v -528 -528 0
v -512 -528 0
v -720 -560 0
v -736 -560 0
v -736 -544 0
v -720 -544 0
v -704 -560 0
v -720 -560 0
v -720 -544 0
v -704 -544 0
v -688 -560 0
v -704 -560 0
v -704 -544 0
v -688 -544 0
v -672 -560 0
v -688 -560 0
v -688 -544 0
v -672 -544 0
v -656 -560 0
v -672 -560 0
v -672 -544 0
v -656 -544 0
v -640 -560 0
v -656 -560 0
v -656 -544 0
v -640 -544 0
v -624 -560 0
v -640 -560 0
v -640 -544 0
v -624 -544 0
v -608 -560 0
v -624 -560 0
v -624 -544 0
v -608 -544 0
v -592 -560 0
v -608 -560 0
v -608 -544 0
v -592 -544 0
v -576 -560 0
v -592 -560 0
v -592 -544 0
v -576 -544 0
v -560 -560 0
v -576 -560 0
v -576 -544 0
v -560 -544 0
v -544 -560 0
v -560 -560 0
v -560 -544 0
v -544 -544 0
v -528 -560 0
v -544 -560 0
v -544 -544 0
v -528 -544 0
v -512 -560 0
v -528 -560 0
v -528 -544 0
v -512 -544 0
v -720 -576 0
v -736 -576 0
v -736 -560 0
v -720 -560 0
v -592 -576 0
v -608 -576 0
v -608 -560 0
v -592 -560 0
v -576 -576 0
v -592 -576 0
v -592 -560 0
v -576 -560 0
v -560 -576 0
v -576 -576 0
v -576 -560 0
v -560 -560 0
v -544 -576 0
v -560 -576 0
v -560 -560 0
v -544 -560 0
v -528 -576 0
v -544 -576 0
v -544 -560 0
v -528 -560 0
v -512 -576 0
v -528 -576 0
v -528 -560 0
v -512 -560 0
v -720 -592 0
v -736 -592 0
v -736 -576 0
v -720 -576 0
v -592 -592 0
v -608 -592 0
v -608 -576 0
v -592 -576 0
v -576 -592 0
v -592 -592 0
v -592 -576 0
v -576 -576 0
v -560 -592 0
v -576 -592 0
v -576 -576 0
v -560 -576 0
v -544 -592 0
v -560 -592 0
v -560 -576 0
v -544 -576 0
v -528 -592 0
v -544 -592 0
v -544 -576 0
v -528 -576 0
v -512 -592 0
v -528 -592 0
v -528 -576 0
v -512 -576 0
v -720 -608 0
v -736 -608 0
v -736 -592 0
v -720 -592 0
v -592 -608 0
v -608 -608 0
v -608 -592 0
v -592 -592 0
v -576 -608 0
v -592 -608 0
v -592 -592 0
v -576 -592 0
v -560 -608 0
v -576 -608 0
v -576 -592 0
v -560 -592 0
v -544 -608 0
v -560 -608 0
v -560 -592 0
v -544 -592 0
v -528 -608 0
v -544 -608 0
v -544 -592 0
v -528 -592 0
v -512 -608 0
v -528 -608 0
v -528 -592 0
v -512 -592 0
v -720 -624 0
v -736 -624 0
v -736 -608 0
v -720 -608 0
v -592 -624 0
v -608 -624 0
v -608 -608 0
v -592 -608 0
v -576 -624 0
v -592 -624 0
v -592 -608 0
v -576 -608 0
v -560 -624 0
v -576 -624 0
v -576 -608 0
v -560 -608 0
v -544 -624 0
v -560 -624 0
v -560 -608 0
v -544 -608 0
v -528 -624 0
v -544 -624 0
v -544 -608 0
v -528 -608 0
v -512 -624 0
v -528 -624 0
v -528 -608 0
v -512 -608 0
v -720 -640 0
v -736 -640 0
v -736 -624 0
v -720 -624 0
v -512 -640 0
v -528 -640 0
v -528 -624 0
v -512 -624 0
v -720 -656 0
v -736 -656 0
v -736 -640 0
v -720 -640 0
v -512 -656 0
v -528 -656 0
v -528 -640 0
v -512 -640 0
v -720 -672 0
v -736 -672 0
v -736 -656 0
v -720 -656 0
v -512 -672 0
v -528 -672 0
v -528 -656 0
v -512 -656 0

# Texture cooridinates (Count = 52)
vt 0.2985537 0.5817491
vt 0.3150826 0.5817491
vt 0.3150826 0.6121673
vt 0.2985537 0.6121673
vt 0.2458678 0.5817491
vt 0.2623967 0.5817491
vt 0.2623967 0.6121673
vt 0.2458678 0.6121673
vt 0.2809917 0.5817491
vt 0.2975207 0.5817491
vt 0.2975207 0.6121673
vt 0.2809917 0.6121673
vt 0.2634298 0.5494297
vt 0.2799587 0.5494297
vt 0.2799587 0.5798479
vt 0.2634298 0.5798479
vt 0.3161157 0.4847909
vt 0.3326446 0.4847909
vt 0.3326446 0.5152091
vt 0.3161157 0.5152091
vt 0.2985537 0.5494297
vt 0.3150826 0.5494297
vt 0.3150826 0.5798479
vt 0.2985537 0.5798479
vt 0.2809917 0.5494297
vt 0.2975207 0.5494297
vt 0.2975207 0.5798479
vt 0.2809917 0.5798479
vt 0.3336777 0.4524715
vt 0.3502066 0.4524715
vt 0.3502066 0.4828897
vt 0.3336777 0.4828897
vt 0.3161157 0.4524715
vt 0.3326446 0.4524715
vt 0.3326446 0.4828897
vt 0.3161157 0.4828897
vt 0.3336777 0.4847909
vt 0.3502066 0.4847909
vt 0.3502066 0.5152091
vt 0.3336777 0.5152091
vt 0.2283058 0.5171102
vt 0.2448347 0.5171102
vt 0.2448347 0.5475285
vt 0.2283058 0.5475285
vt 0.2985537 0.4524715
vt 0.3150826 0.4524715
vt 0.3150826 0.4828897
vt 0.2985537 0.4828897
vt 0.2985537 0.4847909
vt 0.3150826 0.4847909
vt 0.3150826 0.5152091
vt 0.2985537 0.5152091

# Normal
vn 0 0 -1

# Mesh description
g item-shop_mesh_0002

# Faces
f 1/1/1 2/2/1 3/3/1 4/4/1
f 5/5/1 6/6/1 7/7/1 8/8/1
f 9/5/1 10/6/1 11/7/1 12/8/1
f 13/5/1 14/6/1 15/7/1 16/8/1
f 17/5/1 18/6/1 19/7/1 20/8/1
f 21/5/1 22/6/1 23/7/1 24/8/1
f 25/5/1 26/6/1 27/7/1 28/8/1
f 29/5/1 30/6/1 31/7/1 32/8/1
f 33/5/1 34/6/1 35/7/1 36/8/1
f 37/5/1 38/6/1 39/7/1 40/8/1
f 41/5/1 42/6/1 43/7/1 44/8/1
f 45/5/1 46/6/1 47/7/1 48/8/1
f 49/5/1 50/6/1 51/7/1 52/8/1
f 53/9/1 54/10/1 55/11/1 56/12/1
f 57/13/1 58/14/1 59/15/1 60/16/1
f 61/17/1 62/18/1 63/19/1 64/20/1
f 65/17/1 66/18/1 67/19/1 68/20/1
f 69/17/1 70/18/1 71/19/1 72/20/1
f 73/17/1 74/18/1 75/19/1 76/20/1
f 77/17/1 78/18/1 79/19/1 80/20/1
f 81/17/1 82/18/1 83/19/1 84/20/1
f 85/17/1 86/18/1 87/19/1 88/20/1
f 89/1/1 90/2/1 91/3/1 92/4/1
f 93/5/1 94/6/1 95/7/1 96/8/1
f 97/5/1 98/6/1 99/7/1 100/8/1
f 101/5/1 102/6/1 103/7/1 104/8/1
f 105/9/1 106/10/1 107/11/1 108/12/1
f 109/13/1 110/14/1 111/15/1 112/16/1
f 113/13/1 114/14/1 115/15/1 116/16/1
f 117/17/1 118/18/1 119/19/1 120/20/1
f 121/17/1 122/18/1 123/19/1 124/20/1
f 125/17/1 126/18/1 127/19/1 128/20/1
f 129/17/1 130/18/1 131/19/1 132/20/1
f 133/17/1 134/18/1 135/19/1 136/20/1
f 137/17/1 138/18/1 139/19/1 140/20/1
f 141/17/1 142/18/1 143/19/1 144/20/1
f 145/13/1 146/14/1 147/15/1 148/16/1
f 149/1/1 150/2/1 151/3/1 152/4/1
f 153/5/1 154/6/1 155/7/1 156/8/1
f 157/9/1 158/10/1 159/11/1 160/12/1
f 161/13/1 162/14/1 163/15/1 164/16/1
f 165/13/1 166/14/1 167/15/1 168/16/1
f 169/13/1 170/14/1 171/15/1 172/16/1
f 173/17/1 174/18/1 175/19/1 176/20/1
f 177/17/1 178/18/1 179/19/1 180/20/1
f 181/17/1 182/18/1 183/19/1 184/20/1
f 185/17/1 186/18/1 187/19/1 188/20/1
f 189/17/1 190/18/1 191/19/1 192/20/1
f 193/17/1 194/18/1 195/19/1 196/20/1
f 197/17/1 198/18/1 199/19/1 200/20/1
f 201/13/1 202/14/1 203/15/1 204/16/1
f 205/21/1 206/22/1 207/23/1 208/24/1
f 209/5/1 210/6/1 211/7/1 212/8/1
f 213/25/1 214/26/1 215/27/1 216/28/1
f 217/13/1 218/14/1 219/15/1 220/16/1
f 221/13/1 222/14/1 223/15/1 224/16/1
f 225/13/1 226/14/1 227/15/1 228/16/1
f 229/21/1 230/22/1 231/23/1 232/24/1
f 233/5/1 234/6/1 235/7/1 236/8/1
f 237/5/1 238/6/1 239/7/1 240/8/1
f 241/5/1 242/6/1 243/7/1 244/8/1
f 245/25/1 246/26/1 247/27/1 248/28/1
f 249/13/1 250/14/1 251/15/1 252/16/1
f 253/13/1 254/14/1 255/15/1 256/16/1
f 257/29/1 258/30/1 259/31/1 260/32/1
f 261/33/1 262/34/1 263/35/1 264/36/1
f 265/33/1 266/34/1 267/35/1 268/36/1
f 269/33/1 270/34/1 271/35/1 272/36/1
f 273/33/1 274/34/1 275/35/1 276/36/1
f 277/13/1 278/14/1 279/15/1 280/16/1
f 281/13/1 282/14/1 283/15/1 284/16/1
f 285/37/1 286/38/1 287/39/1 288/40/1
f 289/17/1 290/18/1 291/19/1 292/20/1
f 293/17/1 294/18/1 295/19/1 296/20/1
f 297/17/1 298/18/1 299/19/1 300/20/1
f 301/17/1 302/18/1 303/19/1 304/20/1
f 305/13/1 306/14/1 307/15/1 308/16/1
f 309/41/1 310/42/1 311/43/1 312/44/1
f 313/37/1 314/38/1 315/39/1 316/40/1
f 317/17/1 318/18/1 319/19/1 320/20/1
f 321/17/1 322/18/1 323/19/1 324/20/1
f 325/17/1 326/18/1 327/19/1 328/20/1
f 329/17/1 330/18/1 331/19/1 332/20/1
f 333/41/1 334/42/1 335/43/1 336/44/1
f 337/29/1 338/30/1 339/31/1 340/32/1
f 341/45/1 342/46/1 343/47/1 344/48/1
f 345/37/1 346/38/1 347/39/1 348/40/1
f 349/49/1 350/50/1 351/51/1 352/52/1
f 353/37/1 354/38/1 355/39/1 356/40/1
f 357/49/1 358/50/1 359/51/1 360/52/1

