# Tiled2Unity generated file. Do not modify by hand.
# Wavefront file for 'area1_mesh_0011.obj'

# Vertices (Count = 12)
v -704 -432 0
v -720 -432 0
v -720 -416 0
v -704 -416 0
v -640 -448 0
v -656 -448 0
v -656 -432 0
v -640 -432 0
v -624 -448 0
v -640 -448 0
v -640 -432 0
v -624 -432 0

# Texture cooridinates (Count = 8)
vt 0.3863636 0.6140684
vt 0.4028926 0.6140684
vt 0.4028926 0.6444867
vt 0.3863636 0.6444867
vt 0.4214876 0.6787072
vt 0.4380165 0.6787072
vt 0.4380165 0.7091255
vt 0.4214876 0.7091255

# Normal
vn 0 0 -1

# Mesh description
g area1_mesh_0011

# Faces
f 1/1/1 2/2/1 3/3/1 4/4/1
f 5/5/1 6/6/1 7/7/1 8/8/1
f 9/5/1 10/6/1 11/7/1 12/8/1

