# Tiled2Unity generated file. Do not modify by hand.
# Wavefront file for 'area1_mesh_0008.obj'

# Vertices (Count = 40)
v -704 -368 0
v -720 -368 0
v -720 -352 0
v -704 -352 0
v -688 -368 0
v -704 -368 0
v -704 -352 0
v -688 -352 0
v -672 -368 0
v -688 -368 0
v -688 -352 0
v -672 -352 0
v -656 -368 0
v -672 -368 0
v -672 -352 0
v -656 -352 0
v -640 -368 0
v -656 -368 0
v -656 -352 0
v -640 -352 0
v -704 -384 0
v -720 -384 0
v -720 -368 0
v -704 -368 0
v -688 -384 0
v -704 -384 0
v -704 -368 0
v -688 -368 0
v -672 -384 0
v -688 -384 0
v -688 -368 0
v -672 -368 0
v -656 -384 0
v -672 -384 0
v -672 -368 0
v -656 -368 0
v -640 -384 0
v -656 -384 0
v -656 -368 0
v -640 -368 0

# Texture cooridinates (Count = 12)
vt 0.4566116 0.161597
vt 0.4731405 0.161597
vt 0.4731405 0.1920152
vt 0.4566116 0.1920152
vt 0.4390496 0.161597
vt 0.4555785 0.161597
vt 0.4555785 0.1920152
vt 0.4390496 0.1920152
vt 0.4214876 0.161597
vt 0.4380165 0.161597
vt 0.4380165 0.1920152
vt 0.4214876 0.1920152

# Normal
vn 0 0 -1

# Mesh description
g area1_mesh_0008

# Faces
f 1/1/1 2/2/1 3/3/1 4/4/1
f 5/5/1 6/6/1 7/7/1 8/8/1
f 9/5/1 10/6/1 11/7/1 12/8/1
f 13/5/1 14/6/1 15/7/1 16/8/1
f 17/9/1 18/10/1 19/11/1 20/12/1
f 21/1/1 22/2/1 23/3/1 24/4/1
f 25/5/1 26/6/1 27/7/1 28/8/1
f 29/5/1 30/6/1 31/7/1 32/8/1
f 33/5/1 34/6/1 35/7/1 36/8/1
f 37/9/1 38/10/1 39/11/1 40/12/1

