# Tiled2Unity generated file. Do not modify by hand.
# Wavefront file for 'area1_mesh_0014.obj'

# Vertices (Count = 16)
v -224 -416 0
v -240 -416 0
v -240 -400 0
v -224 -400 0
v -176 -416 0
v -192 -416 0
v -192 -400 0
v -176 -400 0
v -224 -432 0
v -240 -432 0
v -240 -416 0
v -224 -416 0
v -176 -432 0
v -192 -432 0
v -192 -416 0
v -176 -416 0

# Texture cooridinates (Count = 8)
vt 0.8780992 0.6463878
vt 0.8946281 0.6463878
vt 0.8946281 0.6768061
vt 0.8780992 0.6768061
vt 0.8780992 0.6140684
vt 0.8946281 0.6140684
vt 0.8946281 0.6444867
vt 0.8780992 0.6444867

# Normal
vn 0 0 -1

# Mesh description
g area1_mesh_0014

# Faces
f 1/1/1 2/2/1 3/3/1 4/4/1
f 5/1/1 6/2/1 7/3/1 8/4/1
f 9/5/1 10/6/1 11/7/1 12/8/1
f 13/5/1 14/6/1 15/7/1 16/8/1

