# Tiled2Unity generated file. Do not modify by hand.
# Wavefront file for 'area1_mesh_0012.obj'

# Vertices (Count = 412)
v -944 -192 0
v -960 -192 0
v -960 -176 0
v -944 -176 0
v -928 -192 0
v -944 -192 0
v -944 -176 0
v -928 -176 0
v -912 -192 0
v -928 -192 0
v -928 -176 0
v -912 -176 0
v -896 -192 0
v -912 -192 0
v -912 -176 0
v -896 -176 0
v -880 -192 0
v -896 -192 0
v -896 -176 0
v -880 -176 0
v -944 -208 0
v -960 -208 0
v -960 -192 0
v -944 -192 0
v -928 -208 0
v -944 -208 0
v -944 -192 0
v -928 -192 0
v -912 -208 0
v -928 -208 0
v -928 -192 0
v -912 -192 0
v -896 -208 0
v -912 -208 0
v -912 -192 0
v -896 -192 0
v -880 -208 0
v -896 -208 0
v -896 -192 0
v -880 -192 0
v -944 -224 0
v -960 -224 0
v -960 -208 0
v -944 -208 0
v -928 -224 0
v -944 -224 0
v -944 -208 0
v -928 -208 0
v -912 -224 0
v -928 -224 0
v -928 -208 0
v -912 -208 0
v -896 -224 0
v -912 -224 0
v -912 -208 0
v -896 -208 0
v -880 -224 0
v -896 -224 0
v -896 -208 0
v -880 -208 0
v -208 -224 0
v -224 -224 0
v -224 -208 0
v -208 -208 0
v -944 -240 0
v -960 -240 0
v -960 -224 0
v -944 -224 0
v -928 -240 0
v -944 -240 0
v -944 -224 0
v -928 -224 0
v -912 -240 0
v -928 -240 0
v -928 -224 0
v -912 -224 0
v -896 -240 0
v -912 -240 0
v -912 -224 0
v -896 -224 0
v -880 -240 0
v -896 -240 0
v -896 -224 0
v -880 -224 0
v -960 -256 0
v -976 -256 0
v -976 -240 0
v -960 -240 0
v -592 -256 0
v -608 -256 0
v -608 -240 0
v -592 -240 0
v -384 -256 0
v -400 -256 0
v -400 -240 0
v -384 -240 0
v -272 -256 0
v -288 -256 0
v -288 -240 0
v -272 -240 0
v -800 -272 0
v -816 -272 0
v -816 -256 0
v -800 -256 0
v -720 -272 0
v -736 -272 0
v -736 -256 0
v -720 -256 0
v -416 -272 0
v -432 -272 0
v -432 -256 0
v -416 -256 0
v -1024 -368 0
v -1040 -368 0
v -1040 -352 0
v -1024 -352 0
v -464 -368 0
v -480 -368 0
v -480 -352 0
v -464 -352 0
v -368 -368 0
v -384 -368 0
v -384 -352 0
v -368 -352 0
v -816 -384 0
v -832 -384 0
v -832 -368 0
v -816 -368 0
v -608 -384 0
v -624 -384 0
v -624 -368 0
v -608 -368 0
v -880 -400 0
v -896 -400 0
v -896 -384 0
v -880 -384 0
v -688 -400 0
v -704 -400 0
v -704 -384 0
v -688 -384 0
v -656 -400 0
v -672 -400 0
v -672 -384 0
v -656 -384 0
v -592 -400 0
v -608 -400 0
v -608 -384 0
v -592 -384 0
v -1024 -416 0
v -1040 -416 0
v -1040 -400 0
v -1024 -400 0
v -896 -416 0
v -912 -416 0
v -912 -400 0
v -896 -400 0
v -768 -416 0
v -784 -416 0
v -784 -400 0
v -768 -400 0
v -672 -416 0
v -688 -416 0
v -688 -400 0
v -672 -400 0
v -784 -432 0
v -800 -432 0
v -800 -416 0
v -784 -416 0
v -304 -432 0
v -320 -432 0
v -320 -416 0
v -304 -416 0
v -256 -432 0
v -272 -432 0
v -272 -416 0
v -256 -416 0
v -80 -432 0
v -96 -432 0
v -96 -416 0
v -80 -416 0
v -832 -448 0
v -848 -448 0
v -848 -432 0
v -832 -432 0
v -752 -448 0
v -768 -448 0
v -768 -432 0
v -752 -432 0
v -640 -448 0
v -656 -448 0
v -656 -432 0
v -640 -432 0
v -96 -480 0
v -112 -480 0
v -112 -464 0
v -96 -464 0
v -256 -528 0
v -272 -528 0
v -272 -512 0
v -256 -512 0
v -144 -528 0
v -160 -528 0
v -160 -512 0
v -144 -512 0
v -944 -560 0
v -960 -560 0
v -960 -544 0
v -944 -544 0
v -816 -560 0
v -832 -560 0
v -832 -544 0
v -816 -544 0
v -320 -560 0
v -336 -560 0
v -336 -544 0
v -320 -544 0
v -432 -624 0
v -448 -624 0
v -448 -608 0
v -432 -608 0
v -544 -640 0
v -560 -640 0
v -560 -624 0
v -544 -624 0
v -912 -656 0
v -928 -656 0
v -928 -640 0
v -912 -640 0
v -816 -656 0
v -832 -656 0
v -832 -640 0
v -816 -640 0
v -688 -656 0
v -704 -656 0
v -704 -640 0
v -688 -640 0
v -288 -656 0
v -304 -656 0
v -304 -640 0
v -288 -640 0
v -272 -656 0
v -288 -656 0
v -288 -640 0
v -272 -640 0
v -176 -656 0
v -192 -656 0
v -192 -640 0
v -176 -640 0
v -736 -672 0
v -752 -672 0
v -752 -656 0
v -736 -656 0
v -208 -672 0
v -224 -672 0
v -224 -656 0
v -208 -656 0
v -192 -672 0
v -208 -672 0
v -208 -656 0
v -192 -656 0
v -944 -688 0
v -960 -688 0
v -960 -672 0
v -944 -672 0
v -864 -688 0
v -880 -688 0
v -880 -672 0
v -864 -672 0
v -416 -688 0
v -432 -688 0
v -432 -672 0
v -416 -672 0
v -144 -688 0
v -160 -688 0
v -160 -672 0
v -144 -672 0
v -960 -704 0
v -976 -704 0
v -976 -688 0
v -960 -688 0
v -880 -704 0
v -896 -704 0
v -896 -688 0
v -880 -688 0
v -720 -704 0
v -736 -704 0
v -736 -688 0
v -720 -688 0
v -160 -704 0
v -176 -704 0
v -176 -688 0
v -160 -688 0
v -544 -720 0
v -560 -720 0
v -560 -704 0
v -544 -704 0
v -288 -720 0
v -304 -720 0
v -304 -704 0
v -288 -704 0
v -1024 -736 0
v -1040 -736 0
v -1040 -720 0
v -1024 -720 0
v -240 -736 0
v -256 -736 0
v -256 -720 0
v -240 -720 0
v -128 -736 0
v -144 -736 0
v -144 -720 0
v -128 -720 0
v -1072 -752 0
v -1088 -752 0
v -1088 -736 0
v -1072 -736 0
v -1072 -784 0
v -1088 -784 0
v -1088 -768 0
v -1072 -768 0
v -192 -784 0
v -208 -784 0
v -208 -768 0
v -192 -768 0
v -128 -784 0
v -144 -784 0
v -144 -768 0
v -128 -768 0
v -688 -800 0
v -704 -800 0
v -704 -784 0
v -688 -784 0
v -480 -800 0
v -496 -800 0
v -496 -784 0
v -480 -784 0
v -112 -800 0
v -128 -800 0
v -128 -784 0
v -112 -784 0
v -832 -816 0
v -848 -816 0
v -848 -800 0
v -832 -800 0
v -784 -816 0
v -800 -816 0
v -800 -800 0
v -784 -800 0
v -320 -816 0
v -336 -816 0
v -336 -800 0
v -320 -800 0
v -944 -848 0
v -960 -848 0
v -960 -832 0
v -944 -832 0
v -384 -848 0
v -400 -848 0
v -400 -832 0
v -384 -832 0
v -352 -864 0
v -368 -864 0
v -368 -848 0
v -352 -848 0
v -176 -864 0
v -192 -864 0
v -192 -848 0
v -176 -848 0
v -112 -864 0
v -128 -864 0
v -128 -848 0
v -112 -848 0
v -992 -880 0
v -1008 -880 0
v -1008 -864 0
v -992 -864 0
v -288 -896 0
v -304 -896 0
v -304 -880 0
v -288 -880 0
v -208 -912 0
v -224 -912 0
v -224 -896 0
v -208 -896 0
v -304 -928 0
v -320 -928 0
v -320 -912 0
v -304 -912 0
v -144 -928 0
v -160 -928 0
v -160 -912 0
v -144 -912 0
v -1008 -944 0
v -1024 -944 0
v -1024 -928 0
v -1008 -928 0
v -320 -944 0
v -336 -944 0
v -336 -928 0
v -320 -928 0
v -224 -944 0
v -240 -944 0
v -240 -928 0
v -224 -928 0
v -1072 -976 0
v -1088 -976 0
v -1088 -960 0
v -1072 -960 0
v -1072 -1008 0
v -1088 -1008 0
v -1088 -992 0
v -1072 -992 0

# Texture cooridinates (Count = 92)
vt 0.4566116 0.3878327
vt 0.4731405 0.3878327
vt 0.4731405 0.418251
vt 0.4566116 0.418251
vt 0.3336777 0.6787072
vt 0.3502066 0.6787072
vt 0.3502066 0.7091255
vt 0.3336777 0.7091255
vt 0.8429752 0.743346
vt 0.8595041 0.743346
vt 0.8595041 0.7737643
vt 0.8429752 0.7737643
vt 0.3863636 0.6463878
vt 0.4028926 0.6463878
vt 0.4028926 0.6768061
vt 0.3863636 0.6768061
vt 0.8429752 0.8726236
vt 0.8595041 0.8726236
vt 0.8595041 0.9030418
vt 0.8429752 0.9030418
vt 0.3863636 0.6140684
vt 0.4028926 0.6140684
vt 0.4028926 0.6444867
vt 0.3863636 0.6444867
vt 0.8429752 0.8079848
vt 0.8595041 0.8079848
vt 0.8595041 0.838403
vt 0.8429752 0.838403
vt 0.8429752 0.8403042
vt 0.8595041 0.8403042
vt 0.8595041 0.8707224
vt 0.8429752 0.8707224
vt 0.4917355 0.6140684
vt 0.5082645 0.6140684
vt 0.5082645 0.6444867
vt 0.4917355 0.6444867
vt 0.4390496 0.6140684
vt 0.4555785 0.6140684
vt 0.4555785 0.6444867
vt 0.4390496 0.6444867
vt 0.4566116 0.6140684
vt 0.4731405 0.6140684
vt 0.4731405 0.6444867
vt 0.4566116 0.6444867
vt 0.9483471 0.2585551
vt 0.9648761 0.2585551
vt 0.9648761 0.2889734
vt 0.9483471 0.2889734
vt 0.9659091 0.1939163
vt 0.982438 0.1939163
vt 0.982438 0.2243346
vt 0.9659091 0.2243346
vt 0.9483471 0.1939163
vt 0.9648761 0.1939163
vt 0.9648761 0.2243346
vt 0.9483471 0.2243346
vt 0.9834711 0.1939163
vt 1 0.1939163
vt 1 0.2243346
vt 0.9834711 0.2243346
vt 0.4917355 0.6787072
vt 0.5082645 0.6787072
vt 0.5082645 0.7091255
vt 0.4917355 0.7091255
vt 0.9834711 0.2585551
vt 1 0.2585551
vt 1 0.2889734
vt 0.9834711 0.2889734
vt 0.5268595 0.6787072
vt 0.5433884 0.6787072
vt 0.5433884 0.7091255
vt 0.5268595 0.7091255
vt 0.5444215 0.6787072
vt 0.5609504 0.6787072
vt 0.5609504 0.7091255
vt 0.5444215 0.7091255
vt 0.5092975 0.6787072
vt 0.5258265 0.6787072
vt 0.5258265 0.7091255
vt 0.5092975 0.7091255
vt 0.9659091 0.3231939
vt 0.982438 0.3231939
vt 0.982438 0.3536122
vt 0.9659091 0.3536122
vt 0.8429752 0.7756654
vt 0.8595041 0.7756654
vt 0.8595041 0.8060837
vt 0.8429752 0.8060837
vt 0.8429752 0.904943
vt 0.8595041 0.904943
vt 0.8595041 0.9353612
vt 0.8429752 0.9353612

# Normal
vn 0 0 -1

# Mesh description
g area1_mesh_0012

# Faces
f 1/1/1 2/2/1 3/3/1 4/4/1
f 5/1/1 6/2/1 7/3/1 8/4/1
f 9/1/1 10/2/1 11/3/1 12/4/1
f 13/1/1 14/2/1 15/3/1 16/4/1
f 17/1/1 18/2/1 19/3/1 20/4/1
f 21/1/1 22/2/1 23/3/1 24/4/1
f 25/1/1 26/2/1 27/3/1 28/4/1
f 29/1/1 30/2/1 31/3/1 32/4/1
f 33/1/1 34/2/1 35/3/1 36/4/1
f 37/1/1 38/2/1 39/3/1 40/4/1
f 41/1/1 42/2/1 43/3/1 44/4/1
f 45/1/1 46/2/1 47/3/1 48/4/1
f 49/1/1 50/2/1 51/3/1 52/4/1
f 53/1/1 54/2/1 55/3/1 56/4/1
f 57/1/1 58/2/1 59/3/1 60/4/1
f 61/5/1 62/6/1 63/7/1 64/8/1
f 65/1/1 66/2/1 67/3/1 68/4/1
f 69/1/1 70/2/1 71/3/1 72/4/1
f 73/1/1 74/2/1 75/3/1 76/4/1
f 77/1/1 78/2/1 79/3/1 80/4/1
f 81/1/1 82/2/1 83/3/1 84/4/1
f 85/9/1 86/10/1 87/11/1 88/12/1
f 89/13/1 90/14/1 91/15/1 92/16/1
f 93/17/1 94/18/1 95/19/1 96/20/1
f 97/5/1 98/6/1 99/7/1 100/8/1
f 101/13/1 102/14/1 103/15/1 104/16/1
f 105/17/1 106/18/1 107/19/1 108/20/1
f 109/21/1 110/22/1 111/23/1 112/24/1
f 113/25/1 114/26/1 115/27/1 116/28/1
f 117/29/1 118/30/1 119/31/1 120/32/1
f 121/13/1 122/14/1 123/15/1 124/16/1
f 125/33/1 126/34/1 127/35/1 128/36/1
f 129/37/1 130/38/1 131/39/1 132/40/1
f 133/37/1 134/38/1 135/39/1 136/40/1
f 137/41/1 138/42/1 139/43/1 140/44/1
f 141/45/1 142/46/1 143/47/1 144/48/1
f 145/49/1 146/50/1 147/51/1 148/52/1
f 149/21/1 150/22/1 151/23/1 152/24/1
f 153/53/1 154/54/1 155/55/1 156/56/1
f 157/57/1 158/58/1 159/59/1 160/60/1
f 161/41/1 162/42/1 163/43/1 164/44/1
f 165/37/1 166/38/1 167/39/1 168/40/1
f 169/13/1 170/14/1 171/15/1 172/16/1
f 173/61/1 174/62/1 175/63/1 176/64/1
f 177/21/1 178/22/1 179/23/1 180/24/1
f 181/65/1 182/66/1 183/67/1 184/68/1
f 185/33/1 186/34/1 187/35/1 188/36/1
f 189/53/1 190/54/1 191/55/1 192/56/1
f 193/69/1 194/70/1 195/71/1 196/72/1
f 197/73/1 198/74/1 199/75/1 200/76/1
f 201/13/1 202/14/1 203/15/1 204/16/1
f 205/17/1 206/18/1 207/19/1 208/20/1
f 209/21/1 210/22/1 211/23/1 212/24/1
f 213/17/1 214/18/1 215/19/1 216/20/1
f 217/13/1 218/14/1 219/15/1 220/16/1
f 221/73/1 222/74/1 223/75/1 224/76/1
f 225/41/1 226/42/1 227/43/1 228/44/1
f 229/13/1 230/14/1 231/15/1 232/16/1
f 233/77/1 234/78/1 235/79/1 236/80/1
f 237/9/1 238/10/1 239/11/1 240/12/1
f 241/73/1 242/74/1 243/75/1 244/76/1
f 245/81/1 246/82/1 247/83/1 248/84/1
f 249/73/1 250/74/1 251/75/1 252/76/1
f 253/37/1 254/38/1 255/39/1 256/40/1
f 257/41/1 258/42/1 259/43/1 260/44/1
f 261/33/1 262/34/1 263/35/1 264/36/1
f 265/37/1 266/38/1 267/39/1 268/40/1
f 269/29/1 270/30/1 271/31/1 272/32/1
f 273/41/1 274/42/1 275/43/1 276/44/1
f 277/81/1 278/82/1 279/83/1 280/84/1
f 281/37/1 282/38/1 283/39/1 284/40/1
f 285/77/1 286/78/1 287/79/1 288/80/1
f 289/33/1 290/34/1 291/35/1 292/36/1
f 293/21/1 294/22/1 295/23/1 296/24/1
f 297/21/1 298/22/1 299/23/1 300/24/1
f 301/85/1 302/86/1 303/87/1 304/88/1
f 305/69/1 306/70/1 307/71/1 308/72/1
f 309/37/1 310/38/1 311/39/1 312/40/1
f 313/17/1 314/18/1 315/19/1 316/20/1
f 317/13/1 318/14/1 319/15/1 320/16/1
f 321/61/1 322/62/1 323/63/1 324/64/1
f 325/77/1 326/78/1 327/79/1 328/80/1
f 329/85/1 330/86/1 331/87/1 332/88/1
f 333/13/1 334/14/1 335/15/1 336/16/1
f 337/85/1 338/86/1 339/87/1 340/88/1
f 341/21/1 342/22/1 343/23/1 344/24/1
f 345/89/1 346/90/1 347/91/1 348/92/1
f 349/69/1 350/70/1 351/71/1 352/72/1
f 353/13/1 354/14/1 355/15/1 356/16/1
f 357/89/1 358/90/1 359/91/1 360/92/1
f 361/61/1 362/62/1 363/63/1 364/64/1
f 365/69/1 366/70/1 367/71/1 368/72/1
f 369/73/1 370/74/1 371/75/1 372/76/1
f 373/13/1 374/14/1 375/15/1 376/16/1
f 377/77/1 378/78/1 379/79/1 380/80/1
f 381/61/1 382/62/1 383/63/1 384/64/1
f 385/9/1 386/10/1 387/11/1 388/12/1
f 389/77/1 390/78/1 391/79/1 392/80/1
f 393/89/1 394/90/1 395/91/1 396/92/1
f 397/73/1 398/74/1 399/75/1 400/76/1
f 401/29/1 402/30/1 403/31/1 404/32/1
f 405/85/1 406/86/1 407/87/1 408/88/1
f 409/13/1 410/14/1 411/15/1 412/16/1

