# Tiled2Unity generated file. Do not modify by hand.
# Wavefront file for 'area1_mesh_0013.obj'

# Vertices (Count = 716)
v -896 -208 0
v -912 -208 0
v -912 -192 0
v -896 -192 0
v -928 -224 0
v -944 -224 0
v -944 -208 0
v -928 -208 0
v -912 -240 0
v -928 -240 0
v -928 -224 0
v -912 -224 0
v -880 -240 0
v -896 -240 0
v -896 -224 0
v -880 -224 0
v -928 -256 0
v -944 -256 0
v -944 -240 0
v -928 -240 0
v -880 -256 0
v -896 -256 0
v -896 -240 0
v -880 -240 0
v -864 -256 0
v -880 -256 0
v -880 -240 0
v -864 -240 0
v -848 -256 0
v -864 -256 0
v -864 -240 0
v -848 -240 0
v -496 -256 0
v -512 -256 0
v -512 -240 0
v -496 -240 0
v -528 -272 0
v -544 -272 0
v -544 -256 0
v -528 -256 0
v -512 -272 0
v -528 -272 0
v -528 -256 0
v -512 -256 0
v -496 -272 0
v -512 -272 0
v -512 -256 0
v -496 -256 0
v -976 -288 0
v -992 -288 0
v -992 -272 0
v -976 -272 0
v -800 -352 0
v -816 -352 0
v -816 -336 0
v -800 -336 0
v -784 -352 0
v -800 -352 0
v -800 -336 0
v -784 -336 0
v -768 -352 0
v -784 -352 0
v -784 -336 0
v -768 -336 0
v -752 -352 0
v -768 -352 0
v -768 -336 0
v -752 -336 0
v -736 -352 0
v -752 -352 0
v -752 -336 0
v -736 -336 0
v -720 -352 0
v -736 -352 0
v -736 -336 0
v -720 -336 0
v -848 -368 0
v -864 -368 0
v -864 -352 0
v -848 -352 0
v -832 -368 0
v -848 -368 0
v -848 -352 0
v -832 -352 0
v -576 -368 0
v -592 -368 0
v -592 -352 0
v -576 -352 0
v -320 -368 0
v -336 -368 0
v -336 -352 0
v -320 -352 0
v -304 -368 0
v -320 -368 0
v -320 -352 0
v -304 -352 0
v -288 -368 0
v -304 -368 0
v -304 -352 0
v -288 -352 0
v -272 -368 0
v -288 -368 0
v -288 -352 0
v -272 -352 0
v -256 -368 0
v -272 -368 0
v -272 -352 0
v -256 -352 0
v -240 -368 0
v -256 -368 0
v -256 -352 0
v -240 -352 0
v -160 -368 0
v -176 -368 0
v -176 -352 0
v -160 -352 0
v -144 -368 0
v -160 -368 0
v -160 -352 0
v -144 -352 0
v -128 -368 0
v -144 -368 0
v -144 -352 0
v -128 -352 0
v -112 -368 0
v -128 -368 0
v -128 -352 0
v -112 -352 0
v -96 -368 0
v -112 -368 0
v -112 -352 0
v -96 -352 0
v -80 -368 0
v -96 -368 0
v -96 -352 0
v -80 -352 0
v -320 -384 0
v -336 -384 0
v -336 -368 0
v -320 -368 0
v -304 -384 0
v -320 -384 0
v -320 -368 0
v -304 -368 0
v -288 -384 0
v -304 -384 0
v -304 -368 0
v -288 -368 0
v -272 -384 0
v -288 -384 0
v -288 -368 0
v -272 -368 0
v -256 -384 0
v -272 -384 0
v -272 -368 0
v -256 -368 0
v -240 -384 0
v -256 -384 0
v -256 -368 0
v -240 -368 0
v -160 -384 0
v -176 -384 0
v -176 -368 0
v -160 -368 0
v -144 -384 0
v -160 -384 0
v -160 -368 0
v -144 -368 0
v -128 -384 0
v -144 -384 0
v -144 -368 0
v -128 -368 0
v -112 -384 0
v -128 -384 0
v -128 -368 0
v -112 -368 0
v -96 -384 0
v -112 -384 0
v -112 -368 0
v -96 -368 0
v -80 -384 0
v -96 -384 0
v -96 -368 0
v -80 -368 0
v -928 -400 0
v -944 -400 0
v -944 -384 0
v -928 -384 0
v -320 -400 0
v -336 -400 0
v -336 -384 0
v -320 -384 0
v -304 -400 0
v -320 -400 0
v -320 -384 0
v -304 -384 0
v -288 -400 0
v -304 -400 0
v -304 -384 0
v -288 -384 0
v -272 -400 0
v -288 -400 0
v -288 -384 0
v -272 -384 0
v -256 -400 0
v -272 -400 0
v -272 -384 0
v -256 -384 0
v -240 -400 0
v -256 -400 0
v -256 -384 0
v -240 -384 0
v -160 -400 0
v -176 -400 0
v -176 -384 0
v -160 -384 0
v -144 -400 0
v -160 -400 0
v -160 -384 0
v -144 -384 0
v -128 -400 0
v -144 -400 0
v -144 -384 0
v -128 -384 0
v -112 -400 0
v -128 -400 0
v -128 -384 0
v -112 -384 0
v -96 -400 0
v -112 -400 0
v -112 -384 0
v -96 -384 0
v -80 -400 0
v -96 -400 0
v -96 -384 0
v -80 -384 0
v -928 -416 0
v -944 -416 0
v -944 -400 0
v -928 -400 0
v -336 -416 0
v -352 -416 0
v -352 -400 0
v -336 -400 0
v -320 -416 0
v -336 -416 0
v -336 -400 0
v -320 -400 0
v -304 -416 0
v -320 -416 0
v -320 -400 0
v -304 -400 0
v -288 -416 0
v -304 -416 0
v -304 -400 0
v -288 -400 0
v -272 -416 0
v -288 -416 0
v -288 -400 0
v -272 -400 0
v -256 -416 0
v -272 -416 0
v -272 -400 0
v -256 -400 0
v -240 -416 0
v -256 -416 0
v -256 -400 0
v -240 -400 0
v -224 -416 0
v -240 -416 0
v -240 -400 0
v -224 -400 0
v -208 -416 0
v -224 -416 0
v -224 -400 0
v -208 -400 0
v -192 -416 0
v -208 -416 0
v -208 -400 0
v -192 -400 0
v -176 -416 0
v -192 -416 0
v -192 -400 0
v -176 -400 0
v -160 -416 0
v -176 -416 0
v -176 -400 0
v -160 -400 0
v -144 -416 0
v -160 -416 0
v -160 -400 0
v -144 -400 0
v -128 -416 0
v -144 -416 0
v -144 -400 0
v -128 -400 0
v -112 -416 0
v -128 -416 0
v -128 -400 0
v -112 -400 0
v -96 -416 0
v -112 -416 0
v -112 -400 0
v -96 -400 0
v -80 -416 0
v -96 -416 0
v -96 -400 0
v -80 -400 0
v -64 -416 0
v -80 -416 0
v -80 -400 0
v -64 -400 0
v -928 -432 0
v -944 -432 0
v -944 -416 0
v -928 -416 0
v -368 -432 0
v -384 -432 0
v -384 -416 0
v -368 -416 0
v -352 -432 0
v -368 -432 0
v -368 -416 0
v -352 -416 0
v -336 -432 0
v -352 -432 0
v -352 -416 0
v -336 -416 0
v -320 -432 0
v -336 -432 0
v -336 -416 0
v -320 -416 0
v -64 -432 0
v -80 -432 0
v -80 -416 0
v -64 -416 0
v -928 -448 0
v -944 -448 0
v -944 -432 0
v -928 -432 0
v -656 -448 0
v -672 -448 0
v -672 -432 0
v -656 -432 0
v -336 -448 0
v -352 -448 0
v -352 -432 0
v -336 -432 0
v -320 -448 0
v -336 -448 0
v -336 -432 0
v -320 -432 0
v -288 -448 0
v -304 -448 0
v -304 -432 0
v -288 -432 0
v -272 -448 0
v -288 -448 0
v -288 -432 0
v -272 -432 0
v -256 -448 0
v -272 -448 0
v -272 -432 0
v -256 -432 0
v -144 -448 0
v -160 -448 0
v -160 -432 0
v -144 -432 0
v -128 -448 0
v -144 -448 0
v -144 -432 0
v -128 -432 0
v -112 -448 0
v -128 -448 0
v -128 -432 0
v -112 -432 0
v -64 -448 0
v -80 -448 0
v -80 -432 0
v -64 -432 0
v -656 -464 0
v -672 -464 0
v -672 -448 0
v -656 -448 0
v -336 -464 0
v -352 -464 0
v -352 -448 0
v -336 -448 0
v -288 -464 0
v -304 -464 0
v -304 -448 0
v -288 -448 0
v -272 -464 0
v -288 -464 0
v -288 -448 0
v -272 -448 0
v -256 -464 0
v -272 -464 0
v -272 -448 0
v -256 -448 0
v -144 -464 0
v -160 -464 0
v -160 -448 0
v -144 -448 0
v -128 -464 0
v -144 -464 0
v -144 -448 0
v -128 -448 0
v -112 -464 0
v -128 -464 0
v -128 -448 0
v -112 -448 0
v -64 -464 0
v -80 -464 0
v -80 -448 0
v -64 -448 0
v -288 -480 0
v -304 -480 0
v -304 -464 0
v -288 -464 0
v -272 -480 0
v -288 -480 0
v -288 -464 0
v -272 -464 0
v -256 -480 0
v -272 -480 0
v -272 -464 0
v -256 -464 0
v -208 -480 0
v -224 -480 0
v -224 -464 0
v -208 -464 0
v -192 -480 0
v -208 -480 0
v -208 -464 0
v -192 -464 0
v -144 -480 0
v -160 -480 0
v -160 -464 0
v -144 -464 0
v -128 -480 0
v -144 -480 0
v -144 -464 0
v -128 -464 0
v -112 -480 0
v -128 -480 0
v -128 -464 0
v -112 -464 0
v -64 -480 0
v -80 -480 0
v -80 -464 0
v -64 -464 0
v -288 -496 0
v -304 -496 0
v -304 -480 0
v -288 -480 0
v -272 -496 0
v -288 -496 0
v -288 -480 0
v -272 -480 0
v -256 -496 0
v -272 -496 0
v -272 -480 0
v -256 -480 0
v -208 -496 0
v -224 -496 0
v -224 -480 0
v -208 -480 0
v -192 -496 0
v -208 -496 0
v -208 -480 0
v -192 -480 0
v -144 -496 0
v -160 -496 0
v -160 -480 0
v -144 -480 0
v -128 -496 0
v -144 -496 0
v -144 -480 0
v -128 -480 0
v -112 -496 0
v -128 -496 0
v -128 -480 0
v -112 -480 0
v -208 -512 0
v -224 -512 0
v -224 -496 0
v -208 -496 0
v -192 -512 0
v -208 -512 0
v -208 -496 0
v -192 -496 0
v -208 -528 0
v -224 -528 0
v -224 -512 0
v -208 -512 0
v -192 -528 0
v -208 -528 0
v -208 -512 0
v -192 -512 0
v -736 -624 0
v -752 -624 0
v -752 -608 0
v -736 -608 0
v -720 -624 0
v -736 -624 0
v -736 -608 0
v -720 -608 0
v -704 -624 0
v -720 -624 0
v -720 -608 0
v -704 -608 0
v -688 -624 0
v -704 -624 0
v -704 -608 0
v -688 -608 0
v -672 -624 0
v -688 -624 0
v -688 -608 0
v -672 -608 0
v -832 -640 0
v -848 -640 0
v -848 -624 0
v -832 -624 0
v -816 -640 0
v -832 -640 0
v -832 -624 0
v -816 -624 0
v -800 -640 0
v -816 -640 0
v -816 -624 0
v -800 -624 0
v -784 -640 0
v -800 -640 0
v -800 -624 0
v -784 -624 0
v -768 -640 0
v -784 -640 0
v -784 -624 0
v -768 -624 0
v -752 -640 0
v -768 -640 0
v -768 -624 0
v -752 -624 0
v -736 -640 0
v -752 -640 0
v -752 -624 0
v -736 -624 0
v -720 -640 0
v -736 -640 0
v -736 -624 0
v -720 -624 0
v -704 -640 0
v -720 -640 0
v -720 -624 0
v -704 -624 0
v -688 -640 0
v -704 -640 0
v -704 -624 0
v -688 -624 0
v -672 -640 0
v -688 -640 0
v -688 -624 0
v -672 -624 0
v -832 -656 0
v -848 -656 0
v -848 -640 0
v -832 -640 0
v -720 -656 0
v -736 -656 0
v -736 -640 0
v -720 -640 0
v -704 -656 0
v -720 -656 0
v -720 -640 0
v -704 -640 0
v -240 -656 0
v -256 -656 0
v -256 -640 0
v -240 -640 0
v -240 -672 0
v -256 -672 0
v -256 -656 0
v -240 -656 0
v -672 -688 0
v -688 -688 0
v -688 -672 0
v -672 -672 0
v -256 -688 0
v -272 -688 0
v -272 -672 0
v -256 -672 0
v -240 -688 0
v -256 -688 0
v -256 -672 0
v -240 -672 0
v -832 -704 0
v -848 -704 0
v -848 -688 0
v -832 -688 0
v -800 -704 0
v -816 -704 0
v -816 -688 0
v -800 -688 0
v -784 -704 0
v -800 -704 0
v -800 -688 0
v -784 -688 0
v -768 -704 0
v -784 -704 0
v -784 -688 0
v -768 -688 0
v -256 -704 0
v -272 -704 0
v -272 -688 0
v -256 -688 0
v -240 -704 0
v -256 -704 0
v -256 -688 0
v -240 -688 0
v -832 -720 0
v -848 -720 0
v -848 -704 0
v -832 -704 0
v -816 -720 0
v -832 -720 0
v -832 -704 0
v -816 -704 0
v -800 -720 0
v -816 -720 0
v -816 -704 0
v -800 -704 0
v -784 -720 0
v -800 -720 0
v -800 -704 0
v -784 -704 0
v -768 -720 0
v -784 -720 0
v -784 -704 0
v -768 -704 0
v -752 -720 0
v -768 -720 0
v -768 -704 0
v -752 -704 0
v -112 -752 0
v -128 -752 0
v -128 -736 0
v -112 -736 0
v -144 -768 0
v -160 -768 0
v -160 -752 0
v -144 -752 0
v -128 -768 0
v -144 -768 0
v -144 -752 0
v -128 -752 0
v -112 -768 0
v -128 -768 0
v -128 -752 0
v -112 -752 0
v -160 -784 0
v -176 -784 0
v -176 -768 0
v -160 -768 0
v -144 -784 0
v -160 -784 0
v -160 -768 0
v -144 -768 0
v -176 -800 0
v -192 -800 0
v -192 -784 0
v -176 -784 0
v -160 -800 0
v -176 -800 0
v -176 -784 0
v -160 -784 0
v -144 -800 0
v -160 -800 0
v -160 -784 0
v -144 -784 0
v -160 -832 0
v -176 -832 0
v -176 -816 0
v -160 -816 0
v -128 -832 0
v -144 -832 0
v -144 -816 0
v -128 -816 0
v -112 -832 0
v -128 -832 0
v -128 -816 0
v -112 -816 0
v -128 -848 0
v -144 -848 0
v -144 -832 0
v -128 -832 0
v -112 -848 0
v -128 -848 0
v -128 -832 0
v -112 -832 0
v -112 -896 0
v -128 -896 0
v -128 -880 0
v -112 -880 0
v -112 -912 0
v -128 -912 0
v -128 -896 0
v -112 -896 0
v -176 -928 0
v -192 -928 0
v -192 -912 0
v -176 -912 0
v -160 -928 0
v -176 -928 0
v -176 -912 0
v -160 -912 0

# Texture cooridinates (Count = 276)
vt 0.4566116 0.3555133
vt 0.4731405 0.3555133
vt 0.4731405 0.3859316
vt 0.4566116 0.3859316
vt 0.6322314 0.9372624
vt 0.6487603 0.9372624
vt 0.6487603 0.9676806
vt 0.6322314 0.9676806
vt 0.9132231 0.2585551
vt 0.9297521 0.2585551
vt 0.9297521 0.2889734
vt 0.9132231 0.2889734
vt 0.2283058 0.6787072
vt 0.2448347 0.6787072
vt 0.2448347 0.7091255
vt 0.2283058 0.7091255
vt 0.2634298 0.743346
vt 0.2799587 0.743346
vt 0.2799587 0.7737643
vt 0.2634298 0.7737643
vt 0.4741735 0.6787072
vt 0.4907025 0.6787072
vt 0.4907025 0.7091255
vt 0.4741735 0.7091255
vt 0.4039256 0.6787072
vt 0.4204545 0.6787072
vt 0.4204545 0.7091255
vt 0.4039256 0.7091255
vt 0.4741735 0.6463878
vt 0.4907025 0.6463878
vt 0.4907025 0.6768061
vt 0.4741735 0.6768061
vt 0.4214876 0.6463878
vt 0.4380165 0.6463878
vt 0.4380165 0.6768061
vt 0.4214876 0.6768061
vt 0.4214876 0.6140684
vt 0.4380165 0.6140684
vt 0.4380165 0.6444867
vt 0.4214876 0.6444867
vt 0.9307851 0.4524715
vt 0.947314 0.4524715
vt 0.947314 0.4828897
vt 0.9307851 0.4828897
vt 0.9307851 0.3878327
vt 0.947314 0.3878327
vt 0.947314 0.418251
vt 0.9307851 0.418251
vt 0.4566116 0.6463878
vt 0.4731405 0.6463878
vt 0.4731405 0.6768061
vt 0.4566116 0.6768061
vt 0.07024793 0.5817491
vt 0.08677686 0.5817491
vt 0.08677686 0.6121673
vt 0.07024793 0.6121673
vt 0.05268595 0.5817491
vt 0.06921487 0.5817491
vt 0.06921487 0.6121673
vt 0.05268595 0.6121673
vt 0.03512397 0.5817491
vt 0.05165289 0.5817491
vt 0.05165289 0.6121673
vt 0.03512397 0.6121673
vt 0.07024793 0.6787072
vt 0.08677686 0.6787072
vt 0.08677686 0.7091255
vt 0.07024793 0.7091255
vt 0.05268595 0.6787072
vt 0.06921487 0.6787072
vt 0.06921487 0.7091255
vt 0.05268595 0.7091255
vt 0.03512397 0.6787072
vt 0.05165289 0.6787072
vt 0.05165289 0.7091255
vt 0.03512397 0.7091255
vt 0.07024793 0.5494297
vt 0.08677686 0.5494297
vt 0.08677686 0.5798479
vt 0.07024793 0.5798479
vt 0.05268595 0.5494297
vt 0.06921487 0.5494297
vt 0.06921487 0.5798479
vt 0.05268595 0.5798479
vt 0.03512397 0.5494297
vt 0.05165289 0.5494297
vt 0.05165289 0.5798479
vt 0.03512397 0.5798479
vt 0.07024793 0.6463878
vt 0.08677686 0.6463878
vt 0.08677686 0.6768061
vt 0.07024793 0.6768061
vt 0.05268595 0.6463878
vt 0.06921487 0.6463878
vt 0.06921487 0.6768061
vt 0.05268595 0.6768061
vt 0.03512397 0.6463878
vt 0.05165289 0.6463878
vt 0.05165289 0.6768061
vt 0.03512397 0.6768061
vt 0.07024793 0.5171102
vt 0.08677686 0.5171102
vt 0.08677686 0.5475285
vt 0.07024793 0.5475285
vt 0.05268595 0.5171102
vt 0.06921487 0.5171102
vt 0.06921487 0.5475285
vt 0.05268595 0.5475285
vt 0.03512397 0.5171102
vt 0.05165289 0.5171102
vt 0.05165289 0.5475285
vt 0.03512397 0.5475285
vt 0.07024793 0.6140684
vt 0.08677686 0.6140684
vt 0.08677686 0.6444867
vt 0.07024793 0.6444867
vt 0.05268595 0.6140684
vt 0.06921487 0.6140684
vt 0.06921487 0.6444867
vt 0.05268595 0.6444867
vt 0.03512397 0.6140684
vt 0.05165289 0.6140684
vt 0.05165289 0.6444867
vt 0.03512397 0.6444867
vt 0.8956612 0.2262357
vt 0.9121901 0.2262357
vt 0.9121901 0.256654
vt 0.8956612 0.256654
vt 0.8605372 0.2262357
vt 0.8770661 0.2262357
vt 0.8770661 0.256654
vt 0.8605372 0.256654
vt 0.9307851 0.2262357
vt 0.947314 0.2262357
vt 0.947314 0.256654
vt 0.9307851 0.256654
vt 0.9132231 0.2262357
vt 0.9297521 0.2262357
vt 0.9297521 0.256654
vt 0.9132231 0.256654
vt 0.8780992 0.2262357
vt 0.8946281 0.2262357
vt 0.8946281 0.256654
vt 0.8780992 0.256654
vt 0.8429752 0.2262357
vt 0.8595041 0.2262357
vt 0.8595041 0.256654
vt 0.8429752 0.256654
vt 0.4039256 0.6463878
vt 0.4204545 0.6463878
vt 0.4204545 0.6768061
vt 0.4039256 0.6768061
vt 0.3336777 0.6787072
vt 0.3502066 0.6787072
vt 0.3502066 0.7091255
vt 0.3336777 0.7091255
vt 0.4039256 0.6140684
vt 0.4204545 0.6140684
vt 0.4204545 0.6444867
vt 0.4039256 0.6444867
vt 0.8956612 0.6463878
vt 0.9121901 0.6463878
vt 0.9121901 0.6768061
vt 0.8956612 0.6768061
vt 0.8956612 0.6140684
vt 0.9121901 0.6140684
vt 0.9121901 0.6444867
vt 0.8956612 0.6444867
vt 0.9307851 0.6463878
vt 0.947314 0.6463878
vt 0.947314 0.6768061
vt 0.9307851 0.6768061
vt 0.9132231 0.6463878
vt 0.9297521 0.6463878
vt 0.9297521 0.6768061
vt 0.9132231 0.6768061
vt 0.9307851 0.6140684
vt 0.947314 0.6140684
vt 0.947314 0.6444867
vt 0.9307851 0.6444867
vt 0.9132231 0.6140684
vt 0.9297521 0.6140684
vt 0.9297521 0.6444867
vt 0.9132231 0.6444867
vt 0.3688017 0.6463878
vt 0.3853306 0.6463878
vt 0.3853306 0.6768061
vt 0.3688017 0.6768061
vt 0.3512397 0.6463878
vt 0.3677686 0.6463878
vt 0.3677686 0.6768061
vt 0.3512397 0.6768061
vt 0.3336777 0.6463878
vt 0.3502066 0.6463878
vt 0.3502066 0.6768061
vt 0.3336777 0.6768061
vt 0.4566116 0.9695817
vt 0.4731405 0.9695817
vt 0.4731405 1
vt 0.4566116 1
vt 0.9307851 0.2585551
vt 0.947314 0.2585551
vt 0.947314 0.2889734
vt 0.9307851 0.2889734
vt 0.2809917 0.6787072
vt 0.2975207 0.6787072
vt 0.2975207 0.7091255
vt 0.2809917 0.7091255
vt 0.9307851 0.2908745
vt 0.947314 0.2908745
vt 0.947314 0.3212928
vt 0.9307851 0.3212928
vt 0.9132231 0.5494297
vt 0.9297521 0.5494297
vt 0.9297521 0.5798479
vt 0.9132231 0.5798479
vt 0.8956612 0.5494297
vt 0.9121901 0.5494297
vt 0.9121901 0.5798479
vt 0.8956612 0.5798479
vt 0.3863636 0.9372624
vt 0.4028926 0.9372624
vt 0.4028926 0.9676806
vt 0.3863636 0.9676806
vt 0.4214876 0.8726236
vt 0.4380165 0.8726236
vt 0.4380165 0.9030418
vt 0.4214876 0.9030418
vt 0.3688017 0.9372624
vt 0.3853306 0.9372624
vt 0.3853306 0.9676806
vt 0.3688017 0.9676806
vt 0.8254132 0.6463878
vt 0.8419421 0.6463878
vt 0.8419421 0.6768061
vt 0.8254132 0.6768061
vt 0.8078513 0.6463878
vt 0.8243802 0.6463878
vt 0.8243802 0.6768061
vt 0.8078513 0.6768061
vt 0.8254132 0.6140684
vt 0.8419421 0.6140684
vt 0.8419421 0.6444867
vt 0.8254132 0.6444867
vt 0.8078513 0.6140684
vt 0.8243802 0.6140684
vt 0.8243802 0.6444867
vt 0.8078513 0.6444867
vt 0.2458678 0.7110266
vt 0.2623967 0.7110266
vt 0.2623967 0.7414448
vt 0.2458678 0.7414448
vt 0.8605372 0.6463878
vt 0.8770661 0.6463878
vt 0.8770661 0.6768061
vt 0.8605372 0.6768061
vt 0.8429752 0.6463878
vt 0.8595041 0.6463878
vt 0.8595041 0.6768061
vt 0.8429752 0.6768061
vt 0.8605372 0.6140684
vt 0.8770661 0.6140684
vt 0.8770661 0.6444867
vt 0.8605372 0.6444867
vt 0.8429752 0.6140684
vt 0.8595041 0.6140684
vt 0.8595041 0.6444867
vt 0.8429752 0.6444867
vt 0.8254132 0.4201521
vt 0.8419421 0.4201521
vt 0.8419421 0.4505703
vt 0.8254132 0.4505703
vt 0.8605372 0.4201521
vt 0.8770661 0.4201521
vt 0.8770661 0.4505703
vt 0.8605372 0.4505703

# Normal
vn 0 0 -1

# Mesh description
g area1_mesh_0013

# Faces
f 1/1/1 2/2/1 3/3/1 4/4/1
f 5/1/1 6/2/1 7/3/1 8/4/1
f 9/5/1 10/6/1 11/7/1 12/8/1
f 13/1/1 14/2/1 15/3/1 16/4/1
f 17/9/1 18/10/1 19/11/1 20/12/1
f 21/13/1 22/14/1 23/15/1 24/16/1
f 25/13/1 26/14/1 27/15/1 28/16/1
f 29/17/1 30/18/1 31/19/1 32/20/1
f 33/21/1 34/22/1 35/23/1 36/24/1
f 37/25/1 38/26/1 39/27/1 40/28/1
f 41/25/1 42/26/1 43/27/1 44/28/1
f 45/29/1 46/30/1 47/31/1 48/32/1
f 49/13/1 50/14/1 51/15/1 52/16/1
f 53/33/1 54/34/1 55/35/1 56/36/1
f 57/33/1 58/34/1 59/35/1 60/36/1
f 61/33/1 62/34/1 63/35/1 64/36/1
f 65/37/1 66/38/1 67/39/1 68/40/1
f 69/37/1 70/38/1 71/39/1 72/40/1
f 73/37/1 74/38/1 75/39/1 76/40/1
f 77/41/1 78/42/1 79/43/1 80/44/1
f 81/45/1 82/46/1 83/47/1 84/48/1
f 85/49/1 86/50/1 87/51/1 88/52/1
f 89/53/1 90/54/1 91/55/1 92/56/1
f 93/57/1 94/58/1 95/59/1 96/60/1
f 97/61/1 98/62/1 99/63/1 100/64/1
f 101/65/1 102/66/1 103/67/1 104/68/1
f 105/69/1 106/70/1 107/71/1 108/72/1
f 109/73/1 110/74/1 111/75/1 112/76/1
f 113/65/1 114/66/1 115/67/1 116/68/1
f 117/69/1 118/70/1 119/71/1 120/72/1
f 121/73/1 122/74/1 123/75/1 124/76/1
f 125/53/1 126/54/1 127/55/1 128/56/1
f 129/57/1 130/58/1 131/59/1 132/60/1
f 133/61/1 134/62/1 135/63/1 136/64/1
f 137/77/1 138/78/1 139/79/1 140/80/1
f 141/81/1 142/82/1 143/83/1 144/84/1
f 145/85/1 146/86/1 147/87/1 148/88/1
f 149/89/1 150/90/1 151/91/1 152/92/1
f 153/93/1 154/94/1 155/95/1 156/96/1
f 157/97/1 158/98/1 159/99/1 160/100/1
f 161/89/1 162/90/1 163/91/1 164/92/1
f 165/93/1 166/94/1 167/95/1 168/96/1
f 169/97/1 170/98/1 171/99/1 172/100/1
f 173/77/1 174/78/1 175/79/1 176/80/1
f 177/81/1 178/82/1 179/83/1 180/84/1
f 181/85/1 182/86/1 183/87/1 184/88/1
f 185/25/1 186/26/1 187/27/1 188/28/1
f 189/101/1 190/102/1 191/103/1 192/104/1
f 193/105/1 194/106/1 195/107/1 196/108/1
f 197/109/1 198/110/1 199/111/1 200/112/1
f 201/113/1 202/114/1 203/115/1 204/116/1
f 205/117/1 206/118/1 207/119/1 208/120/1
f 209/121/1 210/122/1 211/123/1 212/124/1
f 213/113/1 214/114/1 215/115/1 216/116/1
f 217/117/1 218/118/1 219/119/1 220/120/1
f 221/121/1 222/122/1 223/123/1 224/124/1
f 225/101/1 226/102/1 227/103/1 228/104/1
f 229/105/1 230/106/1 231/107/1 232/108/1
f 233/109/1 234/110/1 235/111/1 236/112/1
f 237/25/1 238/26/1 239/27/1 240/28/1
f 241/125/1 242/126/1 243/127/1 244/128/1
f 245/129/1 246/130/1 247/131/1 248/132/1
f 249/133/1 250/134/1 251/135/1 252/136/1
f 253/137/1 254/138/1 255/139/1 256/140/1
f 257/133/1 258/134/1 259/135/1 260/136/1
f 261/137/1 262/138/1 263/139/1 264/140/1
f 265/133/1 266/134/1 267/135/1 268/136/1
f 269/137/1 270/138/1 271/139/1 272/140/1
f 273/141/1 274/142/1 275/143/1 276/144/1
f 277/125/1 278/126/1 279/127/1 280/128/1
f 281/137/1 282/138/1 283/139/1 284/140/1
f 285/133/1 286/134/1 287/135/1 288/136/1
f 289/137/1 290/138/1 291/139/1 292/140/1
f 293/133/1 294/134/1 295/135/1 296/136/1
f 297/137/1 298/138/1 299/139/1 300/140/1
f 301/133/1 302/134/1 303/135/1 304/136/1
f 305/145/1 306/146/1 307/147/1 308/148/1
f 309/141/1 310/142/1 311/143/1 312/144/1
f 313/149/1 314/150/1 315/151/1 316/152/1
f 317/153/1 318/154/1 319/155/1 320/156/1
f 321/153/1 322/154/1 323/155/1 324/156/1
f 325/125/1 326/126/1 327/127/1 328/128/1
f 329/21/1 330/22/1 331/23/1 332/24/1
f 333/141/1 334/142/1 335/143/1 336/144/1
f 337/157/1 338/158/1 339/159/1 340/160/1
f 341/21/1 342/22/1 343/23/1 344/24/1
f 345/125/1 346/126/1 347/127/1 348/128/1
f 349/29/1 350/30/1 351/31/1 352/32/1
f 353/161/1 354/162/1 355/163/1 356/164/1
f 357/161/1 358/162/1 359/163/1 360/164/1
f 361/161/1 362/162/1 363/163/1 364/164/1
f 365/161/1 366/162/1 367/163/1 368/164/1
f 369/161/1 370/162/1 371/163/1 372/164/1
f 373/161/1 374/162/1 375/163/1 376/164/1
f 377/141/1 378/142/1 379/143/1 380/144/1
f 381/29/1 382/30/1 383/31/1 384/32/1
f 385/125/1 386/126/1 387/127/1 388/128/1
f 389/165/1 390/166/1 391/167/1 392/168/1
f 393/165/1 394/166/1 395/167/1 396/168/1
f 397/165/1 398/166/1 399/167/1 400/168/1
f 401/165/1 402/166/1 403/167/1 404/168/1
f 405/165/1 406/166/1 407/167/1 408/168/1
f 409/165/1 410/166/1 411/167/1 412/168/1
f 413/141/1 414/142/1 415/143/1 416/144/1
f 417/169/1 418/170/1 419/171/1 420/172/1
f 421/169/1 422/170/1 423/171/1 424/172/1
f 425/169/1 426/170/1 427/171/1 428/172/1
f 429/173/1 430/174/1 431/175/1 432/176/1
f 433/173/1 434/174/1 435/175/1 436/176/1
f 437/169/1 438/170/1 439/171/1 440/172/1
f 441/169/1 442/170/1 443/171/1 444/172/1
f 445/169/1 446/170/1 447/171/1 448/172/1
f 449/141/1 450/142/1 451/143/1 452/144/1
f 453/177/1 454/178/1 455/179/1 456/180/1
f 457/177/1 458/178/1 459/179/1 460/180/1
f 461/177/1 462/178/1 463/179/1 464/180/1
f 465/181/1 466/182/1 467/183/1 468/184/1
f 469/181/1 470/182/1 471/183/1 472/184/1
f 473/177/1 474/178/1 475/179/1 476/180/1
f 477/177/1 478/178/1 479/179/1 480/180/1
f 481/177/1 482/178/1 483/179/1 484/180/1
f 485/173/1 486/174/1 487/175/1 488/176/1
f 489/173/1 490/174/1 491/175/1 492/176/1
f 493/181/1 494/182/1 495/183/1 496/184/1
f 497/181/1 498/182/1 499/183/1 500/184/1
f 501/149/1 502/150/1 503/151/1 504/152/1
f 505/149/1 506/150/1 507/151/1 508/152/1
f 509/149/1 510/150/1 511/151/1 512/152/1
f 513/149/1 514/150/1 515/151/1 516/152/1
f 517/149/1 518/150/1 519/151/1 520/152/1
f 521/185/1 522/186/1 523/187/1 524/188/1
f 525/189/1 526/190/1 527/191/1 528/192/1
f 529/189/1 530/190/1 531/191/1 532/192/1
f 533/189/1 534/190/1 535/191/1 536/192/1
f 537/189/1 538/190/1 539/191/1 540/192/1
f 541/193/1 542/194/1 543/195/1 544/196/1
f 545/157/1 546/158/1 547/159/1 548/160/1
f 549/157/1 550/158/1 551/159/1 552/160/1
f 553/157/1 554/158/1 555/159/1 556/160/1
f 557/157/1 558/158/1 559/159/1 560/160/1
f 561/157/1 562/158/1 563/159/1 564/160/1
f 565/197/1 566/198/1 567/199/1 568/200/1
f 569/201/1 570/202/1 571/203/1 572/204/1
f 573/201/1 574/202/1 575/203/1 576/204/1
f 577/205/1 578/206/1 579/207/1 580/208/1
f 581/153/1 582/154/1 583/155/1 584/156/1
f 585/209/1 586/210/1 587/211/1 588/212/1
f 589/213/1 590/214/1 591/215/1 592/216/1
f 593/217/1 594/218/1 595/219/1 596/220/1
f 597/21/1 598/22/1 599/23/1 600/24/1
f 601/221/1 602/222/1 603/223/1 604/224/1
f 605/225/1 606/226/1 607/227/1 608/228/1
f 609/229/1 610/230/1 611/231/1 612/232/1
f 613/213/1 614/214/1 615/215/1 616/216/1
f 617/217/1 618/218/1 619/219/1 620/220/1
f 621/29/1 622/30/1 623/31/1 624/32/1
f 625/185/1 626/186/1 627/187/1 628/188/1
f 629/189/1 630/190/1 631/191/1 632/192/1
f 633/189/1 634/190/1 635/191/1 636/192/1
f 637/189/1 638/190/1 639/191/1 640/192/1
f 641/193/1 642/194/1 643/195/1 644/196/1
f 645/21/1 646/22/1 647/23/1 648/24/1
f 649/153/1 650/154/1 651/155/1 652/156/1
f 653/153/1 654/154/1 655/155/1 656/156/1
f 657/29/1 658/30/1 659/31/1 660/32/1
f 661/233/1 662/234/1 663/235/1 664/236/1
f 665/237/1 666/238/1 667/239/1 668/240/1
f 669/201/1 670/202/1 671/203/1 672/204/1
f 673/241/1 674/242/1 675/243/1 676/244/1
f 677/245/1 678/246/1 679/247/1 680/248/1
f 681/249/1 682/250/1 683/251/1 684/252/1
f 685/253/1 686/254/1 687/255/1 688/256/1
f 689/257/1 690/258/1 691/259/1 692/260/1
f 693/261/1 694/262/1 695/263/1 696/264/1
f 697/265/1 698/266/1 699/267/1 700/268/1
f 701/269/1 702/270/1 703/271/1 704/272/1
f 705/273/1 706/274/1 707/275/1 708/276/1
f 709/205/1 710/206/1 711/207/1 712/208/1
f 713/205/1 714/206/1 715/207/1 716/208/1

