# Tiled2Unity generated file. Do not modify by hand.
# Wavefront file for 'innflr1_mesh_0006.obj'

# Vertices (Count = 124)
v -608 -544 0
v -624 -544 0
v -624 -528 0
v -608 -528 0
v -592 -544 0
v -608 -544 0
v -608 -528 0
v -592 -528 0
v -608 -560 0
v -624 -560 0
v -624 -544 0
v -608 -544 0
v -592 -560 0
v -608 -560 0
v -608 -544 0
v -592 -544 0
v -656 -576 0
v -672 -576 0
v -672 -560 0
v -656 -560 0
v -640 -576 0
v -656 -576 0
v -656 -560 0
v -640 -560 0
v -608 -576 0
v -624 -576 0
v -624 -560 0
v -608 -560 0
v -592 -576 0
v -608 -576 0
v -608 -560 0
v -592 -560 0
v -576 -576 0
v -592 -576 0
v -592 -560 0
v -576 -560 0
v -720 -592 0
v -736 -592 0
v -736 -576 0
v -720 -576 0
v -704 -592 0
v -720 -592 0
v -720 -576 0
v -704 -576 0
v -688 -592 0
v -704 -592 0
v -704 -576 0
v -688 -576 0
v -672 -592 0
v -688 -592 0
v -688 -576 0
v -672 -576 0
v -656 -592 0
v -672 -592 0
v -672 -576 0
v -656 -576 0
v -640 -592 0
v -656 -592 0
v -656 -576 0
v -640 -576 0
v -656 -624 0
v -672 -624 0
v -672 -608 0
v -656 -608 0
v -640 -624 0
v -656 -624 0
v -656 -608 0
v -640 -608 0
v -624 -624 0
v -640 -624 0
v -640 -608 0
v -624 -608 0
v -544 -624 0
v -560 -624 0
v -560 -608 0
v -544 -608 0
v -528 -624 0
v -544 -624 0
v -544 -608 0
v -528 -608 0
v -720 -640 0
v -736 -640 0
v -736 -624 0
v -720 -624 0
v -720 -656 0
v -736 -656 0
v -736 -640 0
v -720 -640 0
v -592 -656 0
v -608 -656 0
v -608 -640 0
v -592 -640 0
v -576 -656 0
v -592 -656 0
v -592 -640 0
v -576 -640 0
v -720 -672 0
v -736 -672 0
v -736 -656 0
v -720 -656 0
v -528 -672 0
v -544 -672 0
v -544 -656 0
v -528 -656 0
v -688 -688 0
v -704 -688 0
v -704 -672 0
v -688 -672 0
v -672 -688 0
v -688 -688 0
v -688 -672 0
v -672 -672 0
v -656 -688 0
v -672 -688 0
v -672 -672 0
v -656 -672 0
v -544 -688 0
v -560 -688 0
v -560 -672 0
v -544 -672 0
v -528 -688 0
v -544 -688 0
v -544 -672 0
v -528 -672 0

# Texture cooridinates (Count = 64)
vt 0.4741735 0.7756654
vt 0.4907025 0.7756654
vt 0.4907025 0.8060837
vt 0.4741735 0.8060837
vt 0.4566116 0.8403042
vt 0.4731405 0.8403042
vt 0.4731405 0.8707224
vt 0.4566116 0.8707224
vt 0.2107438 0.7756654
vt 0.2272727 0.7756654
vt 0.2272727 0.8060837
vt 0.2107438 0.8060837
vt 0.1931818 0.8079848
vt 0.2097107 0.8079848
vt 0.2097107 0.838403
vt 0.1931818 0.838403
vt 0.4214876 0.904943
vt 0.4380165 0.904943
vt 0.4380165 0.9353612
vt 0.4214876 0.9353612
vt 0.3688017 0.904943
vt 0.3853306 0.904943
vt 0.3853306 0.9353612
vt 0.3688017 0.9353612
vt 0.1931818 0.7756654
vt 0.2097107 0.7756654
vt 0.2097107 0.8060837
vt 0.1931818 0.8060837
vt 0.2107438 0.8079848
vt 0.2272727 0.8079848
vt 0.2272727 0.838403
vt 0.2107438 0.838403
vt 0.4566116 0.9695817
vt 0.4731405 0.9695817
vt 0.4731405 1
vt 0.4566116 1
vt 0.4741735 0.9372624
vt 0.4907025 0.9372624
vt 0.4907025 0.9676806
vt 0.4741735 0.9676806
vt 0.3863636 0.8403042
vt 0.4028926 0.8403042
vt 0.4028926 0.8707224
vt 0.3863636 0.8707224
vt 0.3863636 0.7756654
vt 0.4028926 0.7756654
vt 0.4028926 0.8060837
vt 0.3863636 0.8060837
vt 0.3688017 0.8403042
vt 0.3853306 0.8403042
vt 0.3853306 0.8707224
vt 0.3688017 0.8707224
vt 0.3336777 0.8403042
vt 0.3502066 0.8403042
vt 0.3502066 0.8707224
vt 0.3336777 0.8707224
vt 0.3512397 0.8403042
vt 0.3677686 0.8403042
vt 0.3677686 0.8707224
vt 0.3512397 0.8707224
vt 0.3863636 0.8079848
vt 0.4028926 0.8079848
vt 0.4028926 0.838403
vt 0.3863636 0.838403

# Normal
vn 0 0 -1

# Mesh description
g innflr1_mesh_0006

# Faces
f 1/1/1 2/2/1 3/3/1 4/4/1
f 5/5/1 6/6/1 7/7/1 8/8/1
f 9/9/1 10/10/1 11/11/1 12/12/1
f 13/13/1 14/14/1 15/15/1 16/16/1
f 17/17/1 18/18/1 19/19/1 20/20/1
f 21/21/1 22/22/1 23/23/1 24/24/1
f 25/25/1 26/26/1 27/27/1 28/28/1
f 29/29/1 30/30/1 31/31/1 32/32/1
f 33/33/1 34/34/1 35/35/1 36/36/1
f 37/37/1 38/38/1 39/39/1 40/40/1
f 41/37/1 42/38/1 43/39/1 44/40/1
f 45/37/1 46/38/1 47/39/1 48/40/1
f 49/37/1 50/38/1 51/39/1 52/40/1
f 53/37/1 54/38/1 55/39/1 56/40/1
f 57/21/1 58/22/1 59/23/1 60/24/1
f 61/41/1 62/42/1 63/43/1 64/44/1
f 65/45/1 66/46/1 67/47/1 68/48/1
f 69/49/1 70/50/1 71/51/1 72/52/1
f 73/41/1 74/42/1 75/43/1 76/44/1
f 77/45/1 78/46/1 79/47/1 80/48/1
f 81/53/1 82/54/1 83/55/1 84/56/1
f 85/45/1 86/46/1 87/47/1 88/48/1
f 89/45/1 90/46/1 91/47/1 92/48/1
f 93/49/1 94/50/1 95/51/1 96/52/1
f 97/57/1 98/58/1 99/59/1 100/60/1
f 101/53/1 102/54/1 103/55/1 104/56/1
f 105/41/1 106/42/1 107/43/1 108/44/1
f 109/45/1 110/46/1 111/47/1 112/48/1
f 113/49/1 114/50/1 115/51/1 116/52/1
f 117/61/1 118/62/1 119/63/1 120/64/1
f 121/45/1 122/46/1 123/47/1 124/48/1

