# Tiled2Unity generated file. Do not modify by hand.
# Wavefront file for 'lake_mesh_0008.obj'

# Vertices (Count = 12)
v -688 -608 0
v -704 -608 0
v -704 -592 0
v -688 -592 0
v -656 -608 0
v -672 -608 0
v -672 -592 0
v -656 -592 0
v -672 -624 0
v -688 -624 0
v -688 -608 0
v -672 -608 0

# Texture cooridinates (Count = 8)
vt 0.7024794 0.9695817
vt 0.7190083 0.9695817
vt 0.7190083 1
vt 0.7024794 1
vt 0.5619835 0.9695817
vt 0.5785124 0.9695817
vt 0.5785124 1
vt 0.5619835 1

# Normal
vn 0 0 -1

# Mesh description
g lake_mesh_0008

# Faces
f 1/1/1 2/2/1 3/3/1 4/4/1
f 5/1/1 6/2/1 7/3/1 8/4/1
f 9/5/1 10/6/1 11/7/1 12/8/1

