# Tiled2Unity generated file. Do not modify by hand.
# Wavefront file for 'lake_mesh_0015.obj'

# Vertices (Count = 112)
v -608 -336 0
v -624 -336 0
v -624 -320 0
v -608 -320 0
v -304 -368 0
v -320 -368 0
v -320 -352 0
v -304 -352 0
v -400 -384 0
v -416 -384 0
v -416 -368 0
v -400 -368 0
v -304 -384 0
v -320 -384 0
v -320 -368 0
v -304 -368 0
v -560 -400 0
v -576 -400 0
v -576 -384 0
v -560 -384 0
v -544 -400 0
v -560 -400 0
v -560 -384 0
v -544 -384 0
v -560 -416 0
v -576 -416 0
v -576 -400 0
v -560 -400 0
v -544 -416 0
v -560 -416 0
v -560 -400 0
v -544 -400 0
v -528 -416 0
v -544 -416 0
v -544 -400 0
v -528 -400 0
v -560 -448 0
v -576 -448 0
v -576 -432 0
v -560 -432 0
v -144 -448 0
v -160 -448 0
v -160 -432 0
v -144 -432 0
v -1008 -464 0
v -1024 -464 0
v -1024 -448 0
v -1008 -448 0
v -256 -512 0
v -272 -512 0
v -272 -496 0
v -256 -496 0
v -240 -512 0
v -256 -512 0
v -256 -496 0
v -240 -496 0
v -256 -528 0
v -272 -528 0
v -272 -512 0
v -256 -512 0
v -240 -528 0
v -256 -528 0
v -256 -512 0
v -240 -512 0
v -288 -576 0
v -304 -576 0
v -304 -560 0
v -288 -560 0
v -272 -576 0
v -288 -576 0
v -288 -560 0
v -272 -560 0
v -160 -576 0
v -176 -576 0
v -176 -560 0
v -160 -560 0
v -288 -592 0
v -304 -592 0
v -304 -576 0
v -288 -576 0
v -272 -592 0
v -288 -592 0
v -288 -576 0
v -272 -576 0
v -576 -608 0
v -592 -608 0
v -592 -592 0
v -576 -592 0
v -336 -608 0
v -352 -608 0
v -352 -592 0
v -336 -592 0
v -192 -608 0
v -208 -608 0
v -208 -592 0
v -192 -592 0
v -320 -640 0
v -336 -640 0
v -336 -624 0
v -320 -624 0
v -448 -688 0
v -464 -688 0
v -464 -672 0
v -448 -672 0
v -496 -720 0
v -512 -720 0
v -512 -704 0
v -496 -704 0
v -720 -752 0
v -736 -752 0
v -736 -736 0
v -720 -736 0

# Texture cooridinates (Count = 88)
vt 0.8429752 0.904943
vt 0.8595041 0.904943
vt 0.8595041 0.9353612
vt 0.8429752 0.9353612
vt 0.9307851 0.2908745
vt 0.947314 0.2908745
vt 0.947314 0.3212928
vt 0.9307851 0.3212928
vt 0.8429752 0.8726236
vt 0.8595041 0.8726236
vt 0.8595041 0.9030418
vt 0.8429752 0.9030418
vt 0.9307851 0.2585551
vt 0.947314 0.2585551
vt 0.947314 0.2889734
vt 0.9307851 0.2889734
vt 0.8605372 0.6463878
vt 0.8770661 0.6463878
vt 0.8770661 0.6768061
vt 0.8605372 0.6768061
vt 0.8429752 0.6463878
vt 0.8595041 0.6463878
vt 0.8595041 0.6768061
vt 0.8429752 0.6768061
vt 0.8605372 0.6140684
vt 0.8770661 0.6140684
vt 0.8770661 0.6444867
vt 0.8605372 0.6444867
vt 0.8429752 0.6140684
vt 0.8595041 0.6140684
vt 0.8595041 0.6444867
vt 0.8429752 0.6444867
vt 0.2458678 0.7110266
vt 0.2623967 0.7110266
vt 0.2623967 0.7414448
vt 0.2458678 0.7414448
vt 0.8429752 0.8403042
vt 0.8595041 0.8403042
vt 0.8595041 0.8707224
vt 0.8429752 0.8707224
vt 0.9132231 0.5494297
vt 0.9297521 0.5494297
vt 0.9297521 0.5798479
vt 0.9132231 0.5798479
vt 0.8956612 0.5494297
vt 0.9121901 0.5494297
vt 0.9121901 0.5798479
vt 0.8956612 0.5798479
vt 0.9307851 0.5494297
vt 0.947314 0.5494297
vt 0.947314 0.5798479
vt 0.9307851 0.5798479
vt 0.9307851 0.5817491
vt 0.947314 0.5817491
vt 0.947314 0.6121673
vt 0.9307851 0.6121673
vt 0.9483471 0.2262357
vt 0.9648761 0.2262357
vt 0.9648761 0.256654
vt 0.9483471 0.256654
vt 0.9307851 0.4524715
vt 0.947314 0.4524715
vt 0.947314 0.4828897
vt 0.9307851 0.4828897
vt 0.9307851 0.3878327
vt 0.947314 0.3878327
vt 0.947314 0.418251
vt 0.9307851 0.418251
vt 0.8429752 0.743346
vt 0.8595041 0.743346
vt 0.8595041 0.7737643
vt 0.8429752 0.7737643
vt 0.9483471 0.2585551
vt 0.9648761 0.2585551
vt 0.9648761 0.2889734
vt 0.9483471 0.2889734
vt 0.9659091 0.2585551
vt 0.982438 0.2585551
vt 0.982438 0.2889734
vt 0.9659091 0.2889734
vt 0.9834711 0.2262357
vt 1 0.2262357
vt 1 0.256654
vt 0.9834711 0.256654
vt 0.9834711 0.2585551
vt 1 0.2585551
vt 1 0.2889734
vt 0.9834711 0.2889734

# Normal
vn 0 0 -1

# Mesh description
g lake_mesh_0015

# Faces
f 1/1/1 2/2/1 3/3/1 4/4/1
f 5/5/1 6/6/1 7/7/1 8/8/1
f 9/9/1 10/10/1 11/11/1 12/12/1
f 13/13/1 14/14/1 15/15/1 16/16/1
f 17/17/1 18/18/1 19/19/1 20/20/1
f 21/21/1 22/22/1 23/23/1 24/24/1
f 25/25/1 26/26/1 27/27/1 28/28/1
f 29/29/1 30/30/1 31/31/1 32/32/1
f 33/13/1 34/14/1 35/15/1 36/16/1
f 37/33/1 38/34/1 39/35/1 40/36/1
f 41/37/1 42/38/1 43/39/1 44/40/1
f 45/1/1 46/2/1 47/3/1 48/4/1
f 49/41/1 50/42/1 51/43/1 52/44/1
f 53/45/1 54/46/1 55/47/1 56/48/1
f 57/41/1 58/42/1 59/43/1 60/44/1
f 61/45/1 62/46/1 63/47/1 64/48/1
f 65/49/1 66/50/1 67/51/1 68/52/1
f 69/53/1 70/54/1 71/55/1 72/56/1
f 73/57/1 74/58/1 75/59/1 76/60/1
f 77/61/1 78/62/1 79/63/1 80/64/1
f 81/65/1 82/66/1 83/67/1 84/68/1
f 85/69/1 86/70/1 87/71/1 88/72/1
f 89/37/1 90/38/1 91/39/1 92/40/1
f 93/73/1 94/74/1 95/75/1 96/76/1
f 97/77/1 98/78/1 99/79/1 100/80/1
f 101/81/1 102/82/1 103/83/1 104/84/1
f 105/85/1 106/86/1 107/87/1 108/88/1
f 109/9/1 110/10/1 111/11/1 112/12/1

