# Tiled2Unity generated file. Do not modify by hand.
# Wavefront file for 'mount-olympus_mesh_0017.obj'

# Vertices (Count = 396)
v -640 -480 0
v -656 -480 0
v -656 -464 0
v -640 -464 0
v -624 -480 0
v -640 -480 0
v -640 -464 0
v -624 -464 0
v -608 -480 0
v -624 -480 0
v -624 -464 0
v -608 -464 0
v -592 -480 0
v -608 -480 0
v -608 -464 0
v -592 -464 0
v -576 -480 0
v -592 -480 0
v -592 -464 0
v -576 -464 0
v -640 -496 0
v -656 -496 0
v -656 -480 0
v -640 -480 0
v -624 -496 0
v -640 -496 0
v -640 -480 0
v -624 -480 0
v -608 -496 0
v -624 -496 0
v -624 -480 0
v -608 -480 0
v -592 -496 0
v -608 -496 0
v -608 -480 0
v -592 -480 0
v -576 -496 0
v -592 -496 0
v -592 -480 0
v -576 -480 0
v -640 -512 0
v -656 -512 0
v -656 -496 0
v -640 -496 0
v -624 -512 0
v -640 -512 0
v -640 -496 0
v -624 -496 0
v -608 -512 0
v -624 -512 0
v -624 -496 0
v -608 -496 0
v -592 -512 0
v -608 -512 0
v -608 -496 0
v -592 -496 0
v -576 -512 0
v -592 -512 0
v -592 -496 0
v -576 -496 0
v -640 -528 0
v -656 -528 0
v -656 -512 0
v -640 -512 0
v -624 -528 0
v -640 -528 0
v -640 -512 0
v -624 -512 0
v -608 -528 0
v -624 -528 0
v -624 -512 0
v -608 -512 0
v -592 -528 0
v -608 -528 0
v -608 -512 0
v -592 -512 0
v -576 -528 0
v -592 -528 0
v -592 -512 0
v -576 -512 0
v -656 -544 0
v -672 -544 0
v -672 -528 0
v -656 -528 0
v -560 -544 0
v -576 -544 0
v -576 -528 0
v -560 -528 0
v -656 -560 0
v -672 -560 0
v -672 -544 0
v -656 -544 0
v -560 -560 0
v -576 -560 0
v -576 -544 0
v -560 -544 0
v -640 -576 0
v -656 -576 0
v -656 -560 0
v -640 -560 0
v -624 -576 0
v -640 -576 0
v -640 -560 0
v -624 -560 0
v -608 -576 0
v -624 -576 0
v -624 -560 0
v -608 -560 0
v -592 -576 0
v -608 -576 0
v -608 -560 0
v -592 -560 0
v -576 -576 0
v -592 -576 0
v -592 -560 0
v -576 -560 0
v -640 -592 0
v -656 -592 0
v -656 -576 0
v -640 -576 0
v -624 -592 0
v -640 -592 0
v -640 -576 0
v -624 -576 0
v -608 -592 0
v -624 -592 0
v -624 -576 0
v -608 -576 0
v -592 -592 0
v -608 -592 0
v -608 -576 0
v -592 -576 0
v -576 -592 0
v -592 -592 0
v -592 -576 0
v -576 -576 0
v -640 -608 0
v -656 -608 0
v -656 -592 0
v -640 -592 0
v -624 -608 0
v -640 -608 0
v -640 -592 0
v -624 -592 0
v -608 -608 0
v -624 -608 0
v -624 -592 0
v -608 -592 0
v -592 -608 0
v -608 -608 0
v -608 -592 0
v -592 -592 0
v -576 -608 0
v -592 -608 0
v -592 -592 0
v -576 -592 0
v -640 -624 0
v -656 -624 0
v -656 -608 0
v -640 -608 0
v -624 -624 0
v -640 -624 0
v -640 -608 0
v -624 -608 0
v -608 -624 0
v -624 -624 0
v -624 -608 0
v -608 -608 0
v -592 -624 0
v -608 -624 0
v -608 -608 0
v -592 -608 0
v -576 -624 0
v -592 -624 0
v -592 -608 0
v -576 -608 0
v -640 -640 0
v -656 -640 0
v -656 -624 0
v -640 -624 0
v -624 -640 0
v -640 -640 0
v -640 -624 0
v -624 -624 0
v -608 -640 0
v -624 -640 0
v -624 -624 0
v -608 -624 0
v -592 -640 0
v -608 -640 0
v -608 -624 0
v -592 -624 0
v -576 -640 0
v -592 -640 0
v -592 -624 0
v -576 -624 0
v -640 -656 0
v -656 -656 0
v -656 -640 0
v -640 -640 0
v -624 -656 0
v -640 -656 0
v -640 -640 0
v -624 -640 0
v -608 -656 0
v -624 -656 0
v -624 -640 0
v -608 -640 0
v -592 -656 0
v -608 -656 0
v -608 -640 0
v -592 -640 0
v -576 -656 0
v -592 -656 0
v -592 -640 0
v -576 -640 0
v -640 -672 0
v -656 -672 0
v -656 -656 0
v -640 -656 0
v -624 -672 0
v -640 -672 0
v -640 -656 0
v -624 -656 0
v -608 -672 0
v -624 -672 0
v -624 -656 0
v -608 -656 0
v -592 -672 0
v -608 -672 0
v -608 -656 0
v -592 -656 0
v -576 -672 0
v -592 -672 0
v -592 -656 0
v -576 -656 0
v -640 -688 0
v -656 -688 0
v -656 -672 0
v -640 -672 0
v -624 -688 0
v -640 -688 0
v -640 -672 0
v -624 -672 0
v -608 -688 0
v -624 -688 0
v -624 -672 0
v -608 -672 0
v -592 -688 0
v -608 -688 0
v -608 -672 0
v -592 -672 0
v -576 -688 0
v -592 -688 0
v -592 -672 0
v -576 -672 0
v -640 -704 0
v -656 -704 0
v -656 -688 0
v -640 -688 0
v -624 -704 0
v -640 -704 0
v -640 -688 0
v -624 -688 0
v -608 -704 0
v -624 -704 0
v -624 -688 0
v -608 -688 0
v -592 -704 0
v -608 -704 0
v -608 -688 0
v -592 -688 0
v -576 -704 0
v -592 -704 0
v -592 -688 0
v -576 -688 0
v -640 -720 0
v -656 -720 0
v -656 -704 0
v -640 -704 0
v -624 -720 0
v -640 -720 0
v -640 -704 0
v -624 -704 0
v -608 -720 0
v -624 -720 0
v -624 -704 0
v -608 -704 0
v -592 -720 0
v -608 -720 0
v -608 -704 0
v -592 -704 0
v -576 -720 0
v -592 -720 0
v -592 -704 0
v -576 -704 0
v -640 -736 0
v -656 -736 0
v -656 -720 0
v -640 -720 0
v -624 -736 0
v -640 -736 0
v -640 -720 0
v -624 -720 0
v -608 -736 0
v -624 -736 0
v -624 -720 0
v -608 -720 0
v -592 -736 0
v -608 -736 0
v -608 -720 0
v -592 -720 0
v -576 -736 0
v -592 -736 0
v -592 -720 0
v -576 -720 0
v -928 -816 0
v -944 -816 0
v -944 -800 0
v -928 -800 0
v -864 -816 0
v -880 -816 0
v -880 -800 0
v -864 -800 0
v -800 -816 0
v -816 -816 0
v -816 -800 0
v -800 -800 0
v -768 -816 0
v -784 -816 0
v -784 -800 0
v -768 -800 0
v -496 -816 0
v -512 -816 0
v -512 -800 0
v -496 -800 0
v -352 -816 0
v -368 -816 0
v -368 -800 0
v -352 -800 0
v -320 -816 0
v -336 -816 0
v -336 -800 0
v -320 -800 0
v -736 -832 0
v -752 -832 0
v -752 -816 0
v -736 -816 0
v -400 -832 0
v -416 -832 0
v -416 -816 0
v -400 -816 0
v -880 -848 0
v -896 -848 0
v -896 -832 0
v -880 -832 0
v -336 -864 0
v -352 -864 0
v -352 -848 0
v -336 -848 0
v -272 -864 0
v -288 -864 0
v -288 -848 0
v -272 -848 0
v -960 -880 0
v -976 -880 0
v -976 -864 0
v -960 -864 0
v -832 -880 0
v -848 -880 0
v -848 -864 0
v -832 -864 0
v -864 -896 0
v -880 -896 0
v -880 -880 0
v -864 -880 0
v -976 -912 0
v -992 -912 0
v -992 -896 0
v -976 -896 0
v -960 -912 0
v -976 -912 0
v -976 -896 0
v -960 -896 0
v -336 -912 0
v -352 -912 0
v -352 -896 0
v -336 -896 0
v -272 -912 0
v -288 -912 0
v -288 -896 0
v -272 -896 0
v -224 -912 0
v -240 -912 0
v -240 -896 0
v -224 -896 0

# Texture cooridinates (Count = 72)
vt 0.2107438 0.3555133
vt 0.2272727 0.3555133
vt 0.2272727 0.3859316
vt 0.2107438 0.3859316
vt 0.1931818 0.3555133
vt 0.2097107 0.3555133
vt 0.2097107 0.3859316
vt 0.1931818 0.3859316
vt 0.1756198 0.3555133
vt 0.1921488 0.3555133
vt 0.1921488 0.3859316
vt 0.1756198 0.3859316
vt 0.2107438 0.3231939
vt 0.2272727 0.3231939
vt 0.2272727 0.3536122
vt 0.2107438 0.3536122
vt 0.1931818 0.3231939
vt 0.2097107 0.3231939
vt 0.2097107 0.3536122
vt 0.1931818 0.3536122
vt 0.1756198 0.3231939
vt 0.1921488 0.3231939
vt 0.1921488 0.3536122
vt 0.1756198 0.3536122
vt 0.8780992 0.6463878
vt 0.8946281 0.6463878
vt 0.8946281 0.6768061
vt 0.8780992 0.6768061
vt 0.8780992 0.6140684
vt 0.8946281 0.6140684
vt 0.8946281 0.6444867
vt 0.8780992 0.6444867
vt 0.2107438 0.2908745
vt 0.2272727 0.2908745
vt 0.2272727 0.3212928
vt 0.2107438 0.3212928
vt 0.1931818 0.2908745
vt 0.2097107 0.2908745
vt 0.2097107 0.3212928
vt 0.1931818 0.3212928
vt 0.1756198 0.2908745
vt 0.1921488 0.2908745
vt 0.1921488 0.3212928
vt 0.1756198 0.3212928
vt 0.3336777 0.6787072
vt 0.3502066 0.6787072
vt 0.3502066 0.7091255
vt 0.3336777 0.7091255
vt 0.5092975 0.6787072
vt 0.5258265 0.6787072
vt 0.5258265 0.7091255
vt 0.5092975 0.7091255
vt 0.3863636 0.6463878
vt 0.4028926 0.6463878
vt 0.4028926 0.6768061
vt 0.3863636 0.6768061
vt 0.4917355 0.6787072
vt 0.5082645 0.6787072
vt 0.5082645 0.7091255
vt 0.4917355 0.7091255
vt 0.5268595 0.6787072
vt 0.5433884 0.6787072
vt 0.5433884 0.7091255
vt 0.5268595 0.7091255
vt 0.5444215 0.6787072
vt 0.5609504 0.6787072
vt 0.5609504 0.7091255
vt 0.5444215 0.7091255
vt 0.3863636 0.6140684
vt 0.4028926 0.6140684
vt 0.4028926 0.6444867
vt 0.3863636 0.6444867

# Normal
vn 0 0 -1

# Mesh description
g mount-olympus_mesh_0017

# Faces
f 1/1/1 2/2/1 3/3/1 4/4/1
f 5/5/1 6/6/1 7/7/1 8/8/1
f 9/5/1 10/6/1 11/7/1 12/8/1
f 13/5/1 14/6/1 15/7/1 16/8/1
f 17/9/1 18/10/1 19/11/1 20/12/1
f 21/13/1 22/14/1 23/15/1 24/16/1
f 25/17/1 26/18/1 27/19/1 28/20/1
f 29/17/1 30/18/1 31/19/1 32/20/1
f 33/17/1 34/18/1 35/19/1 36/20/1
f 37/21/1 38/22/1 39/23/1 40/24/1
f 41/13/1 42/14/1 43/15/1 44/16/1
f 45/17/1 46/18/1 47/19/1 48/20/1
f 49/17/1 50/18/1 51/19/1 52/20/1
f 53/17/1 54/18/1 55/19/1 56/20/1
f 57/21/1 58/22/1 59/23/1 60/24/1
f 61/13/1 62/14/1 63/15/1 64/16/1
f 65/17/1 66/18/1 67/19/1 68/20/1
f 69/17/1 70/18/1 71/19/1 72/20/1
f 73/17/1 74/18/1 75/19/1 76/20/1
f 77/21/1 78/22/1 79/23/1 80/24/1
f 81/25/1 82/26/1 83/27/1 84/28/1
f 85/25/1 86/26/1 87/27/1 88/28/1
f 89/29/1 90/30/1 91/31/1 92/32/1
f 93/29/1 94/30/1 95/31/1 96/32/1
f 97/13/1 98/14/1 99/15/1 100/16/1
f 101/17/1 102/18/1 103/19/1 104/20/1
f 105/17/1 106/18/1 107/19/1 108/20/1
f 109/17/1 110/18/1 111/19/1 112/20/1
f 113/21/1 114/22/1 115/23/1 116/24/1
f 117/13/1 118/14/1 119/15/1 120/16/1
f 121/17/1 122/18/1 123/19/1 124/20/1
f 125/17/1 126/18/1 127/19/1 128/20/1
f 129/17/1 130/18/1 131/19/1 132/20/1
f 133/21/1 134/22/1 135/23/1 136/24/1
f 137/13/1 138/14/1 139/15/1 140/16/1
f 141/17/1 142/18/1 143/19/1 144/20/1
f 145/17/1 146/18/1 147/19/1 148/20/1
f 149/17/1 150/18/1 151/19/1 152/20/1
f 153/21/1 154/22/1 155/23/1 156/24/1
f 157/13/1 158/14/1 159/15/1 160/16/1
f 161/17/1 162/18/1 163/19/1 164/20/1
f 165/17/1 166/18/1 167/19/1 168/20/1
f 169/17/1 170/18/1 171/19/1 172/20/1
f 173/21/1 174/22/1 175/23/1 176/24/1
f 177/13/1 178/14/1 179/15/1 180/16/1
f 181/17/1 182/18/1 183/19/1 184/20/1
f 185/17/1 186/18/1 187/19/1 188/20/1
f 189/17/1 190/18/1 191/19/1 192/20/1
f 193/21/1 194/22/1 195/23/1 196/24/1
f 197/13/1 198/14/1 199/15/1 200/16/1
f 201/17/1 202/18/1 203/19/1 204/20/1
f 205/17/1 206/18/1 207/19/1 208/20/1
f 209/17/1 210/18/1 211/19/1 212/20/1
f 213/21/1 214/22/1 215/23/1 216/24/1
f 217/13/1 218/14/1 219/15/1 220/16/1
f 221/17/1 222/18/1 223/19/1 224/20/1
f 225/17/1 226/18/1 227/19/1 228/20/1
f 229/17/1 230/18/1 231/19/1 232/20/1
f 233/21/1 234/22/1 235/23/1 236/24/1
f 237/13/1 238/14/1 239/15/1 240/16/1
f 241/17/1 242/18/1 243/19/1 244/20/1
f 245/17/1 246/18/1 247/19/1 248/20/1
f 249/17/1 250/18/1 251/19/1 252/20/1
f 253/21/1 254/22/1 255/23/1 256/24/1
f 257/13/1 258/14/1 259/15/1 260/16/1
f 261/17/1 262/18/1 263/19/1 264/20/1
f 265/17/1 266/18/1 267/19/1 268/20/1
f 269/17/1 270/18/1 271/19/1 272/20/1
f 273/21/1 274/22/1 275/23/1 276/24/1
f 277/13/1 278/14/1 279/15/1 280/16/1
f 281/17/1 282/18/1 283/19/1 284/20/1
f 285/17/1 286/18/1 287/19/1 288/20/1
f 289/17/1 290/18/1 291/19/1 292/20/1
f 293/21/1 294/22/1 295/23/1 296/24/1
f 297/33/1 298/34/1 299/35/1 300/36/1
f 301/37/1 302/38/1 303/39/1 304/40/1
f 305/37/1 306/38/1 307/39/1 308/40/1
f 309/37/1 310/38/1 311/39/1 312/40/1
f 313/41/1 314/42/1 315/43/1 316/44/1
f 317/45/1 318/46/1 319/47/1 320/48/1
f 321/45/1 322/46/1 323/47/1 324/48/1
f 325/49/1 326/50/1 327/51/1 328/52/1
f 329/53/1 330/54/1 331/55/1 332/56/1
f 333/57/1 334/58/1 335/59/1 336/60/1
f 337/45/1 338/46/1 339/47/1 340/48/1
f 341/53/1 342/54/1 343/55/1 344/56/1
f 345/57/1 346/58/1 347/59/1 348/60/1
f 349/61/1 350/62/1 351/63/1 352/64/1
f 353/65/1 354/66/1 355/67/1 356/68/1
f 357/61/1 358/62/1 359/63/1 360/64/1
f 361/49/1 362/50/1 363/51/1 364/52/1
f 365/53/1 366/54/1 367/55/1 368/56/1
f 369/53/1 370/54/1 371/55/1 372/56/1
f 373/61/1 374/62/1 375/63/1 376/64/1
f 377/45/1 378/46/1 379/47/1 380/48/1
f 381/49/1 382/50/1 383/51/1 384/52/1
f 385/57/1 386/58/1 387/59/1 388/60/1
f 389/69/1 390/70/1 391/71/1 392/72/1
f 393/45/1 394/46/1 395/47/1 396/48/1

