# Tiled2Unity generated file. Do not modify by hand.
# Wavefront file for 'mount-olympus_mesh_0004.obj'

# Vertices (Count = 756)
v -848 -400 0
v -864 -400 0
v -864 -384 0
v -848 -384 0
v -832 -400 0
v -848 -400 0
v -848 -384 0
v -832 -384 0
v -816 -400 0
v -832 -400 0
v -832 -384 0
v -816 -384 0
v -800 -400 0
v -816 -400 0
v -816 -384 0
v -800 -384 0
v -784 -400 0
v -800 -400 0
v -800 -384 0
v -784 -384 0
v -768 -400 0
v -784 -400 0
v -784 -384 0
v -768 -384 0
v -752 -400 0
v -768 -400 0
v -768 -384 0
v -752 -384 0
v -736 -400 0
v -752 -400 0
v -752 -384 0
v -736 -384 0
v -720 -400 0
v -736 -400 0
v -736 -384 0
v -720 -384 0
v -704 -400 0
v -720 -400 0
v -720 -384 0
v -704 -384 0
v -688 -400 0
v -704 -400 0
v -704 -384 0
v -688 -384 0
v -672 -400 0
v -688 -400 0
v -688 -384 0
v -672 -384 0
v -656 -400 0
v -672 -400 0
v -672 -384 0
v -656 -384 0
v -640 -400 0
v -656 -400 0
v -656 -384 0
v -640 -384 0
v -624 -400 0
v -640 -400 0
v -640 -384 0
v -624 -384 0
v -608 -400 0
v -624 -400 0
v -624 -384 0
v -608 -384 0
v -592 -400 0
v -608 -400 0
v -608 -384 0
v -592 -384 0
v -576 -400 0
v -592 -400 0
v -592 -384 0
v -576 -384 0
v -560 -400 0
v -576 -400 0
v -576 -384 0
v -560 -384 0
v -544 -400 0
v -560 -400 0
v -560 -384 0
v -544 -384 0
v -528 -400 0
v -544 -400 0
v -544 -384 0
v -528 -384 0
v -512 -400 0
v -528 -400 0
v -528 -384 0
v -512 -384 0
v -496 -400 0
v -512 -400 0
v -512 -384 0
v -496 -384 0
v -480 -400 0
v -496 -400 0
v -496 -384 0
v -480 -384 0
v -464 -400 0
v -480 -400 0
v -480 -384 0
v -464 -384 0
v -448 -400 0
v -464 -400 0
v -464 -384 0
v -448 -384 0
v -432 -400 0
v -448 -400 0
v -448 -384 0
v -432 -384 0
v -416 -400 0
v -432 -400 0
v -432 -384 0
v -416 -384 0
v -400 -400 0
v -416 -400 0
v -416 -384 0
v -400 -384 0
v -384 -400 0
v -400 -400 0
v -400 -384 0
v -384 -384 0
v -368 -400 0
v -384 -400 0
v -384 -384 0
v -368 -384 0
v -848 -416 0
v -864 -416 0
v -864 -400 0
v -848 -400 0
v -832 -416 0
v -848 -416 0
v -848 -400 0
v -832 -400 0
v -816 -416 0
v -832 -416 0
v -832 -400 0
v -816 -400 0
v -800 -416 0
v -816 -416 0
v -816 -400 0
v -800 -400 0
v -784 -416 0
v -800 -416 0
v -800 -400 0
v -784 -400 0
v -768 -416 0
v -784 -416 0
v -784 -400 0
v -768 -400 0
v -752 -416 0
v -768 -416 0
v -768 -400 0
v -752 -400 0
v -736 -416 0
v -752 -416 0
v -752 -400 0
v -736 -400 0
v -720 -416 0
v -736 -416 0
v -736 -400 0
v -720 -400 0
v -704 -416 0
v -720 -416 0
v -720 -400 0
v -704 -400 0
v -688 -416 0
v -704 -416 0
v -704 -400 0
v -688 -400 0
v -672 -416 0
v -688 -416 0
v -688 -400 0
v -672 -400 0
v -656 -416 0
v -672 -416 0
v -672 -400 0
v -656 -400 0
v -640 -416 0
v -656 -416 0
v -656 -400 0
v -640 -400 0
v -624 -416 0
v -640 -416 0
v -640 -400 0
v -624 -400 0
v -608 -416 0
v -624 -416 0
v -624 -400 0
v -608 -400 0
v -592 -416 0
v -608 -416 0
v -608 -400 0
v -592 -400 0
v -576 -416 0
v -592 -416 0
v -592 -400 0
v -576 -400 0
v -560 -416 0
v -576 -416 0
v -576 -400 0
v -560 -400 0
v -544 -416 0
v -560 -416 0
v -560 -400 0
v -544 -400 0
v -528 -416 0
v -544 -416 0
v -544 -400 0
v -528 -400 0
v -512 -416 0
v -528 -416 0
v -528 -400 0
v -512 -400 0
v -496 -416 0
v -512 -416 0
v -512 -400 0
v -496 -400 0
v -480 -416 0
v -496 -416 0
v -496 -400 0
v -480 -400 0
v -464 -416 0
v -480 -416 0
v -480 -400 0
v -464 -400 0
v -448 -416 0
v -464 -416 0
v -464 -400 0
v -448 -400 0
v -432 -416 0
v -448 -416 0
v -448 -400 0
v -432 -400 0
v -416 -416 0
v -432 -416 0
v -432 -400 0
v -416 -400 0
v -400 -416 0
v -416 -416 0
v -416 -400 0
v -400 -400 0
v -384 -416 0
v -400 -416 0
v -400 -400 0
v -384 -400 0
v -368 -416 0
v -384 -416 0
v -384 -400 0
v -368 -400 0
v -848 -432 0
v -864 -432 0
v -864 -416 0
v -848 -416 0
v -832 -432 0
v -848 -432 0
v -848 -416 0
v -832 -416 0
v -816 -432 0
v -832 -432 0
v -832 -416 0
v -816 -416 0
v -800 -432 0
v -816 -432 0
v -816 -416 0
v -800 -416 0
v -784 -432 0
v -800 -432 0
v -800 -416 0
v -784 -416 0
v -768 -432 0
v -784 -432 0
v -784 -416 0
v -768 -416 0
v -752 -432 0
v -768 -432 0
v -768 -416 0
v -752 -416 0
v -736 -432 0
v -752 -432 0
v -752 -416 0
v -736 -416 0
v -720 -432 0
v -736 -432 0
v -736 -416 0
v -720 -416 0
v -704 -432 0
v -720 -432 0
v -720 -416 0
v -704 -416 0
v -688 -432 0
v -704 -432 0
v -704 -416 0
v -688 -416 0
v -672 -432 0
v -688 -432 0
v -688 -416 0
v -672 -416 0
v -656 -432 0
v -672 -432 0
v -672 -416 0
v -656 -416 0
v -640 -432 0
v -656 -432 0
v -656 -416 0
v -640 -416 0
v -624 -432 0
v -640 -432 0
v -640 -416 0
v -624 -416 0
v -608 -432 0
v -624 -432 0
v -624 -416 0
v -608 -416 0
v -592 -432 0
v -608 -432 0
v -608 -416 0
v -592 -416 0
v -576 -432 0
v -592 -432 0
v -592 -416 0
v -576 -416 0
v -560 -432 0
v -576 -432 0
v -576 -416 0
v -560 -416 0
v -544 -432 0
v -560 -432 0
v -560 -416 0
v -544 -416 0
v -528 -432 0
v -544 -432 0
v -544 -416 0
v -528 -416 0
v -512 -432 0
v -528 -432 0
v -528 -416 0
v -512 -416 0
v -496 -432 0
v -512 -432 0
v -512 -416 0
v -496 -416 0
v -480 -432 0
v -496 -432 0
v -496 -416 0
v -480 -416 0
v -464 -432 0
v -480 -432 0
v -480 -416 0
v -464 -416 0
v -448 -432 0
v -464 -432 0
v -464 -416 0
v -448 -416 0
v -432 -432 0
v -448 -432 0
v -448 -416 0
v -432 -416 0
v -416 -432 0
v -432 -432 0
v -432 -416 0
v -416 -416 0
v -400 -432 0
v -416 -432 0
v -416 -416 0
v -400 -416 0
v -384 -432 0
v -400 -432 0
v -400 -416 0
v -384 -416 0
v -368 -432 0
v -384 -432 0
v -384 -416 0
v -368 -416 0
v -848 -448 0
v -864 -448 0
v -864 -432 0
v -848 -432 0
v -832 -448 0
v -848 -448 0
v -848 -432 0
v -832 -432 0
v -816 -448 0
v -832 -448 0
v -832 -432 0
v -816 -432 0
v -800 -448 0
v -816 -448 0
v -816 -432 0
v -800 -432 0
v -784 -448 0
v -800 -448 0
v -800 -432 0
v -784 -432 0
v -768 -448 0
v -784 -448 0
v -784 -432 0
v -768 -432 0
v -752 -448 0
v -768 -448 0
v -768 -432 0
v -752 -432 0
v -736 -448 0
v -752 -448 0
v -752 -432 0
v -736 -432 0
v -720 -448 0
v -736 -448 0
v -736 -432 0
v -720 -432 0
v -704 -448 0
v -720 -448 0
v -720 -432 0
v -704 -432 0
v -688 -448 0
v -704 -448 0
v -704 -432 0
v -688 -432 0
v -672 -448 0
v -688 -448 0
v -688 -432 0
v -672 -432 0
v -656 -448 0
v -672 -448 0
v -672 -432 0
v -656 -432 0
v -640 -448 0
v -656 -448 0
v -656 -432 0
v -640 -432 0
v -624 -448 0
v -640 -448 0
v -640 -432 0
v -624 -432 0
v -608 -448 0
v -624 -448 0
v -624 -432 0
v -608 -432 0
v -592 -448 0
v -608 -448 0
v -608 -432 0
v -592 -432 0
v -576 -448 0
v -592 -448 0
v -592 -432 0
v -576 -432 0
v -560 -448 0
v -576 -448 0
v -576 -432 0
v -560 -432 0
v -544 -448 0
v -560 -448 0
v -560 -432 0
v -544 -432 0
v -528 -448 0
v -544 -448 0
v -544 -432 0
v -528 -432 0
v -512 -448 0
v -528 -448 0
v -528 -432 0
v -512 -432 0
v -496 -448 0
v -512 -448 0
v -512 -432 0
v -496 -432 0
v -480 -448 0
v -496 -448 0
v -496 -432 0
v -480 -432 0
v -464 -448 0
v -480 -448 0
v -480 -432 0
v -464 -432 0
v -448 -448 0
v -464 -448 0
v -464 -432 0
v -448 -432 0
v -432 -448 0
v -448 -448 0
v -448 -432 0
v -432 -432 0
v -416 -448 0
v -432 -448 0
v -432 -432 0
v -416 -432 0
v -400 -448 0
v -416 -448 0
v -416 -432 0
v -400 -432 0
v -384 -448 0
v -400 -448 0
v -400 -432 0
v -384 -432 0
v -368 -448 0
v -384 -448 0
v -384 -432 0
v -368 -432 0
v -848 -464 0
v -864 -464 0
v -864 -448 0
v -848 -448 0
v -832 -464 0
v -848 -464 0
v -848 -448 0
v -832 -448 0
v -816 -464 0
v -832 -464 0
v -832 -448 0
v -816 -448 0
v -800 -464 0
v -816 -464 0
v -816 -448 0
v -800 -448 0
v -784 -464 0
v -800 -464 0
v -800 -448 0
v -784 -448 0
v -768 -464 0
v -784 -464 0
v -784 -448 0
v -768 -448 0
v -752 -464 0
v -768 -464 0
v -768 -448 0
v -752 -448 0
v -736 -464 0
v -752 -464 0
v -752 -448 0
v -736 -448 0
v -720 -464 0
v -736 -464 0
v -736 -448 0
v -720 -448 0
v -704 -464 0
v -720 -464 0
v -720 -448 0
v -704 -448 0
v -688 -464 0
v -704 -464 0
v -704 -448 0
v -688 -448 0
v -672 -464 0
v -688 -464 0
v -688 -448 0
v -672 -448 0
v -656 -464 0
v -672 -464 0
v -672 -448 0
v -656 -448 0
v -640 -464 0
v -656 -464 0
v -656 -448 0
v -640 -448 0
v -624 -464 0
v -640 -464 0
v -640 -448 0
v -624 -448 0
v -608 -464 0
v -624 -464 0
v -624 -448 0
v -608 -448 0
v -592 -464 0
v -608 -464 0
v -608 -448 0
v -592 -448 0
v -576 -464 0
v -592 -464 0
v -592 -448 0
v -576 -448 0
v -560 -464 0
v -576 -464 0
v -576 -448 0
v -560 -448 0
v -544 -464 0
v -560 -464 0
v -560 -448 0
v -544 -448 0
v -528 -464 0
v -544 -464 0
v -544 -448 0
v -528 -448 0
v -512 -464 0
v -528 -464 0
v -528 -448 0
v -512 -448 0
v -496 -464 0
v -512 -464 0
v -512 -448 0
v -496 -448 0
v -480 -464 0
v -496 -464 0
v -496 -448 0
v -480 -448 0
v -464 -464 0
v -480 -464 0
v -480 -448 0
v -464 -448 0
v -448 -464 0
v -464 -464 0
v -464 -448 0
v -448 -448 0
v -432 -464 0
v -448 -464 0
v -448 -448 0
v -432 -448 0
v -416 -464 0
v -432 -464 0
v -432 -448 0
v -416 -448 0
v -400 -464 0
v -416 -464 0
v -416 -448 0
v -400 -448 0
v -384 -464 0
v -400 -464 0
v -400 -448 0
v -384 -448 0
v -368 -464 0
v -384 -464 0
v -384 -448 0
v -368 -448 0
v -848 -480 0
v -864 -480 0
v -864 -464 0
v -848 -464 0
v -368 -480 0
v -384 -480 0
v -384 -464 0
v -368 -464 0
v -848 -496 0
v -864 -496 0
v -864 -480 0
v -848 -480 0
v -368 -496 0
v -384 -496 0
v -384 -480 0
v -368 -480 0
v -848 -512 0
v -864 -512 0
v -864 -496 0
v -848 -496 0
v -368 -512 0
v -384 -512 0
v -384 -496 0
v -368 -496 0
v -848 -528 0
v -864 -528 0
v -864 -512 0
v -848 -512 0
v -368 -528 0
v -384 -528 0
v -384 -512 0
v -368 -512 0
v -848 -544 0
v -864 -544 0
v -864 -528 0
v -848 -528 0
v -368 -544 0
v -384 -544 0
v -384 -528 0
v -368 -528 0
v -848 -560 0
v -864 -560 0
v -864 -544 0
v -848 -544 0
v -368 -560 0
v -384 -560 0
v -384 -544 0
v -368 -544 0
v -848 -576 0
v -864 -576 0
v -864 -560 0
v -848 -560 0
v -368 -576 0
v -384 -576 0
v -384 -560 0
v -368 -560 0
v -848 -592 0
v -864 -592 0
v -864 -576 0
v -848 -576 0
v -368 -592 0
v -384 -592 0
v -384 -576 0
v -368 -576 0
v -848 -608 0
v -864 -608 0
v -864 -592 0
v -848 -592 0
v -368 -608 0
v -384 -608 0
v -384 -592 0
v -368 -592 0
v -848 -624 0
v -864 -624 0
v -864 -608 0
v -848 -608 0
v -368 -624 0
v -384 -624 0
v -384 -608 0
v -368 -608 0
v -848 -640 0
v -864 -640 0
v -864 -624 0
v -848 -624 0
v -368 -640 0
v -384 -640 0
v -384 -624 0
v -368 -624 0
v -848 -656 0
v -864 -656 0
v -864 -640 0
v -848 -640 0
v -368 -656 0
v -384 -656 0
v -384 -640 0
v -368 -640 0
v -848 -672 0
v -864 -672 0
v -864 -656 0
v -848 -656 0
v -368 -672 0
v -384 -672 0
v -384 -656 0
v -368 -656 0
v -848 -688 0
v -864 -688 0
v -864 -672 0
v -848 -672 0
v -368 -688 0
v -384 -688 0
v -384 -672 0
v -368 -672 0
v -848 -704 0
v -864 -704 0
v -864 -688 0
v -848 -688 0
v -368 -704 0
v -384 -704 0
v -384 -688 0
v -368 -688 0
v -848 -720 0
v -864 -720 0
v -864 -704 0
v -848 -704 0
v -368 -720 0
v -384 -720 0
v -384 -704 0
v -368 -704 0
v -848 -736 0
v -864 -736 0
v -864 -720 0
v -848 -720 0
v -368 -736 0
v -384 -736 0
v -384 -720 0
v -368 -720 0

# Texture cooridinates (Count = 44)
vt 0.4214876 0.5817491
vt 0.4380165 0.5817491
vt 0.4380165 0.6121673
vt 0.4214876 0.6121673
vt 0.3688017 0.5817491
vt 0.3853306 0.5817491
vt 0.3853306 0.6121673
vt 0.3688017 0.6121673
vt 0.4039256 0.5817491
vt 0.4204545 0.5817491
vt 0.4204545 0.6121673
vt 0.4039256 0.6121673
vt 0.3863636 0.5494297
vt 0.4028926 0.5494297
vt 0.4028926 0.5798479
vt 0.3863636 0.5798479
vt 0.4566116 0.4847909
vt 0.4731405 0.4847909
vt 0.4731405 0.5152091
vt 0.4566116 0.5152091
vt 0.4390496 0.4847909
vt 0.4555785 0.4847909
vt 0.4555785 0.5152091
vt 0.4390496 0.5152091
vt 0.4214876 0.4847909
vt 0.4380165 0.4847909
vt 0.4380165 0.5152091
vt 0.4214876 0.5152091
vt 0.4039256 0.4847909
vt 0.4204545 0.4847909
vt 0.4204545 0.5152091
vt 0.4039256 0.5152091
vt 0.3512397 0.4847909
vt 0.3677686 0.4847909
vt 0.3677686 0.5152091
vt 0.3512397 0.5152091
vt 0.3688017 0.4847909
vt 0.3853306 0.4847909
vt 0.3853306 0.5152091
vt 0.3688017 0.5152091
vt 0.3512397 0.5171102
vt 0.3677686 0.5171102
vt 0.3677686 0.5475285
vt 0.3512397 0.5475285

# Normal
vn 0 0 -1

# Mesh description
g mount-olympus_mesh_0004

# Faces
f 1/1/1 2/2/1 3/3/1 4/4/1
f 5/5/1 6/6/1 7/7/1 8/8/1
f 9/5/1 10/6/1 11/7/1 12/8/1
f 13/5/1 14/6/1 15/7/1 16/8/1
f 17/5/1 18/6/1 19/7/1 20/8/1
f 21/5/1 22/6/1 23/7/1 24/8/1
f 25/5/1 26/6/1 27/7/1 28/8/1
f 29/5/1 30/6/1 31/7/1 32/8/1
f 33/5/1 34/6/1 35/7/1 36/8/1
f 37/5/1 38/6/1 39/7/1 40/8/1
f 41/5/1 42/6/1 43/7/1 44/8/1
f 45/5/1 46/6/1 47/7/1 48/8/1
f 49/5/1 50/6/1 51/7/1 52/8/1
f 53/5/1 54/6/1 55/7/1 56/8/1
f 57/5/1 58/6/1 59/7/1 60/8/1
f 61/5/1 62/6/1 63/7/1 64/8/1
f 65/5/1 66/6/1 67/7/1 68/8/1
f 69/5/1 70/6/1 71/7/1 72/8/1
f 73/5/1 74/6/1 75/7/1 76/8/1
f 77/5/1 78/6/1 79/7/1 80/8/1
f 81/5/1 82/6/1 83/7/1 84/8/1
f 85/5/1 86/6/1 87/7/1 88/8/1
f 89/5/1 90/6/1 91/7/1 92/8/1
f 93/5/1 94/6/1 95/7/1 96/8/1
f 97/5/1 98/6/1 99/7/1 100/8/1
f 101/5/1 102/6/1 103/7/1 104/8/1
f 105/5/1 106/6/1 107/7/1 108/8/1
f 109/5/1 110/6/1 111/7/1 112/8/1
f 113/5/1 114/6/1 115/7/1 116/8/1
f 117/5/1 118/6/1 119/7/1 120/8/1
f 121/9/1 122/10/1 123/11/1 124/12/1
f 125/13/1 126/14/1 127/15/1 128/16/1
f 129/17/1 130/18/1 131/19/1 132/20/1
f 133/21/1 134/22/1 135/23/1 136/24/1
f 137/21/1 138/22/1 139/23/1 140/24/1
f 141/21/1 142/22/1 143/23/1 144/24/1
f 145/21/1 146/22/1 147/23/1 148/24/1
f 149/21/1 150/22/1 151/23/1 152/24/1
f 153/21/1 154/22/1 155/23/1 156/24/1
f 157/21/1 158/22/1 159/23/1 160/24/1
f 161/21/1 162/22/1 163/23/1 164/24/1
f 165/21/1 166/22/1 167/23/1 168/24/1
f 169/21/1 170/22/1 171/23/1 172/24/1
f 173/21/1 174/22/1 175/23/1 176/24/1
f 177/21/1 178/22/1 179/23/1 180/24/1
f 181/21/1 182/22/1 183/23/1 184/24/1
f 185/21/1 186/22/1 187/23/1 188/24/1
f 189/21/1 190/22/1 191/23/1 192/24/1
f 193/21/1 194/22/1 195/23/1 196/24/1
f 197/21/1 198/22/1 199/23/1 200/24/1
f 201/21/1 202/22/1 203/23/1 204/24/1
f 205/21/1 206/22/1 207/23/1 208/24/1
f 209/21/1 210/22/1 211/23/1 212/24/1
f 213/21/1 214/22/1 215/23/1 216/24/1
f 217/21/1 218/22/1 219/23/1 220/24/1
f 221/21/1 222/22/1 223/23/1 224/24/1
f 225/21/1 226/22/1 227/23/1 228/24/1
f 229/21/1 230/22/1 231/23/1 232/24/1
f 233/21/1 234/22/1 235/23/1 236/24/1
f 237/21/1 238/22/1 239/23/1 240/24/1
f 241/25/1 242/26/1 243/27/1 244/28/1
f 245/13/1 246/14/1 247/15/1 248/16/1
f 249/13/1 250/14/1 251/15/1 252/16/1
f 253/17/1 254/18/1 255/19/1 256/20/1
f 257/21/1 258/22/1 259/23/1 260/24/1
f 261/21/1 262/22/1 263/23/1 264/24/1
f 265/21/1 266/22/1 267/23/1 268/24/1
f 269/21/1 270/22/1 271/23/1 272/24/1
f 273/21/1 274/22/1 275/23/1 276/24/1
f 277/21/1 278/22/1 279/23/1 280/24/1
f 281/21/1 282/22/1 283/23/1 284/24/1
f 285/21/1 286/22/1 287/23/1 288/24/1
f 289/21/1 290/22/1 291/23/1 292/24/1
f 293/21/1 294/22/1 295/23/1 296/24/1
f 297/21/1 298/22/1 299/23/1 300/24/1
f 301/21/1 302/22/1 303/23/1 304/24/1
f 305/21/1 306/22/1 307/23/1 308/24/1
f 309/21/1 310/22/1 311/23/1 312/24/1
f 313/21/1 314/22/1 315/23/1 316/24/1
f 317/21/1 318/22/1 319/23/1 320/24/1
f 321/21/1 322/22/1 323/23/1 324/24/1
f 325/21/1 326/22/1 327/23/1 328/24/1
f 329/21/1 330/22/1 331/23/1 332/24/1
f 333/21/1 334/22/1 335/23/1 336/24/1
f 337/21/1 338/22/1 339/23/1 340/24/1
f 341/21/1 342/22/1 343/23/1 344/24/1
f 345/21/1 346/22/1 347/23/1 348/24/1
f 349/21/1 350/22/1 351/23/1 352/24/1
f 353/21/1 354/22/1 355/23/1 356/24/1
f 357/21/1 358/22/1 359/23/1 360/24/1
f 361/21/1 362/22/1 363/23/1 364/24/1
f 365/25/1 366/26/1 367/27/1 368/28/1
f 369/13/1 370/14/1 371/15/1 372/16/1
f 373/13/1 374/14/1 375/15/1 376/16/1
f 377/17/1 378/18/1 379/19/1 380/20/1
f 381/21/1 382/22/1 383/23/1 384/24/1
f 385/21/1 386/22/1 387/23/1 388/24/1
f 389/21/1 390/22/1 391/23/1 392/24/1
f 393/21/1 394/22/1 395/23/1 396/24/1
f 397/21/1 398/22/1 399/23/1 400/24/1
f 401/21/1 402/22/1 403/23/1 404/24/1
f 405/21/1 406/22/1 407/23/1 408/24/1
f 409/21/1 410/22/1 411/23/1 412/24/1
f 413/21/1 414/22/1 415/23/1 416/24/1
f 417/21/1 418/22/1 419/23/1 420/24/1
f 421/21/1 422/22/1 423/23/1 424/24/1
f 425/21/1 426/22/1 427/23/1 428/24/1
f 429/21/1 430/22/1 431/23/1 432/24/1
f 433/21/1 434/22/1 435/23/1 436/24/1
f 437/21/1 438/22/1 439/23/1 440/24/1
f 441/21/1 442/22/1 443/23/1 444/24/1
f 445/21/1 446/22/1 447/23/1 448/24/1
f 449/21/1 450/22/1 451/23/1 452/24/1
f 453/21/1 454/22/1 455/23/1 456/24/1
f 457/21/1 458/22/1 459/23/1 460/24/1
f 461/21/1 462/22/1 463/23/1 464/24/1
f 465/21/1 466/22/1 467/23/1 468/24/1
f 469/21/1 470/22/1 471/23/1 472/24/1
f 473/21/1 474/22/1 475/23/1 476/24/1
f 477/21/1 478/22/1 479/23/1 480/24/1
f 481/21/1 482/22/1 483/23/1 484/24/1
f 485/21/1 486/22/1 487/23/1 488/24/1
f 489/25/1 490/26/1 491/27/1 492/28/1
f 493/13/1 494/14/1 495/15/1 496/16/1
f 497/13/1 498/14/1 499/15/1 500/16/1
f 501/29/1 502/30/1 503/31/1 504/32/1
f 505/33/1 506/34/1 507/35/1 508/36/1
f 509/33/1 510/34/1 511/35/1 512/36/1
f 513/33/1 514/34/1 515/35/1 516/36/1
f 517/33/1 518/34/1 519/35/1 520/36/1
f 521/33/1 522/34/1 523/35/1 524/36/1
f 525/33/1 526/34/1 527/35/1 528/36/1
f 529/33/1 530/34/1 531/35/1 532/36/1
f 533/33/1 534/34/1 535/35/1 536/36/1
f 537/33/1 538/34/1 539/35/1 540/36/1
f 541/33/1 542/34/1 543/35/1 544/36/1
f 545/33/1 546/34/1 547/35/1 548/36/1
f 549/33/1 550/34/1 551/35/1 552/36/1
f 553/33/1 554/34/1 555/35/1 556/36/1
f 557/33/1 558/34/1 559/35/1 560/36/1
f 561/33/1 562/34/1 563/35/1 564/36/1
f 565/33/1 566/34/1 567/35/1 568/36/1
f 569/33/1 570/34/1 571/35/1 572/36/1
f 573/33/1 574/34/1 575/35/1 576/36/1
f 577/33/1 578/34/1 579/35/1 580/36/1
f 581/33/1 582/34/1 583/35/1 584/36/1
f 585/33/1 586/34/1 587/35/1 588/36/1
f 589/33/1 590/34/1 591/35/1 592/36/1
f 593/33/1 594/34/1 595/35/1 596/36/1
f 597/33/1 598/34/1 599/35/1 600/36/1
f 601/33/1 602/34/1 603/35/1 604/36/1
f 605/33/1 606/34/1 607/35/1 608/36/1
f 609/33/1 610/34/1 611/35/1 612/36/1
f 613/37/1 614/38/1 615/39/1 616/40/1
f 617/13/1 618/14/1 619/15/1 620/16/1
f 621/13/1 622/14/1 623/15/1 624/16/1
f 625/13/1 626/14/1 627/15/1 628/16/1
f 629/13/1 630/14/1 631/15/1 632/16/1
f 633/13/1 634/14/1 635/15/1 636/16/1
f 637/13/1 638/14/1 639/15/1 640/16/1
f 641/13/1 642/14/1 643/15/1 644/16/1
f 645/13/1 646/14/1 647/15/1 648/16/1
f 649/13/1 650/14/1 651/15/1 652/16/1
f 653/13/1 654/14/1 655/15/1 656/16/1
f 657/13/1 658/14/1 659/15/1 660/16/1
f 661/13/1 662/14/1 663/15/1 664/16/1
f 665/13/1 666/14/1 667/15/1 668/16/1
f 669/13/1 670/14/1 671/15/1 672/16/1
f 673/13/1 674/14/1 675/15/1 676/16/1
f 677/13/1 678/14/1 679/15/1 680/16/1
f 681/13/1 682/14/1 683/15/1 684/16/1
f 685/13/1 686/14/1 687/15/1 688/16/1
f 689/13/1 690/14/1 691/15/1 692/16/1
f 693/13/1 694/14/1 695/15/1 696/16/1
f 697/13/1 698/14/1 699/15/1 700/16/1
f 701/13/1 702/14/1 703/15/1 704/16/1
f 705/13/1 706/14/1 707/15/1 708/16/1
f 709/13/1 710/14/1 711/15/1 712/16/1
f 713/13/1 714/14/1 715/15/1 716/16/1
f 717/41/1 718/42/1 719/43/1 720/44/1
f 721/41/1 722/42/1 723/43/1 724/44/1
f 725/21/1 726/22/1 727/23/1 728/24/1
f 729/21/1 730/22/1 731/23/1 732/24/1
f 733/21/1 734/22/1 735/23/1 736/24/1
f 737/21/1 738/22/1 739/23/1 740/24/1
f 741/21/1 742/22/1 743/23/1 744/24/1
f 745/21/1 746/22/1 747/23/1 748/24/1
f 749/33/1 750/34/1 751/35/1 752/36/1
f 753/33/1 754/34/1 755/35/1 756/36/1

