# Tiled2Unity generated file. Do not modify by hand.
# Wavefront file for 'weaponry_mesh_0007.obj'

# Vertices (Count = 20)
v -656 -544 0
v -672 -544 0
v -672 -528 0
v -656 -528 0
v -576 -544 0
v -592 -544 0
v -592 -528 0
v -576 -528 0
v -544 -544 0
v -560 -544 0
v -560 -528 0
v -544 -528 0
v -496 -544 0
v -512 -544 0
v -512 -528 0
v -496 -528 0
v -480 -624 0
v -496 -624 0
v -496 -608 0
v -480 -608 0

# Texture cooridinates (Count = 16)
vt 0.9483471 0.8403042
vt 0.9648761 0.8403042
vt 0.9648761 0.8707224
vt 0.9483471 0.8707224
vt 0.3688017 0.743346
vt 0.3853306 0.743346
vt 0.3853306 0.7737643
vt 0.3688017 0.7737643
vt 0.4566116 0.7110266
vt 0.4731405 0.7110266
vt 0.4731405 0.7414448
vt 0.4566116 0.7414448
vt 0.6497934 0.6463878
vt 0.6663223 0.6463878
vt 0.6663223 0.6768061
vt 0.6497934 0.6768061

# Normal
vn 0 0 -1

# Mesh description
g weaponry_mesh_0007

# Faces
f 1/1/1 2/2/1 3/3/1 4/4/1
f 5/5/1 6/6/1 7/7/1 8/8/1
f 9/1/1 10/2/1 11/3/1 12/4/1
f 13/9/1 14/10/1 15/11/1 16/12/1
f 17/13/1 18/14/1 19/15/1 20/16/1

