# Tiled2Unity generated file. Do not modify by hand.
# Wavefront file for 'weaponry_mesh_0006.obj'

# Vertices (Count = 100)
v -576 -544 0
v -592 -544 0
v -592 -528 0
v -576 -528 0
v -560 -544 0
v -576 -544 0
v -576 -528 0
v -560 -528 0
v -608 -560 0
v -624 -560 0
v -624 -544 0
v -608 -544 0
v -576 -560 0
v -592 -560 0
v -592 -544 0
v -576 -544 0
v -560 -560 0
v -576 -560 0
v -576 -544 0
v -560 -544 0
v -704 -576 0
v -720 -576 0
v -720 -560 0
v -704 -560 0
v -688 -576 0
v -704 -576 0
v -704 -560 0
v -688 -560 0
v -672 -576 0
v -688 -576 0
v -688 -560 0
v -672 -560 0
v -656 -576 0
v -672 -576 0
v -672 -560 0
v -656 -560 0
v -608 -576 0
v -624 -576 0
v -624 -560 0
v -608 -560 0
v -576 -576 0
v -592 -576 0
v -592 -560 0
v -576 -560 0
v -560 -576 0
v -576 -576 0
v -576 -560 0
v -560 -560 0
v -544 -576 0
v -560 -576 0
v -560 -560 0
v -544 -560 0
v -528 -576 0
v -544 -576 0
v -544 -560 0
v -528 -560 0
v -528 -592 0
v -544 -592 0
v -544 -576 0
v -528 -576 0
v -528 -608 0
v -544 -608 0
v -544 -592 0
v -528 -592 0
v -688 -624 0
v -704 -624 0
v -704 -608 0
v -688 -608 0
v -672 -624 0
v -688 -624 0
v -688 -608 0
v -672 -608 0
v -656 -624 0
v -672 -624 0
v -672 -608 0
v -656 -608 0
v -528 -624 0
v -544 -624 0
v -544 -608 0
v -528 -608 0
v -688 -640 0
v -704 -640 0
v -704 -624 0
v -688 -624 0
v -672 -640 0
v -688 -640 0
v -688 -624 0
v -672 -624 0
v -656 -640 0
v -672 -640 0
v -672 -624 0
v -656 -624 0
v -720 -672 0
v -736 -672 0
v -736 -656 0
v -720 -656 0
v -704 -672 0
v -720 -672 0
v -720 -656 0
v -704 -656 0

# Texture cooridinates (Count = 72)
vt 0.4741735 0.7756654
vt 0.4907025 0.7756654
vt 0.4907025 0.8060837
vt 0.4741735 0.8060837
vt 0.4566116 0.8403042
vt 0.4731405 0.8403042
vt 0.4731405 0.8707224
vt 0.4566116 0.8707224
vt 0.2283058 0.9695817
vt 0.2448347 0.9695817
vt 0.2448347 1
vt 0.2283058 1
vt 0.1931818 0.7756654
vt 0.2097107 0.7756654
vt 0.2097107 0.8060837
vt 0.1931818 0.8060837
vt 0.1931818 0.8079848
vt 0.2097107 0.8079848
vt 0.2097107 0.838403
vt 0.1931818 0.838403
vt 0.9307851 0.2585551
vt 0.947314 0.2585551
vt 0.947314 0.2889734
vt 0.9307851 0.2889734
vt 0.2985537 0.7756654
vt 0.3150826 0.7756654
vt 0.3150826 0.8060837
vt 0.2985537 0.8060837
vt 0.2809917 0.7756654
vt 0.2975207 0.7756654
vt 0.2975207 0.8060837
vt 0.2809917 0.8060837
vt 0.2634298 0.7756654
vt 0.2799587 0.7756654
vt 0.2799587 0.8060837
vt 0.2634298 0.8060837
vt 0.2634298 0.9695817
vt 0.2799587 0.9695817
vt 0.2799587 1
vt 0.2634298 1
vt 0.2107438 0.7756654
vt 0.2272727 0.7756654
vt 0.2272727 0.8060837
vt 0.2107438 0.8060837
vt 0.2283058 0.8079848
vt 0.2448347 0.8079848
vt 0.2448347 0.838403
vt 0.2283058 0.838403
vt 0.4566116 0.9695817
vt 0.4731405 0.9695817
vt 0.4731405 1
vt 0.4566116 1
vt 0.6146694 0.6140684
vt 0.6311983 0.6140684
vt 0.6311983 0.6444867
vt 0.6146694 0.6444867
vt 0.4741735 0.8079848
vt 0.4907025 0.8079848
vt 0.4907025 0.838403
vt 0.4741735 0.838403
vt 0.4741735 0.8726236
vt 0.4907025 0.8726236
vt 0.4907025 0.9030418
vt 0.4741735 0.9030418
vt 0.4566116 0.8726236
vt 0.4731405 0.8726236
vt 0.4731405 0.9030418
vt 0.4566116 0.9030418
vt 0.3336777 0.8726236
vt 0.3502066 0.8726236
vt 0.3502066 0.9030418
vt 0.3336777 0.9030418

# Normal
vn 0 0 -1

# Mesh description
g weaponry_mesh_0006

# Faces
f 1/1/1 2/2/1 3/3/1 4/4/1
f 5/5/1 6/6/1 7/7/1 8/8/1
f 9/9/1 10/10/1 11/11/1 12/12/1
f 13/13/1 14/14/1 15/15/1 16/16/1
f 17/17/1 18/18/1 19/19/1 20/20/1
f 21/21/1 22/22/1 23/23/1 24/24/1
f 25/25/1 26/26/1 27/27/1 28/28/1
f 29/29/1 30/30/1 31/31/1 32/32/1
f 33/33/1 34/34/1 35/35/1 36/36/1
f 37/37/1 38/38/1 39/39/1 40/40/1
f 41/41/1 42/42/1 43/43/1 44/44/1
f 45/45/1 46/46/1 47/47/1 48/48/1
f 49/49/1 50/50/1 51/51/1 52/52/1
f 53/53/1 54/54/1 55/55/1 56/56/1
f 57/53/1 58/54/1 59/55/1 60/56/1
f 61/53/1 62/54/1 63/55/1 64/56/1
f 65/57/1 66/58/1 67/59/1 68/60/1
f 69/61/1 70/62/1 71/63/1 72/64/1
f 73/65/1 74/66/1 75/67/1 76/68/1
f 77/53/1 78/54/1 79/55/1 80/56/1
f 81/57/1 82/58/1 83/59/1 84/60/1
f 85/61/1 86/62/1 87/63/1 88/64/1
f 89/65/1 90/66/1 91/67/1 92/68/1
f 93/69/1 94/70/1 95/71/1 96/72/1
f 97/69/1 98/70/1 99/71/1 100/72/1

