# Tiled2Unity generated file. Do not modify by hand.
# Wavefront file for 'weaponry_mesh_0003.obj'

# Vertices (Count = 180)
v -592 -640 0
v -608 -640 0
v -608 -624 0
v -592 -624 0
v -576 -640 0
v -592 -640 0
v -592 -624 0
v -576 -624 0
v -560 -640 0
v -576 -640 0
v -576 -624 0
v -560 -624 0
v -544 -640 0
v -560 -640 0
v -560 -624 0
v -544 -624 0
v -528 -640 0
v -544 -640 0
v -544 -624 0
v -528 -624 0
v -512 -640 0
v -528 -640 0
v -528 -624 0
v -512 -624 0
v -496 -640 0
v -512 -640 0
v -512 -624 0
v -496 -624 0
v -480 -640 0
v -496 -640 0
v -496 -624 0
v -480 -624 0
v -464 -640 0
v -480 -640 0
v -480 -624 0
v -464 -624 0
v -592 -656 0
v -608 -656 0
v -608 -640 0
v -592 -640 0
v -576 -656 0
v -592 -656 0
v -592 -640 0
v -576 -640 0
v -560 -656 0
v -576 -656 0
v -576 -640 0
v -560 -640 0
v -544 -656 0
v -560 -656 0
v -560 -640 0
v -544 -640 0
v -528 -656 0
v -544 -656 0
v -544 -640 0
v -528 -640 0
v -512 -656 0
v -528 -656 0
v -528 -640 0
v -512 -640 0
v -496 -656 0
v -512 -656 0
v -512 -640 0
v -496 -640 0
v -480 -656 0
v -496 -656 0
v -496 -640 0
v -480 -640 0
v -464 -656 0
v -480 -656 0
v -480 -640 0
v -464 -640 0
v -592 -672 0
v -608 -672 0
v -608 -656 0
v -592 -656 0
v -576 -672 0
v -592 -672 0
v -592 -656 0
v -576 -656 0
v -560 -672 0
v -576 -672 0
v -576 -656 0
v -560 -656 0
v -544 -672 0
v -560 -672 0
v -560 -656 0
v -544 -656 0
v -528 -672 0
v -544 -672 0
v -544 -656 0
v -528 -656 0
v -512 -672 0
v -528 -672 0
v -528 -656 0
v -512 -656 0
v -496 -672 0
v -512 -672 0
v -512 -656 0
v -496 -656 0
v -480 -672 0
v -496 -672 0
v -496 -656 0
v -480 -656 0
v -464 -672 0
v -480 -672 0
v -480 -656 0
v -464 -656 0
v -592 -688 0
v -608 -688 0
v -608 -672 0
v -592 -672 0
v -576 -688 0
v -592 -688 0
v -592 -672 0
v -576 -672 0
v -560 -688 0
v -576 -688 0
v -576 -672 0
v -560 -672 0
v -544 -688 0
v -560 -688 0
v -560 -672 0
v -544 -672 0
v -528 -688 0
v -544 -688 0
v -544 -672 0
v -528 -672 0
v -512 -688 0
v -528 -688 0
v -528 -672 0
v -512 -672 0
v -496 -688 0
v -512 -688 0
v -512 -672 0
v -496 -672 0
v -480 -688 0
v -496 -688 0
v -496 -672 0
v -480 -672 0
v -464 -688 0
v -480 -688 0
v -480 -672 0
v -464 -672 0
v -592 -704 0
v -608 -704 0
v -608 -688 0
v -592 -688 0
v -576 -704 0
v -592 -704 0
v -592 -688 0
v -576 -688 0
v -560 -704 0
v -576 -704 0
v -576 -688 0
v -560 -688 0
v -544 -704 0
v -560 -704 0
v -560 -688 0
v -544 -688 0
v -528 -704 0
v -544 -704 0
v -544 -688 0
v -528 -688 0
v -512 -704 0
v -528 -704 0
v -528 -688 0
v -512 -688 0
v -496 -704 0
v -512 -704 0
v -512 -688 0
v -496 -688 0
v -480 -704 0
v -496 -704 0
v -496 -688 0
v -480 -688 0
v -464 -704 0
v -480 -704 0
v -480 -688 0
v -464 -688 0

# Texture cooridinates (Count = 36)
vt 0.1404959 0.161597
vt 0.1570248 0.161597
vt 0.1570248 0.1920152
vt 0.1404959 0.1920152
vt 0.1229339 0.161597
vt 0.1394628 0.161597
vt 0.1394628 0.1920152
vt 0.1229339 0.1920152
vt 0.1053719 0.161597
vt 0.1219008 0.161597
vt 0.1219008 0.1920152
vt 0.1053719 0.1920152
vt 0.1404959 0.1292776
vt 0.1570248 0.1292776
vt 0.1570248 0.1596958
vt 0.1404959 0.1596958
vt 0.1229339 0.1292776
vt 0.1394628 0.1292776
vt 0.1394628 0.1596958
vt 0.1229339 0.1596958
vt 0.1053719 0.1292776
vt 0.1219008 0.1292776
vt 0.1219008 0.1596958
vt 0.1053719 0.1596958
vt 0.1404959 0.09695816
vt 0.1570248 0.09695816
vt 0.1570248 0.1273764
vt 0.1404959 0.1273764
vt 0.1229339 0.09695816
vt 0.1394628 0.09695816
vt 0.1394628 0.1273764
vt 0.1229339 0.1273764
vt 0.1053719 0.09695816
vt 0.1219008 0.09695816
vt 0.1219008 0.1273764
vt 0.1053719 0.1273764

# Normal
vn 0 0 -1

# Mesh description
g weaponry_mesh_0003

# Faces
f 1/1/1 2/2/1 3/3/1 4/4/1
f 5/5/1 6/6/1 7/7/1 8/8/1
f 9/5/1 10/6/1 11/7/1 12/8/1
f 13/5/1 14/6/1 15/7/1 16/8/1
f 17/5/1 18/6/1 19/7/1 20/8/1
f 21/5/1 22/6/1 23/7/1 24/8/1
f 25/5/1 26/6/1 27/7/1 28/8/1
f 29/5/1 30/6/1 31/7/1 32/8/1
f 33/9/1 34/10/1 35/11/1 36/12/1
f 37/13/1 38/14/1 39/15/1 40/16/1
f 41/17/1 42/18/1 43/19/1 44/20/1
f 45/17/1 46/18/1 47/19/1 48/20/1
f 49/17/1 50/18/1 51/19/1 52/20/1
f 53/17/1 54/18/1 55/19/1 56/20/1
f 57/17/1 58/18/1 59/19/1 60/20/1
f 61/17/1 62/18/1 63/19/1 64/20/1
f 65/17/1 66/18/1 67/19/1 68/20/1
f 69/21/1 70/22/1 71/23/1 72/24/1
f 73/13/1 74/14/1 75/15/1 76/16/1
f 77/17/1 78/18/1 79/19/1 80/20/1
f 81/17/1 82/18/1 83/19/1 84/20/1
f 85/17/1 86/18/1 87/19/1 88/20/1
f 89/17/1 90/18/1 91/19/1 92/20/1
f 93/17/1 94/18/1 95/19/1 96/20/1
f 97/17/1 98/18/1 99/19/1 100/20/1
f 101/17/1 102/18/1 103/19/1 104/20/1
f 105/21/1 106/22/1 107/23/1 108/24/1
f 109/13/1 110/14/1 111/15/1 112/16/1
f 113/17/1 114/18/1 115/19/1 116/20/1
f 117/17/1 118/18/1 119/19/1 120/20/1
f 121/17/1 122/18/1 123/19/1 124/20/1
f 125/17/1 126/18/1 127/19/1 128/20/1
f 129/17/1 130/18/1 131/19/1 132/20/1
f 133/17/1 134/18/1 135/19/1 136/20/1
f 137/17/1 138/18/1 139/19/1 140/20/1
f 141/21/1 142/22/1 143/23/1 144/24/1
f 145/25/1 146/26/1 147/27/1 148/28/1
f 149/29/1 150/30/1 151/31/1 152/32/1
f 153/29/1 154/30/1 155/31/1 156/32/1
f 157/29/1 158/30/1 159/31/1 160/32/1
f 161/29/1 162/30/1 163/31/1 164/32/1
f 165/29/1 166/30/1 167/31/1 168/32/1
f 169/29/1 170/30/1 171/31/1 172/32/1
f 173/29/1 174/30/1 175/31/1 176/32/1
f 177/33/1 178/34/1 179/35/1 180/36/1

