# Tiled2Unity generated file. Do not modify by hand.
# Wavefront file for 'house1_mesh_0006.obj'

# Vertices (Count = 28)
v -688 -544 0
v -704 -544 0
v -704 -528 0
v -688 -528 0
v -672 -544 0
v -688 -544 0
v -688 -528 0
v -672 -528 0
v -544 -544 0
v -560 -544 0
v -560 -528 0
v -544 -528 0
v -688 -560 0
v -704 -560 0
v -704 -544 0
v -688 -544 0
v -544 -560 0
v -560 -560 0
v -560 -544 0
v -544 -544 0
v -704 -576 0
v -720 -576 0
v -720 -560 0
v -704 -560 0
v -640 -608 0
v -656 -608 0
v -656 -592 0
v -640 -592 0

# Texture cooridinates (Count = 20)
vt 0.9483471 0.904943
vt 0.9648761 0.904943
vt 0.9648761 0.9353612
vt 0.9483471 0.9353612
vt 0.4214876 0.743346
vt 0.4380165 0.743346
vt 0.4380165 0.7737643
vt 0.4214876 0.7737643
vt 0.9483471 0.9372624
vt 0.9648761 0.9372624
vt 0.9648761 0.9676806
vt 0.9483471 0.9676806
vt 0.3336777 0.743346
vt 0.3502066 0.743346
vt 0.3502066 0.7737643
vt 0.3336777 0.7737643
vt 0.4566116 0.7110266
vt 0.4731405 0.7110266
vt 0.4731405 0.7414448
vt 0.4566116 0.7414448

# Normal
vn 0 0 -1

# Mesh description
g house1_mesh_0006

# Faces
f 1/1/1 2/2/1 3/3/1 4/4/1
f 5/5/1 6/6/1 7/7/1 8/8/1
f 9/1/1 10/2/1 11/3/1 12/4/1
f 13/9/1 14/10/1 15/11/1 16/12/1
f 17/9/1 18/10/1 19/11/1 20/12/1
f 21/13/1 22/14/1 23/15/1 24/16/1
f 25/17/1 26/18/1 27/19/1 28/20/1

