# Tiled2Unity generated file. Do not modify by hand.
# Wavefront file for 'house1_mesh_0005.obj'

# Vertices (Count = 112)
v -608 -544 0
v -624 -544 0
v -624 -528 0
v -608 -528 0
v -592 -544 0
v -608 -544 0
v -608 -528 0
v -592 -528 0
v -576 -544 0
v -592 -544 0
v -592 -528 0
v -576 -528 0
v -624 -560 0
v -640 -560 0
v -640 -544 0
v -624 -544 0
v -704 -576 0
v -720 -576 0
v -720 -560 0
v -704 -560 0
v -672 -576 0
v -688 -576 0
v -688 -560 0
v -672 -560 0
v -624 -576 0
v -640 -576 0
v -640 -560 0
v -624 -560 0
v -608 -576 0
v -624 -576 0
v -624 -560 0
v -608 -560 0
v -592 -576 0
v -608 -576 0
v -608 -560 0
v -592 -560 0
v -576 -576 0
v -592 -576 0
v -592 -560 0
v -576 -560 0
v -560 -576 0
v -576 -576 0
v -576 -560 0
v -560 -560 0
v -704 -592 0
v -720 -592 0
v -720 -576 0
v -704 -576 0
v -608 -624 0
v -624 -624 0
v -624 -608 0
v -608 -608 0
v -592 -624 0
v -608 -624 0
v -608 -608 0
v -592 -608 0
v -576 -624 0
v -592 -624 0
v -592 -608 0
v -576 -608 0
v -560 -624 0
v -576 -624 0
v -576 -608 0
v -560 -608 0
v -704 -640 0
v -720 -640 0
v -720 -624 0
v -704 -624 0
v -688 -640 0
v -704 -640 0
v -704 -624 0
v -688 -624 0
v -640 -640 0
v -656 -640 0
v -656 -624 0
v -640 -624 0
v -544 -640 0
v -560 -640 0
v -560 -624 0
v -544 -624 0
v -528 -640 0
v -544 -640 0
v -544 -624 0
v -528 -624 0
v -704 -656 0
v -720 -656 0
v -720 -640 0
v -704 -640 0
v -688 -656 0
v -704 -656 0
v -704 -640 0
v -688 -640 0
v -544 -656 0
v -560 -656 0
v -560 -640 0
v -544 -640 0
v -528 -656 0
v -544 -656 0
v -544 -640 0
v -528 -640 0
v -560 -672 0
v -576 -672 0
v -576 -656 0
v -560 -656 0
v -544 -672 0
v -560 -672 0
v -560 -656 0
v -544 -656 0
v -528 -672 0
v -544 -672 0
v -544 -656 0
v -528 -656 0

# Texture cooridinates (Count = 108)
vt 0.5444215 0.8726236
vt 0.5609504 0.8726236
vt 0.5609504 0.9030418
vt 0.5444215 0.9030418
vt 0.5092975 0.904943
vt 0.5258265 0.904943
vt 0.5258265 0.9353612
vt 0.5092975 0.9353612
vt 0.4917355 0.904943
vt 0.5082645 0.904943
vt 0.5082645 0.9353612
vt 0.4917355 0.9353612
vt 0.4917355 0.8726236
vt 0.5082645 0.8726236
vt 0.5082645 0.9030418
vt 0.4917355 0.9030418
vt 0.3161157 0.7756654
vt 0.3326446 0.7756654
vt 0.3326446 0.8060837
vt 0.3161157 0.8060837
vt 0.4214876 0.8079848
vt 0.4380165 0.8079848
vt 0.4380165 0.838403
vt 0.4214876 0.838403
vt 0.4917355 0.8403042
vt 0.5082645 0.8403042
vt 0.5082645 0.8707224
vt 0.4917355 0.8707224
vt 0.5268595 0.9695817
vt 0.5433884 0.9695817
vt 0.5433884 1
vt 0.5268595 1
vt 0.4917355 0.9695817
vt 0.5082645 0.9695817
vt 0.5082645 1
vt 0.4917355 1
vt 0.5092975 0.9695817
vt 0.5258265 0.9695817
vt 0.5258265 1
vt 0.5092975 1
vt 0.4566116 0.9695817
vt 0.4731405 0.9695817
vt 0.4731405 1
vt 0.4566116 1
vt 0.2634298 0.9372624
vt 0.2799587 0.9372624
vt 0.2799587 0.9676806
vt 0.2634298 0.9676806
vt 0.3863636 0.8403042
vt 0.4028926 0.8403042
vt 0.4028926 0.8707224
vt 0.3863636 0.8707224
vt 0.4741735 0.8079848
vt 0.4907025 0.8079848
vt 0.4907025 0.838403
vt 0.4741735 0.838403
vt 0.4566116 0.8726236
vt 0.4731405 0.8726236
vt 0.4731405 0.9030418
vt 0.4566116 0.9030418
vt 0.3688017 0.8403042
vt 0.3853306 0.8403042
vt 0.3853306 0.8707224
vt 0.3688017 0.8707224
vt 0.7551653 0.5171102
vt 0.7716942 0.5171102
vt 0.7716942 0.5475285
vt 0.7551653 0.5475285
vt 0.3161157 0.8403042
vt 0.3326446 0.8403042
vt 0.3326446 0.8707224
vt 0.3161157 0.8707224
vt 0.4741735 0.7756654
vt 0.4907025 0.7756654
vt 0.4907025 0.8060837
vt 0.4741735 0.8060837
vt 0.4566116 0.8403042
vt 0.4731405 0.8403042
vt 0.4731405 0.8707224
vt 0.4566116 0.8707224
vt 0.4039256 0.8403042
vt 0.4204545 0.8403042
vt 0.4204545 0.8707224
vt 0.4039256 0.8707224
vt 0.3688017 0.8726236
vt 0.3853306 0.8726236
vt 0.3853306 0.9030418
vt 0.3688017 0.9030418
vt 0.2107438 0.7756654
vt 0.2272727 0.7756654
vt 0.2272727 0.8060837
vt 0.2107438 0.8060837
vt 0.1931818 0.8079848
vt 0.2097107 0.8079848
vt 0.2097107 0.838403
vt 0.1931818 0.838403
vt 0.2634298 0.743346
vt 0.2799587 0.743346
vt 0.2799587 0.7737643
vt 0.2634298 0.7737643
vt 0.1931818 0.7756654
vt 0.2097107 0.7756654
vt 0.2097107 0.8060837
vt 0.1931818 0.8060837
vt 0.1756198 0.8079848
vt 0.1921488 0.8079848
vt 0.1921488 0.838403
vt 0.1756198 0.838403

# Normal
vn 0 0 -1

# Mesh description
g house1_mesh_0005

# Faces
f 1/1/1 2/2/1 3/3/1 4/4/1
f 5/5/1 6/6/1 7/7/1 8/8/1
f 9/9/1 10/10/1 11/11/1 12/12/1
f 13/13/1 14/14/1 15/15/1 16/16/1
f 17/17/1 18/18/1 19/19/1 20/20/1
f 21/21/1 22/22/1 23/23/1 24/24/1
f 25/25/1 26/26/1 27/27/1 28/28/1
f 29/29/1 30/30/1 31/31/1 32/32/1
f 33/33/1 34/34/1 35/35/1 36/36/1
f 37/37/1 38/38/1 39/39/1 40/40/1
f 41/41/1 42/42/1 43/43/1 44/44/1
f 45/45/1 46/46/1 47/47/1 48/48/1
f 49/49/1 50/50/1 51/51/1 52/52/1
f 53/53/1 54/54/1 55/55/1 56/56/1
f 57/57/1 58/58/1 59/59/1 60/60/1
f 61/61/1 62/62/1 63/63/1 64/64/1
f 65/65/1 66/66/1 67/67/1 68/68/1
f 69/65/1 70/66/1 71/67/1 72/68/1
f 73/69/1 74/70/1 75/71/1 76/72/1
f 77/73/1 78/74/1 79/75/1 80/76/1
f 81/77/1 82/78/1 83/79/1 84/80/1
f 85/81/1 86/82/1 87/83/1 88/84/1
f 89/85/1 90/86/1 91/87/1 92/88/1
f 93/89/1 94/90/1 95/91/1 96/92/1
f 97/93/1 98/94/1 99/95/1 100/96/1
f 101/97/1 102/98/1 103/99/1 104/100/1
f 105/101/1 106/102/1 107/103/1 108/104/1
f 109/105/1 110/106/1 111/107/1 112/108/1

